<svg width="32" height="32" viewBox="0 0 32 32" fill="none" xmlns="http://www.w3.org/2000/svg">
<path fill-rule="evenodd" clip-rule="evenodd" d="M5.33301 9.33203H26.6663V25.9987C26.6663 27.1033 25.7709 27.9987 24.6663 27.9987H7.33301C6.22844 27.9987 5.33301 27.1033 5.33301 25.9987V9.33203ZM13.333 13.332C12.5966 13.332 11.9997 13.929 11.9997 14.6654C11.9997 15.4017 12.5966 15.9987 13.333 15.9987H18.6663C19.4027 15.9987 19.9997 15.4017 19.9997 14.6654C19.9997 13.929 19.4027 13.332 18.6663 13.332H13.333Z" fill="#EC008C"/>
<path opacity="0.3" d="M28.0003 4H4.00033C3.26395 4 2.66699 4.59695 2.66699 5.33333V8C2.66699 8.73638 3.26395 9.33333 4.00033 9.33333H28.0003C28.7367 9.33333 29.3337 8.73638 29.3337 8V5.33333C29.3337 4.59695 28.7367 4 28.0003 4Z" fill="#EC008C"/>
</svg>
