<svg width="121" height="120" viewBox="0 0 121 120" fill="none" xmlns="http://www.w3.org/2000/svg">
<g clip-path="url(#clip0_1201:80964)">
<mask id="mask0_1201:80964" style="mask-type:alpha" maskUnits="userSpaceOnUse" x="20" y="10" width="82" height="101">
<path d="M101.124 90.5586H40.749C37.9703 90.5586 35.7178 92.8112 35.7178 95.5899C35.7178 98.3685 37.9703 100.621 40.749 100.621H101.124V105.652C101.124 108.806 99.322 110.684 96.0928 110.684H35.7178C26.9312 110.684 20.624 104.114 20.624 95.5899V25.1523C20.624 16.6286 26.9312 10.0586 35.7178 10.0586H96.0928C99.322 10.0586 101.124 11.9357 101.124 15.0898V90.5586Z" fill="white"/>
</mask>
<g mask="url(#mask0_1201:80964)">
<path opacity="0.3" d="M101.125 90.5664H40.75C37.9713 90.5664 35.7188 92.819 35.7188 95.5977C35.7188 98.3764 37.9713 100.629 40.75 100.629H101.125V105.66C101.125 108.814 99.323 110.691 96.0938 110.691H35.7188C26.9322 110.691 20.625 104.121 20.625 95.5977V25.1602C20.625 16.6364 26.9322 10.0664 35.7188 10.0664H96.0938C99.323 10.0664 101.125 11.9435 101.125 15.0977V90.5664Z" fill="#7F8299"/>
<path opacity="0.3" fill-rule="evenodd" clip-rule="evenodd" d="M47.5412 58.3009C43.6352 57.2496 40.749 53.5416 40.749 49.1287C40.749 43.8982 44.8036 39.6581 49.8053 39.6581C50.0619 39.6581 50.3159 39.6692 50.5671 39.6911C52.423 34.1563 57.4631 30.1875 63.3896 30.1875C69.3162 30.1875 74.3563 34.1563 76.2122 39.6911C76.4633 39.6692 76.7174 39.6581 76.974 39.6581C81.9757 39.6581 86.0303 43.8982 86.0303 49.1287C86.0303 53.5416 83.1441 57.2496 79.2381 58.3009V68.0699C79.2381 69.3775 78.2244 70.4375 76.974 70.4375H49.8053C48.5549 70.4375 47.5412 69.3775 47.5412 68.0699V58.3009Z" fill="#7F8299"/>
</g>
</g>
<defs>
<clipPath id="clip0_1201:80964">
<rect width="120" height="120" fill="white" transform="translate(0.5)"/>
</clipPath>
</defs>
</svg>
