<svg width="24" height="24" viewBox="0 0 24 24" fill="none" xmlns="http://www.w3.org/2000/svg">
<path fill-rule="evenodd" clip-rule="evenodd" d="M9 10V19L10.1526 19.3842C11.3762 19.7921 12.6575 20 13.9473 20H17.5406C18.9706 20 20.2019 18.9906 20.4823 17.5883L21.2315 13.8424C21.5565 12.2177 20.5028 10.6372 18.8781 10.3123C18.6189 10.2604 18.354 10.2431 18.0902 10.2607L14.5 10.5L14.8642 6.49384C14.9327 5.74041 14.3774 5.07412 13.624 5.00563C13.5828 5.00188 13.5414 5 13.5 5C12.5694 5 11.707 5.48826 11.2283 6.28624L9 10Z" fill="#27C0CD"/>
<path opacity="0.3" d="M6 9H3C2.44772 9 2 9.44772 2 10V19C2 19.5523 2.44772 20 3 20H6C6.55228 20 7 19.5523 7 19V10C7 9.44772 6.55228 9 6 9Z" fill="#27C0CD"/>
</svg>
