<svg width="40" height="40" viewBox="0 0 40 40" fill="none" xmlns="http://www.w3.org/2000/svg">
<path opacity="0.3" d="M34.168 23.332C35.5487 23.332 36.668 22.2127 36.668 20.832C36.668 19.4513 35.5487 18.332 34.168 18.332C32.7873 18.332 31.668 19.4513 31.668 20.832C31.668 22.2127 32.7873 23.332 34.168 23.332Z" fill="#27C0CD"/>
<path opacity="0.3" d="M31.3718 1.74883L5.61378 8.65067C4.72467 8.8889 4.19703 9.8028 4.43527 10.6919L6.5921 18.7413C6.83033 19.6304 7.74423 20.158 8.63334 19.9198L34.3914 13.018C35.2805 12.7797 35.8081 11.8658 35.5699 10.9767L33.413 2.92734C33.1748 2.03823 32.2609 1.51059 31.3718 1.74883Z" fill="#27C0CD"/>
<path fill-rule="evenodd" clip-rule="evenodd" d="M36.6654 15.5627C35.9077 15.2027 35.06 15.0013 34.1654 15.0013C30.9437 15.0013 28.332 17.613 28.332 20.8346C28.332 24.0563 30.9437 26.668 34.1654 26.668C35.06 26.668 35.9077 26.4666 36.6654 26.1066V30.0013C36.6654 31.8423 35.173 33.3346 33.332 33.3346H6.66536C4.82442 33.3346 3.33203 31.8423 3.33203 30.0013V10.0013C3.33203 8.16035 4.82442 6.66797 6.66536 6.66797H33.332C35.173 6.66797 36.6654 8.16035 36.6654 10.0013V15.5627Z" fill="#27C0CD"/>
</svg>
