<svg width="32" height="32" viewBox="0 0 24 24" fill="none" xmlns="http://www.w3.org/2000/svg">
<path d="M0 5C0 2.23858 2.23858 0 5 0H19C21.7614 0 24 2.23858 24 5V19C24 21.7614 21.7614 24 19 24H5C2.23858 24 0 21.7614 0 19V5Z" fill="#F0426C" fill-opacity="0.1"/>
<path d="M7 8.66797V19.0846C7 19.775 7.55964 20.3346 8.25 20.3346H15.75C16.4404 20.3346 17 19.775 17 19.0846V8.66797H7Z" fill="#F0426C"/>
<path opacity="0.3" fill-rule="evenodd" clip-rule="evenodd" d="M13.6665 5.75V5.33333C13.6665 4.8731 13.2934 4.5 12.8332 4.5H11.1665C10.7063 4.5 10.3332 4.8731 10.3332 5.33333V5.75H6.58317C6.35305 5.75 6.1665 5.93655 6.1665 6.16667V6.58333C6.1665 6.81345 6.35305 7 6.58317 7H17.4165C17.6466 7 17.8332 6.81345 17.8332 6.58333V6.16667C17.8332 5.93655 17.6466 5.75 17.4165 5.75H13.6665Z" fill="#F0426C"/>
</svg>
