<svg width="24" height="24" viewBox="0 0 24 24" fill="none" xmlns="http://www.w3.org/2000/svg">
<path d="M16.2472 6.34262L6.34773 16.2421C5.95721 16.6326 5.95721 17.2658 6.34773 17.6563C6.73826 18.0468 7.37142 18.0468 7.76195 17.6563L17.6614 7.75683C18.052 7.36631 18.052 6.73314 17.6614 6.34262C17.2709 5.95209 16.6378 5.95209 16.2472 6.34262Z" fill="#B5B5C3"/>
<path d="M17.6613 16.2433L7.76179 6.34383C7.37127 5.9533 6.73811 5.9533 6.34758 6.34383C5.95706 6.73435 5.95706 7.36751 6.34758 7.75804L16.2471 17.6575C16.6376 18.0481 17.2708 18.0481 17.6613 17.6575C18.0518 17.267 18.0518 16.6338 17.6613 16.2433Z" fill="#B5B5C3"/>
</svg>
