<svg width="126" height="28" viewBox="0 0 126 28" fill="none" xmlns="http://www.w3.org/2000/svg">
<path d="M23.2505 16.6326C23.1914 13.8852 22.2165 11.6104 20.3553 9.74917C18.5827 8.12432 16.2784 7.26758 13.2946 7.26758C10.163 7.26758 7.56325 8.47883 5.5248 10.8423C4.04766 12.6444 3.25 14.9487 3.25 17.8144C3.25 20.4141 4.0772 22.7775 5.82022 24.4615C8.12456 26.5886 10.2516 27.1203 13.6786 27.1794C15.8057 27.1794 18.7304 26.6476 20.7098 25.4955C20.5325 24.4319 20.0303 23.3979 19.5576 22.7775C17.8441 23.5752 15.5989 24.107 13.915 24.107C10.1926 24.107 8.00639 22.9843 7.06102 19.6756C11.9947 19.7642 18.1396 19.321 23.0141 18.0802C23.1618 18.0802 23.2505 17.578 23.2505 16.6326ZM7.23828 17.0167C7.23828 16.1009 7.65188 13.6784 7.97685 12.8512C8.30182 12.024 8.95176 11.0786 9.74942 10.99C12.1424 10.7536 12.4378 15.2146 12.5855 16.7508C10.488 16.9576 8.83359 17.1053 7.23828 17.0167ZM15.0376 16.5736C15.008 15.6577 14.8899 13.1466 15.0967 12.024C15.2739 11.1672 15.7171 10.665 16.4852 10.5468C18.8781 10.1923 19.8826 14.2397 20.0894 15.7759C18.5827 16.1895 16.7215 16.5145 15.0376 16.5736Z" fill="#2BBECB"/>
<path d="M10.8127 6.08582C10.3104 6.23353 9.77867 6.38124 9.27644 6.61759C7.1789 7.53341 5.64267 8.74467 4.57913 10.2514C4.4905 10.1332 4.37233 10.015 4.19508 9.83775L0 5.49496C0 5.49496 2.92474 6.94256 3.98828 6.20399C5.02227 5.49496 4.49051 2.74748 4.49051 2.74748C4.49051 2.74748 6.70621 4.43142 7.76975 3.87011C8.77421 3.33834 8.98101 0 8.98101 0C8.98101 0 10.34 4.49051 10.724 5.84947L10.8127 6.08582Z" fill="#EB008B"/>
<path d="M26.0859 1.0332H42.7185V5.05102H30.6651V12.1118H42.039V15.9819H30.6651V26.8241H26.0859V1.0332Z" fill="#2BBECB"/>
<path d="M43.6641 13.8563C43.6641 11.7883 44.0186 9.92709 44.6981 8.27269C45.3775 6.61829 46.3525 5.20024 47.5637 4.01853C48.775 2.86636 50.2521 1.95053 51.936 1.33014C53.62 0.709737 55.4516 0.384766 57.4605 0.384766C59.4695 0.384766 61.3307 0.709737 63.0441 1.33014C64.7576 1.95053 66.2052 2.86636 67.446 4.01853C68.6868 5.1707 69.6617 6.58875 70.3412 8.27269C71.0207 9.92709 71.3752 11.7883 71.3752 13.8563C71.3752 15.8652 71.0207 17.6968 70.3412 19.3808C69.6617 21.0352 68.6868 22.4828 67.446 23.6645C66.2052 24.8757 64.7281 25.7916 63.0441 26.4711C61.3307 27.1505 59.499 27.4755 57.4605 27.4755C55.4812 27.4755 53.62 27.1505 51.936 26.4711C50.2521 25.7916 48.8045 24.8757 47.5637 23.6645C46.3525 22.4532 45.3775 21.0352 44.6981 19.3808C44.0186 17.6968 43.6641 15.8652 43.6641 13.8563ZM48.6568 13.8563C48.6568 15.2448 48.8636 16.5151 49.3067 17.6673C49.7203 18.8195 50.3407 19.8239 51.1384 20.6807C51.936 21.5374 52.8519 22.1873 53.945 22.66C55.038 23.1327 56.2197 23.3691 57.5196 23.3691C58.8195 23.3691 60.0308 23.1327 61.1239 22.66C62.2169 22.1873 63.1623 21.5374 63.96 20.6807C64.7576 19.8239 65.3485 18.8195 65.7916 17.6673C66.2052 16.5151 66.4416 15.2448 66.4416 13.8563C66.4416 12.5269 66.2348 11.2861 65.7916 10.1339C65.378 8.98172 64.7576 8.00681 63.9895 7.15007C63.2214 6.29332 62.276 5.64338 61.1829 5.14116C60.0899 4.66847 58.8786 4.40259 57.5492 4.40259C56.2198 4.40259 55.0085 4.63893 53.9154 5.14116C52.8223 5.61384 51.9065 6.29332 51.1384 7.15007C50.3703 8.00681 49.7499 8.98172 49.3363 10.1339C48.8931 11.2565 48.6568 12.4973 48.6568 13.8563Z" fill="#2BBECB"/>
<path d="M72.5586 13.8563C72.5586 11.7883 72.9131 9.92709 73.5926 8.27269C74.2721 6.61829 75.247 5.20024 76.4582 4.01853C77.6695 2.86636 79.1466 1.95053 80.8306 1.33014C82.5145 0.709737 84.3462 0.384766 86.3551 0.384766C88.364 0.384766 90.2252 0.709737 91.9387 1.33014C93.6522 1.95053 95.0998 2.86636 96.3405 4.01853C97.5813 5.1707 98.5563 6.58875 99.2357 8.27269C99.9152 9.92709 100.27 11.7883 100.27 13.8563C100.27 15.8652 99.9152 17.6968 99.2357 19.3808C98.5563 21.0352 97.5813 22.4828 96.3405 23.6645C95.0998 24.8757 93.6226 25.7916 91.9387 26.4711C90.2252 27.1505 88.3935 27.4755 86.3551 27.4755C84.3757 27.4755 82.5145 27.1505 80.8306 26.4711C79.1466 25.7916 77.699 24.8757 76.4582 23.6645C75.247 22.4532 74.2721 21.0352 73.5926 19.3808C72.9131 17.6968 72.5586 15.8652 72.5586 13.8563ZM77.5513 13.8563C77.5513 15.2448 77.7581 16.5151 78.2013 17.6673C78.6149 18.8195 79.2353 19.8239 80.0329 20.6807C80.8306 21.5374 81.7464 22.1873 82.8395 22.66C83.9326 23.1327 85.1143 23.3691 86.4142 23.3691C87.714 23.3691 88.9253 23.1327 90.0184 22.66C91.1115 22.1873 92.0568 21.5374 92.8545 20.6807C93.6522 19.8239 94.243 18.8195 94.6861 17.6673C95.0997 16.5151 95.3361 15.2448 95.3361 13.8563C95.3361 12.5269 95.1293 11.2861 94.6861 10.1339C94.2726 8.98172 93.6522 8.00681 92.884 7.15007C92.1159 6.29332 91.1706 5.64338 90.0775 5.14116C88.9844 4.66847 87.7731 4.40259 86.4437 4.40259C85.1143 4.40259 83.903 4.63893 82.8099 5.14116C81.7169 5.61384 80.801 6.29332 80.0329 7.15007C79.2648 8.00681 78.6444 8.98172 78.2308 10.1339C77.7581 11.2565 77.5513 12.4973 77.5513 13.8563Z" fill="#2BBECB"/>
<path d="M102.66 1.03516H111.789C113.473 1.03516 115.157 1.24196 116.841 1.6851C118.554 2.12824 120.061 2.83727 121.42 3.84172C122.779 4.84618 123.872 6.1756 124.729 7.80046C125.585 9.42531 125.999 11.4638 125.999 13.8863C125.999 16.1315 125.585 18.0814 124.729 19.7062C123.872 21.3311 122.779 22.6605 121.42 23.724C120.061 24.758 118.525 25.5261 116.841 26.0284C115.127 26.5306 113.443 26.7669 111.789 26.7669H102.66V1.03516ZM111.08 22.8082C112.262 22.8082 113.473 22.6605 114.655 22.3946C115.836 22.1287 116.929 21.656 117.875 20.9765C118.82 20.2971 119.618 19.4108 120.209 18.2586C120.829 17.1064 121.124 15.6588 121.124 13.9158C121.124 12.0842 120.829 10.5775 120.209 9.39577C119.588 8.2436 118.82 7.32777 117.875 6.67783C116.929 6.02789 115.836 5.58475 114.655 5.31886C113.473 5.08252 112.262 4.96435 111.08 4.96435H107.269V22.8082H111.08Z" fill="#2BBECB"/>
</svg>
