<svg width="16" height="16" viewBox="0 0 16 16" fill="none" xmlns="http://www.w3.org/2000/svg">
<g clip-path="url(#clip0_4718:81197)">
<path d="M15.8199 13.1132C16.3326 14.0019 15.6891 15.1128 14.665 15.1128H1.33484C0.308814 15.1128 -0.331798 14.0002 0.179925 13.1132L6.84509 1.55688C7.35806 0.667736 8.64287 0.669347 9.15492 1.55688L15.8199 13.1132ZM8.00001 10.724C7.29431 10.724 6.72223 11.296 6.72223 12.0017C6.72223 12.7074 7.29431 13.2795 8.00001 13.2795C8.7057 13.2795 9.27779 12.7074 9.27779 12.0017C9.27779 11.296 8.7057 10.724 8.00001 10.724ZM6.78687 6.13101L6.99292 9.90879C7.00256 10.0856 7.14873 10.224 7.32576 10.224H8.67426C8.85128 10.224 8.99745 10.0856 9.00709 9.90879L9.21315 6.13101C9.22356 5.94007 9.07154 5.77951 8.88031 5.77951H7.11967C6.92845 5.77951 6.77645 5.94007 6.78687 6.13101Z" fill="#F0426C"/>
</g>
<defs>
<clipPath id="clip0_4718:81197">
<rect width="16" height="16" fill="white"/>
</clipPath>
</defs>
</svg>
