<svg width="100" height="100" viewBox="0 0 100 100" fill="none" xmlns="http://www.w3.org/2000/svg">
<path d="M92.2458 61.2718C92.0851 51.2073 88.4696 42.8336 81.6403 35.9898C75.2127 29.9511 66.6961 26.8915 55.7692 26.8915C44.3602 26.8915 34.7991 31.3199 27.3271 40.0156C21.8636 46.6984 18.9712 55.0721 18.9712 65.6197C18.9712 75.2011 22.0243 83.8968 28.3716 90.016C36.8078 97.8261 44.6012 99.7585 57.2154 100C65.0892 100 75.6947 98.0676 83.0061 93.8003C82.3634 89.855 80.5154 86.0707 78.7478 83.8163C72.4809 86.7149 64.2054 88.7278 58.0992 88.7278C44.4405 88.7278 36.4061 84.6215 32.9512 72.4635C51.0288 72.7856 73.6058 71.1753 91.4424 66.6664C91.9244 66.5859 92.2458 64.6535 92.2458 61.2718ZM33.5136 62.6406C33.5136 59.2589 34.9598 50.3216 36.2454 47.3425C37.4505 44.3635 39.8609 40.8207 42.673 40.5792C51.5109 39.6935 52.5554 56.1188 53.0375 61.7549C45.4047 62.399 39.3788 62.8821 33.5136 62.6406ZM62.1968 60.9497C62.0361 57.6486 61.6344 48.3893 62.4378 44.2024C63.0806 40.9818 64.7678 39.2104 67.5799 38.8078C76.3375 37.5196 80.0334 52.4151 80.8368 58.0512C75.052 59.581 68.303 60.7887 62.1968 60.9497Z" fill="#2DBFCC"/>
<path d="M46.6904 22.464C44.7621 23.0276 42.9142 23.5912 41.0663 24.3964C33.3532 27.778 27.6487 32.2064 23.7921 37.762C23.4707 37.3594 22.9887 36.8763 22.3459 36.2322L7 20.29C7 20.29 17.7662 25.6041 21.6228 22.8666C25.3187 20.2095 23.4707 10.145 23.4707 10.145C23.4707 10.145 31.6659 16.2642 35.5225 14.2513C39.2183 12.2384 39.9414 0 39.9414 0C39.9414 0 44.9228 16.5058 46.369 21.4978L46.6904 22.464Z" fill="#EC008C"/>
</svg>
