<svg width="24" height="24" viewBox="0 0 24 24" fill="none" xmlns="http://www.w3.org/2000/svg">
<path d="M18.6688 11.9999L14.9999 11.9999L14.9999 17.9999H8.99991L8.99991 11.9999L5.32567 11.9999L11.992 5.32831L18.6688 11.9999ZM6.99991 13.9999L6.99991 18.9999C6.99991 19.5522 7.44763 19.9999 7.99991 19.9999L15.9999 19.9999C16.5522 19.9999 16.9999 19.5522 16.9999 18.9999L16.9999 13.9999H21.6882C21.8873 13.9999 22.0781 13.9208 22.2188 13.78C22.5116 13.487 22.5114 13.0121 22.2184 12.7193L12.5215 3.03001C12.2284 2.73723 11.7536 2.73742 11.4608 3.03042L1.77903 12.7198C1.63851 12.8604 1.55957 13.0511 1.55957 13.2499C1.55957 13.6641 1.89536 13.9999 2.30957 13.9999L6.99991 13.9999Z" fill="#EC008C"/>
</svg>
