<svg width="24" height="24" viewBox="0 0 24 24" fill="none" xmlns="http://www.w3.org/2000/svg">
<path fill-rule="evenodd" clip-rule="evenodd" d="M3.98798 3.06006L11.059 10.1311L8.23062 12.9596L3.98798 8.71691C2.42588 7.15482 2.42588 4.62216 3.98798 3.06006Z" fill="white"/>
<path fill-rule="evenodd" clip-rule="evenodd" d="M17.7541 3.9073L14.8887 7.40941C14.709 7.62909 14.7249 7.94923 14.9256 8.14994C15.1263 8.35065 15.4465 8.36662 15.6662 8.18688L19.1683 5.32152L19.8754 6.02862L17.01 9.53073C16.8303 9.75041 16.8462 10.0706 17.047 10.2713C17.2477 10.472 17.5678 10.4879 17.7875 10.3082L21.2896 7.44284L21.9967 8.14994L18.8147 11.3319C17.4479 12.6988 15.2318 12.6988 13.865 11.3319C12.4981 9.96509 12.4981 7.74901 13.865 6.38218L17.047 3.2002L17.7541 3.9073Z" fill="white"/>
<path opacity="0.3" fill-rule="evenodd" clip-rule="evenodd" d="M11.0749 13.9248C11.4711 14.3209 11.4872 14.9581 11.1115 15.3737L6.1414 20.8726C5.61326 21.4569 4.71142 21.5025 4.12709 20.9743C4.10929 20.9583 4.0919 20.9417 4.07494 20.9248C3.51799 20.3678 3.51799 19.4648 4.07494 18.9079C4.0919 18.8909 4.10929 18.8744 4.12709 18.8583L9.62595 13.8882C10.0416 13.5125 10.6788 13.5286 11.0749 13.9248Z" fill="white"/>
<path opacity="0.3" fill-rule="evenodd" clip-rule="evenodd" d="M13.0756 13.9248C13.4718 13.5286 14.109 13.5125 14.5246 13.8882L20.0235 18.8583C20.0413 18.8744 20.0587 18.8909 20.0756 18.9079C20.6326 19.4648 20.6326 20.3678 20.0756 20.9248C20.0587 20.9417 20.0413 20.9583 20.0235 20.9743C19.4392 21.5025 18.5373 21.4569 18.0092 20.8726L13.0391 15.3737C12.6634 14.9581 12.6795 14.3209 13.0756 13.9248Z" fill="white"/>
</svg>
