<svg width="33" height="32" viewBox="0 0 33 32" fill="none" xmlns="http://www.w3.org/2000/svg">
<path opacity="0.3" fill-rule="evenodd" clip-rule="evenodd" d="M16.4993 10.6668C15.0266 10.6668 13.8327 9.47292 13.8327 8.00016C13.8327 6.5274 15.0266 5.3335 16.4993 5.3335C17.9721 5.3335 19.166 6.5274 19.166 8.00016C19.166 9.47292 17.9721 10.6668 16.4993 10.6668ZM4.49935 24.0002H28.4993C29.2357 24.0002 29.8327 24.5971 29.8327 25.3335C29.8327 26.0699 29.2357 26.6668 28.4993 26.6668H4.49935C3.76297 26.6668 3.16602 26.0699 3.16602 25.3335C3.16602 24.5971 3.76297 24.0002 4.49935 24.0002Z" fill="#7F8299"/>
<path fill-rule="evenodd" clip-rule="evenodd" d="M28.5 21.3335C28.5 14.7061 23.1274 9.3335 16.5 9.3335C9.87258 9.3335 4.5 14.7061 4.5 21.3335H28.5Z" fill="#7F8299"/>
</svg>
