<svg width="150" height="50" viewBox="0 0 299 100" fill="none" xmlns="http://www.w3.org/2000/svg">
<path d="M174.769 13.8571C174.769 11.6597 173.945 9.87438 172.504 8.36369C171.131 7.059 169.278 6.37231 166.876 6.37231C164.406 6.37231 162.347 7.33367 160.7 9.1877C159.533 10.6297 158.915 12.4151 158.915 14.7498C158.915 16.8098 159.601 18.7325 160.974 20.0372C162.827 21.7539 164.474 22.1659 167.219 22.1659C168.935 22.1659 171.2 21.7539 172.847 20.7926C172.71 19.9685 172.298 19.1445 171.955 18.6639C170.582 19.2819 168.798 19.6939 167.494 19.6939C164.543 19.6939 162.758 18.8012 162.004 16.1918C165.915 16.2605 170.788 15.9171 174.7 14.9558C174.7 15.0245 174.769 14.6125 174.769 13.8571ZM162.072 14.2005C162.072 13.4451 162.415 11.5224 162.69 10.9044C162.964 10.2864 163.445 9.46237 164.062 9.46237C165.984 9.25636 166.19 12.8271 166.327 14.0631C164.612 14.1318 163.308 14.2005 162.072 14.2005ZM168.249 13.7884C168.18 13.0331 168.112 11.0417 168.318 10.149C168.455 9.46237 168.798 9.05036 169.416 8.98169C171.337 8.70702 172.092 11.9344 172.298 13.1704C171.063 13.5138 169.622 13.7884 168.249 13.7884Z" fill="#27C0CD"/>
<path d="M164.888 5.4799C164.476 5.61724 164.064 5.68591 163.652 5.89192C162.005 6.57859 160.77 7.60861 159.946 8.77596C159.878 8.7073 159.74 8.56996 159.603 8.43262L156.309 4.99923C156.309 4.99923 158.642 6.16659 159.466 5.54858C160.29 4.99923 159.878 2.80186 159.878 2.80186C159.878 2.80186 161.662 4.10655 162.486 3.69455C163.309 3.28254 163.447 0.604492 163.447 0.604492C163.447 0.604492 164.545 4.17522 164.819 5.27391L164.888 5.4799Z" fill="#EB008B"/>
<path d="M194.535 12.6477C194.535 11.1754 194.788 9.8502 195.271 8.67228C195.755 7.49437 196.449 6.48473 197.312 5.64336C198.174 4.82302 199.226 4.17096 200.425 3.72925C201.624 3.28753 202.928 3.05615 204.358 3.05615C205.789 3.05615 207.114 3.28753 208.334 3.72925C209.554 4.17096 210.584 4.82302 211.468 5.64336C212.351 6.46369 213.045 7.47333 213.529 8.67228C214.013 9.8502 214.265 11.1754 214.265 12.6477C214.265 14.0781 214.013 15.3822 213.529 16.5811C213.045 17.7591 212.351 18.7897 211.468 19.6311C210.584 20.4935 209.533 21.1456 208.334 21.6293C207.114 22.1131 205.81 22.3445 204.358 22.3445C202.949 22.3445 201.624 22.1131 200.425 21.6293C199.226 21.1456 198.195 20.4935 197.312 19.6311C196.449 18.7687 195.755 17.7591 195.271 16.5811C194.788 15.3822 194.535 14.0781 194.535 12.6477ZM198.09 12.6477C198.09 13.6364 198.237 14.5408 198.553 15.3612C198.847 16.1815 199.289 16.8967 199.857 17.5066C200.425 18.1166 201.077 18.5794 201.855 18.9159C202.633 19.2525 203.475 19.4208 204.4 19.4208C205.326 19.4208 206.188 19.2525 206.966 18.9159C207.745 18.5794 208.418 18.1166 208.986 17.5066C209.554 16.8967 209.974 16.1815 210.29 15.3612C210.584 14.5408 210.753 13.6364 210.753 12.6477C210.753 11.7012 210.605 10.8178 210.29 9.99744C209.995 9.1771 209.554 8.48297 209.007 7.87298C208.46 7.26299 207.787 6.80024 207.009 6.44266C206.23 6.10611 205.368 5.9168 204.421 5.9168C203.475 5.9168 202.612 6.08508 201.834 6.44266C201.056 6.7792 200.404 7.26299 199.857 7.87298C199.31 8.48297 198.868 9.1771 198.574 9.99744C198.237 10.7967 198.09 11.6802 198.09 12.6477Z" fill="#27C0CD"/>
<path fill-rule="evenodd" clip-rule="evenodd" d="M227.149 3.05615H214.073V6.21243H218.976L218.976 22.3446H222.245L222.245 6.21243H227.149V3.05615Z" fill="#27C0CD"/>
<path d="M176.481 3.51929H182.981C184.18 3.51929 185.379 3.66653 186.577 3.98204C187.797 4.29755 188.87 4.80237 189.838 5.51754C190.805 6.2327 191.584 7.17924 192.194 8.33612C192.804 9.493 193.098 10.9444 193.098 12.6692C193.098 14.2678 192.804 15.656 192.194 16.8129C191.584 17.9698 190.805 18.9163 189.838 19.6736C188.87 20.4097 187.776 20.9566 186.577 21.3142C185.358 21.6718 184.159 21.8401 182.981 21.8401H176.481V3.51929ZM182.476 19.0215C183.317 19.0215 184.18 18.9163 185.021 18.727C185.862 18.5377 186.641 18.2012 187.314 17.7174C187.987 17.2336 188.555 16.6026 188.975 15.7822C189.417 14.9619 189.627 13.9312 189.627 12.6902C189.627 11.3861 189.417 10.3133 188.975 9.47197C188.534 8.65163 187.987 7.99957 187.314 7.53682C186.641 7.07407 185.862 6.75855 185.021 6.56925C184.18 6.40097 183.317 6.31684 182.476 6.31684H179.762V19.0215H182.476Z" fill="#27C0CD"/>
<path d="M70.9086 7.29443H74.6415C75.3038 7.29443 75.9059 7.41492 76.3273 7.59564C76.7488 7.77636 77.11 8.01733 77.3509 8.31854C77.5917 8.61974 77.7723 8.92094 77.8927 9.28239C78.0132 9.64384 78.0132 10.0053 78.0132 10.3065C78.0132 10.6077 77.953 10.9691 77.8927 11.3306C77.7723 11.692 77.5917 11.9932 77.3509 12.2944C77.11 12.5956 76.7488 12.8366 76.3273 13.0173C75.9059 13.1981 75.3038 13.3185 74.6415 13.3185H72.3536V18.0173H70.9086V7.29443ZM72.3536 11.933H74.22C74.5211 11.933 74.7619 11.933 75.063 11.8728C75.364 11.8125 75.6048 11.7523 75.7855 11.6318C76.0263 11.5113 76.1467 11.3306 76.3273 11.0896C76.4477 10.8487 76.508 10.5475 76.508 10.186C76.508 9.82456 76.4477 9.52335 76.3273 9.28239C76.2069 9.04143 76.0263 8.86071 75.7855 8.74022C75.5446 8.61974 75.3038 8.5595 75.063 8.49925C74.7619 8.43901 74.5211 8.43902 74.22 8.43902H72.3536V11.933Z" fill="#27C0CD"/>
<path d="M79.1544 14.3423C79.1544 13.8001 79.2748 13.3181 79.4555 12.8965C79.6361 12.4145 79.9371 12.0531 80.2382 11.6916C80.5392 11.3302 80.9607 11.0892 81.4423 10.9085C81.924 10.7278 82.4057 10.6073 82.9476 10.6073C83.4894 10.6073 83.9711 10.7278 84.4528 10.9085C84.9344 11.0892 85.2957 11.3904 85.6569 11.6916C86.0182 11.9928 86.259 12.4145 86.4396 12.8965C86.6203 13.3784 86.7407 13.8603 86.7407 14.3423C86.7407 14.8242 86.6203 15.3663 86.4396 15.788C86.259 16.27 85.958 16.6314 85.6569 16.9929C85.3559 17.3543 84.9344 17.5953 84.4528 17.776C83.9711 17.9567 83.4894 18.0772 82.9476 18.0772C82.4057 18.0772 81.924 17.9567 81.4423 17.776C80.9607 17.5953 80.5994 17.2941 80.2382 16.9929C79.8769 16.6916 79.6361 16.27 79.4555 15.788C79.2748 15.3663 79.1544 14.8844 79.1544 14.3423ZM80.5994 14.3423C80.5994 14.7037 80.6596 15.0651 80.78 15.3663C80.9005 15.6676 81.0209 15.9085 81.2617 16.1495C81.4423 16.3904 81.6832 16.5109 81.9842 16.6314C82.2853 16.7519 82.5863 16.8121 82.9476 16.8121C83.3088 16.8121 83.6098 16.7519 83.9109 16.6314C84.2119 16.5109 84.4528 16.3302 84.6334 16.1495C84.814 15.9085 84.9946 15.6676 85.1151 15.3663C85.2355 15.0651 85.2957 14.7037 85.2957 14.3423C85.2957 13.9808 85.2355 13.6194 85.1151 13.3181C84.9946 13.0169 84.8742 12.776 84.6334 12.535C84.4528 12.2941 84.2119 12.1736 83.9109 12.0531C83.6098 11.9326 83.3088 11.8724 82.9476 11.8724C82.5863 11.8724 82.2853 11.9326 81.9842 12.0531C81.6832 12.1736 81.4423 12.3543 81.2617 12.535C81.0811 12.776 80.9005 13.0169 80.78 13.3181C80.6596 13.6796 80.5994 13.9808 80.5994 14.3423Z" fill="#27C0CD"/>
<path d="M87.5834 10.7882H89.0886L90.7142 16.0894H90.7744L92.4603 10.7882H93.9053L95.7115 16.0894H95.7717L97.2769 10.7882H98.7219L96.434 17.8967H95.0492L93.1828 12.5954H93.1225L91.3765 17.8967H89.9315L87.5834 10.7882Z" fill="#27C0CD"/>
<path d="M100.894 14.8241C100.894 15.1253 100.955 15.4265 101.075 15.6675C101.195 15.9084 101.376 16.1494 101.617 16.3301C101.858 16.5109 102.099 16.6313 102.4 16.7518C102.701 16.8723 103.002 16.8723 103.303 16.8723C103.724 16.8723 104.085 16.7518 104.387 16.5711C104.688 16.3904 104.989 16.0892 105.229 15.788L106.253 16.5711C105.53 17.535 104.447 18.0169 103.122 18.0169C102.58 18.0169 102.038 17.8964 101.617 17.7157C101.195 17.535 100.774 17.2337 100.473 16.9325C100.172 16.5711 99.9311 16.2096 99.7505 15.7277C99.5698 15.2458 99.5096 14.7639 99.5096 14.2217C99.5096 13.6795 99.6301 13.1976 99.8107 12.7157C99.9913 12.2337 100.232 11.8723 100.593 11.5108C100.955 11.1494 101.316 10.9084 101.737 10.7277C102.159 10.547 102.701 10.4265 103.182 10.4265C103.784 10.4265 104.326 10.547 104.808 10.7277C105.229 10.9687 105.591 11.2096 105.892 11.5711C106.193 11.9325 106.373 12.3542 106.494 12.7759C106.614 13.1976 106.674 13.6795 106.674 14.1615V14.6434H100.894V14.8241ZM105.169 13.7398C105.169 13.4386 105.109 13.1374 105.049 12.8964C104.989 12.6554 104.808 12.4145 104.688 12.2337C104.507 12.053 104.326 11.9325 104.025 11.8121C103.724 11.6916 103.483 11.6313 103.122 11.6313C102.821 11.6313 102.46 11.6916 102.219 11.8121C101.918 11.9325 101.737 12.1133 101.497 12.294C101.316 12.4747 101.135 12.7157 101.075 12.9566C101.015 13.1976 100.894 13.4386 100.894 13.6795H105.169V13.7398Z" fill="#27C0CD"/>
<path d="M108.238 10.7881H109.562V11.8724C109.622 11.6917 109.743 11.511 109.923 11.3303C110.044 11.1495 110.225 11.029 110.405 10.9086C110.586 10.7881 110.766 10.7278 111.007 10.6676C111.248 10.6074 111.429 10.5471 111.67 10.5471C111.91 10.5471 112.091 10.5471 112.272 10.6676L112.211 12.1134C112.091 12.1134 111.971 12.0531 111.91 12.0531C111.79 12.0531 111.67 12.0531 111.609 12.0531C110.947 12.0531 110.465 12.2339 110.104 12.5953C109.743 12.9568 109.562 13.5592 109.562 14.3423V17.8965H108.238V10.7881Z" fill="#27C0CD"/>
<path d="M114.56 14.8241C114.56 15.1253 114.62 15.4265 114.741 15.6675C114.861 15.9084 115.042 16.1494 115.283 16.3301C115.524 16.5109 115.764 16.6313 116.065 16.7518C116.366 16.8723 116.668 16.8723 116.969 16.8723C117.39 16.8723 117.751 16.7518 118.052 16.5711C118.353 16.3904 118.654 16.0892 118.895 15.788L119.919 16.5711C119.196 17.535 118.113 18.0169 116.788 18.0169C116.246 18.0169 115.704 17.8964 115.283 17.7157C114.861 17.535 114.44 17.2337 114.139 16.9325C113.838 16.5711 113.597 16.2096 113.416 15.7277C113.236 15.2458 113.175 14.7639 113.175 14.2217C113.175 13.6795 113.296 13.1976 113.476 12.7157C113.657 12.2337 113.898 11.8723 114.259 11.5108C114.62 11.1494 114.982 10.9084 115.403 10.7277C115.825 10.547 116.366 10.4265 116.848 10.4265C117.45 10.4265 117.992 10.547 118.474 10.7277C118.895 10.9687 119.256 11.2096 119.558 11.5711C119.859 11.9325 120.039 12.3542 120.16 12.7759C120.28 13.1976 120.34 13.6795 120.34 14.1615V14.6434H114.56V14.8241ZM118.835 13.7398C118.835 13.4386 118.775 13.1374 118.715 12.8964C118.654 12.6554 118.474 12.4145 118.353 12.2337C118.173 12.053 117.992 11.9325 117.691 11.8121C117.39 11.6916 117.149 11.6313 116.788 11.6313C116.487 11.6313 116.126 11.6916 115.885 11.8121C115.584 11.9325 115.403 12.1133 115.162 12.294C114.982 12.4747 114.801 12.7157 114.741 12.9566C114.681 13.1976 114.56 13.4386 114.56 13.6795H118.835V13.7398Z" fill="#27C0CD"/>
<path d="M129.01 17.8967H127.685V16.8726C127.445 17.234 127.083 17.5352 126.602 17.7762C126.12 17.9569 125.699 18.0774 125.217 18.0774C124.675 18.0774 124.193 17.9569 123.712 17.7762C123.23 17.5955 122.869 17.2942 122.568 16.993C122.267 16.6316 122.026 16.2702 121.845 15.7882C121.665 15.3063 121.604 14.8244 121.604 14.3424C121.604 13.8003 121.665 13.3183 121.845 12.8364C122.026 12.3545 122.267 11.993 122.568 11.6316C122.869 11.2701 123.29 11.0292 123.712 10.8485C124.133 10.6677 124.675 10.5473 125.217 10.5473C125.699 10.5473 126.18 10.6677 126.662 10.8485C127.083 11.0894 127.445 11.3304 127.685 11.7521V6.51111H129.01V17.8967ZM125.337 16.8123C125.699 16.8123 126 16.7521 126.301 16.6316C126.602 16.5111 126.843 16.3304 127.023 16.1497C127.204 15.9087 127.384 15.6677 127.505 15.3665C127.625 15.0653 127.685 14.7039 127.685 14.3424C127.685 13.981 127.625 13.6195 127.505 13.3183C127.384 13.0171 127.264 12.7762 127.023 12.5352C126.843 12.2942 126.602 12.1738 126.301 12.0533C126 11.9328 125.699 11.8726 125.337 11.8726C124.976 11.8726 124.675 11.9328 124.374 12.0533C124.073 12.1738 123.832 12.3545 123.651 12.5352C123.471 12.7762 123.29 13.0171 123.17 13.3183C123.049 13.6195 122.989 13.981 122.989 14.3424C122.989 14.7039 123.049 15.0653 123.17 15.3665C123.29 15.6677 123.411 15.9087 123.651 16.1497C123.832 16.3906 124.073 16.5111 124.374 16.6316C124.615 16.7521 124.976 16.8123 125.337 16.8123Z" fill="#27C0CD"/>
<path d="M135.264 6.57141H136.589V11.8124C136.829 11.4509 137.191 11.1497 137.612 10.9088C138.094 10.6678 138.515 10.6076 139.057 10.6076C139.599 10.6076 140.081 10.728 140.562 10.9088C140.984 11.0895 141.405 11.3907 141.706 11.6919C142.007 11.9931 142.248 12.4148 142.429 12.8967C142.609 13.3786 142.67 13.8606 142.67 14.4027C142.67 14.9449 142.609 15.4268 142.429 15.8485C142.248 16.2702 142.007 16.6919 141.706 17.0534C141.405 17.4148 140.984 17.6558 140.562 17.8365C140.141 18.0172 139.599 18.1377 139.057 18.1377C138.576 18.1377 138.094 18.0172 137.672 17.8365C137.191 17.5955 136.829 17.3546 136.589 16.9329V17.957H135.264V6.57141ZM138.937 16.8124C139.298 16.8124 139.599 16.7521 139.9 16.6317C140.201 16.5112 140.442 16.3305 140.623 16.1497C140.803 15.969 140.984 15.6678 141.104 15.3666C141.225 15.0654 141.285 14.704 141.285 14.3425C141.285 13.9811 141.225 13.6196 141.104 13.3184C140.984 13.0172 140.863 12.7762 140.623 12.5353C140.382 12.2943 140.201 12.1738 139.9 12.0533C139.599 11.9329 139.298 11.8726 138.937 11.8726C138.576 11.8726 138.274 11.9329 137.973 12.0533C137.672 12.1738 137.432 12.3546 137.251 12.5353C137.07 12.7762 136.89 13.0172 136.769 13.3184C136.649 13.6196 136.589 13.9811 136.589 14.3425C136.589 14.704 136.649 15.0654 136.769 15.3666C136.89 15.6678 137.01 15.9088 137.251 16.1497C137.432 16.3907 137.672 16.5112 137.973 16.6317C138.274 16.7521 138.576 16.8124 138.937 16.8124Z" fill="#27C0CD"/>
<path d="M143.632 10.7882H145.197L147.305 16.3304H147.365L149.412 10.7882H150.857L147.485 19.4629C147.365 19.7641 147.244 20.0653 147.124 20.3063C147.004 20.5473 146.823 20.7882 146.642 20.9689C146.462 21.1497 146.221 21.2702 145.98 21.3906C145.739 21.5111 145.438 21.5111 145.017 21.5111C144.836 21.5111 144.595 21.5111 144.415 21.4509C144.234 21.4509 143.993 21.3906 143.813 21.2702L143.993 20.0653C144.234 20.1858 144.535 20.246 144.776 20.246C144.957 20.246 145.137 20.2461 145.318 20.1858C145.438 20.1256 145.559 20.0653 145.679 19.9448C145.799 19.8244 145.86 19.7039 145.92 19.5834C145.98 19.4629 146.04 19.2822 146.101 19.1015L146.522 17.9569L143.632 10.7882Z" fill="#27C0CD"/>
<path d="M55.2734 71.875C55.2734 86.8694 43.1189 99.0234 28.125 99.0234C13.1311 99.0234 0.976562 86.8694 0.976562 71.875C0.976562 56.8819 13.1312 44.7266 28.125 44.7266C43.1188 44.7266 55.2734 56.8819 55.2734 71.875Z" fill="#2BBECB" stroke="#27C0CD" stroke-width="1.95312"/>
<path d="M32.8436 60.6188C32.8741 60.3986 32.8964 60.1753 32.8964 59.9475C32.8964 57.3161 30.7561 55.1765 28.1257 55.1765C25.4953 55.1765 23.3549 57.3161 23.3549 59.9475C23.3549 60.1753 23.3772 60.3986 23.4077 60.6188C16.3639 62.662 11.2122 69.1576 11.2122 76.8608H45.0388C45.0392 69.1576 39.8875 62.662 32.8436 60.6188ZM25.5675 59.9473C25.5675 58.5363 26.715 57.3891 28.1257 57.3891C29.5363 57.3891 30.6838 58.5363 30.6838 59.9473C30.6838 60.0117 30.6693 60.0729 30.6644 60.137C29.8361 60.0125 28.9885 59.9473 28.1257 59.9473C27.2629 59.9473 26.4151 60.0125 25.587 60.137C25.5822 60.0729 25.5675 60.0117 25.5675 59.9473Z" fill="white"/>
<path d="M7.58057 78.4626C7.58057 81.4124 9.97186 83.8043 12.9222 83.8043H43.3314C46.2811 83.8043 48.6724 81.4124 48.6724 78.4626H7.58057Z" fill="white"/>
<path d="M33.1424 73.7687C32.4304 73.5475 31.6968 73.3597 30.9216 73.2403C27.7363 72.7464 24.9833 73.0315 22.6025 74.044C22.5622 73.8535 22.5087 73.599 22.4328 73.254L20.697 64.9349C20.697 64.9349 23.1175 68.8524 24.9263 68.7622C26.6771 68.6774 28.1275 65.0059 28.1275 65.0059C28.1275 65.0059 29.5273 68.6676 31.2053 68.7872C32.8198 68.9012 35.5581 65.0783 35.5581 65.0783C35.5581 65.0783 33.7987 71.4601 33.2572 73.361L33.1424 73.7687Z" fill="#EB008B"/>
<path d="M111.056 77.1434C110.949 72.1434 109.174 68.0036 105.787 64.6165C102.561 61.6595 98.3679 60.1003 92.9378 60.1003C87.2389 60.1003 82.5077 62.3046 78.798 66.6057C76.1098 69.8853 74.6582 74.0789 74.6582 79.2939C74.6582 84.0251 76.1636 88.3262 79.3356 91.3907C83.5292 95.2617 87.4002 96.2294 93.6367 96.3369C97.5077 96.3369 102.83 95.3692 106.432 93.2724C106.11 91.3369 105.196 89.4552 104.336 88.3262C101.217 89.7778 97.1314 90.7455 94.0668 90.7455C87.2926 90.7455 83.3141 88.7025 81.5937 82.681C90.5722 82.8423 101.755 82.0359 110.626 79.7778C110.895 79.7778 111.056 78.8638 111.056 77.1434ZM81.9163 77.8423C81.9163 76.1756 82.669 71.767 83.2604 70.2616C83.8518 68.7563 85.0346 67.0358 86.4862 66.8745C90.841 66.4444 91.3787 74.5627 91.6475 77.3584C87.8303 77.7348 84.8195 78.0036 81.9163 77.8423ZM96.1099 77.0358C96.0561 75.3692 95.841 70.7993 96.2174 68.7563C96.54 67.1971 97.3464 66.2831 98.7443 66.0681C103.099 65.4229 104.927 72.7885 105.303 75.5842C102.561 76.3369 99.1744 76.9283 96.1099 77.0358Z" fill="#27C0CD"/>
<path d="M88.4275 57.9503C87.5135 58.2191 86.5457 58.4879 85.6317 58.918C81.8145 60.5847 79.0188 62.789 77.0833 65.5309C76.9221 65.3159 76.707 65.1008 76.3844 64.7783L68.75 56.875C68.75 56.875 74.0726 59.5094 76.0081 58.1653C77.8898 56.875 76.9221 51.875 76.9221 51.875C76.9221 51.875 80.9543 54.9395 82.8898 53.918C84.7178 52.9503 85.0941 46.875 85.0941 46.875C85.0941 46.875 87.5672 55.0471 88.2662 57.5202L88.4275 57.9503Z" fill="#EB008B"/>
<path d="M116.229 48.7549H146.498V56.0667H124.563V68.9162H145.262V75.9592H124.563V95.6904H116.229V48.7549Z" fill="#27C0CD"/>
<path d="M148.218 72.09C148.218 68.3266 148.863 64.9395 150.099 61.9287C151.336 58.918 153.11 56.3373 155.315 54.1868C157.519 52.09 160.207 50.4233 163.272 49.2943C166.336 48.1653 169.669 47.5739 173.325 47.5739C176.981 47.5739 180.368 48.1653 183.487 49.2943C186.605 50.4233 189.239 52.09 191.497 54.1868C193.755 56.2835 195.53 58.8642 196.766 61.9287C198.003 64.9395 198.648 68.3266 198.648 72.09C198.648 75.7459 198.003 79.0793 196.766 82.1438C195.53 85.1546 193.755 87.789 191.497 89.9395C189.239 92.1438 186.551 93.8105 183.487 95.047C180.368 96.2836 177.035 96.875 173.325 96.875C169.723 96.875 166.336 96.2836 163.272 95.047C160.207 93.8105 157.573 92.1438 155.315 89.9395C153.11 87.7352 151.336 85.1546 150.099 82.1438C148.863 79.0793 148.218 75.7459 148.218 72.09ZM157.304 72.09C157.304 74.6169 157.68 76.9287 158.487 79.0255C159.239 81.1223 160.368 82.9502 161.82 84.5094C163.272 86.0685 164.938 87.2513 166.927 88.1115C168.917 88.9718 171.067 89.4019 173.433 89.4019C175.798 89.4019 178.003 88.9718 179.992 88.1115C181.981 87.2513 183.702 86.0685 185.153 84.5094C186.605 82.9502 187.68 81.1223 188.487 79.0255C189.239 76.9287 189.669 74.6169 189.669 72.09C189.669 69.6707 189.293 67.4126 188.487 65.3158C187.734 63.219 186.605 61.4448 185.207 59.8857C183.809 58.3266 182.089 57.1438 180.1 56.2298C178.11 55.3696 175.906 54.8857 173.487 54.8857C171.067 54.8857 168.863 55.3158 166.874 56.2298C164.884 57.09 163.218 58.3266 161.82 59.8857C160.422 61.4448 159.293 63.219 158.54 65.3158C157.734 67.3588 157.304 69.6169 157.304 72.09Z" fill="#27C0CD"/>
<path d="M200.8 72.09C200.8 68.3266 201.445 64.9395 202.681 61.9287C203.918 58.918 205.692 56.3373 207.896 54.1868C210.101 52.09 212.789 50.4233 215.853 49.2943C218.918 48.1653 222.251 47.5739 225.907 47.5739C229.563 47.5739 232.95 48.1653 236.068 49.2943C239.187 50.4233 241.821 52.09 244.079 54.1868C246.337 56.2835 248.111 58.8642 249.348 61.9287C250.585 64.9395 251.23 68.3266 251.23 72.09C251.23 75.7459 250.585 79.0793 249.348 82.1438C248.111 85.1546 246.337 87.789 244.079 89.9395C241.821 92.1438 239.133 93.8105 236.068 95.047C232.95 96.2836 229.617 96.875 225.907 96.875C222.305 96.875 218.918 96.2836 215.853 95.047C212.789 93.8105 210.154 92.1438 207.896 89.9395C205.692 87.7352 203.918 85.1546 202.681 82.1438C201.445 79.0793 200.8 75.7459 200.8 72.09ZM209.886 72.09C209.886 74.6169 210.262 76.9287 211.068 79.0255C211.821 81.1223 212.95 82.9502 214.402 84.5094C215.853 86.0685 217.52 87.2513 219.509 88.1115C221.499 88.9718 223.649 89.4019 226.015 89.4019C228.38 89.4019 230.585 88.9718 232.574 88.1115C234.563 87.2513 236.283 86.0685 237.735 84.5094C239.187 82.9502 240.262 81.1223 241.068 79.0255C241.821 76.9287 242.251 74.6169 242.251 72.09C242.251 69.6707 241.875 67.4126 241.068 65.3158C240.316 63.219 239.187 61.4448 237.789 59.8857C236.391 58.3266 234.671 57.1438 232.681 56.2298C230.692 55.3696 228.488 54.8857 226.068 54.8857C223.649 54.8857 221.445 55.3158 219.456 56.2298C217.466 57.09 215.8 58.3266 214.402 59.8857C213.004 61.4448 211.875 63.219 211.122 65.3158C210.262 67.3588 209.886 69.6169 209.886 72.09Z" fill="#27C0CD"/>
<path d="M255.585 48.7568H272.198C275.262 48.7568 278.327 49.1332 281.391 49.9396C284.509 50.7461 287.251 52.0364 289.725 53.8644C292.198 55.6923 294.187 58.1117 295.746 61.0687C297.305 64.0257 298.058 67.7354 298.058 72.144C298.058 76.23 297.305 79.7784 295.746 82.7354C294.187 85.6924 292.198 88.1117 289.725 90.0472C287.251 91.929 284.456 93.3268 281.391 94.2408C278.273 95.1548 275.208 95.5849 272.198 95.5849H255.585V48.7568ZM270.907 88.3806C273.058 88.3806 275.262 88.1117 277.413 87.6279C279.563 87.144 281.552 86.2838 283.273 85.0472C284.993 83.8107 286.445 82.1978 287.52 80.101C288.649 78.0042 289.187 75.3698 289.187 72.1977C289.187 68.8644 288.649 66.1225 287.52 63.9719C286.391 61.8751 284.993 60.2085 283.273 59.0257C281.552 57.8429 279.563 57.0364 277.413 56.5525C275.262 56.1224 273.058 55.9074 270.907 55.9074H263.972V88.3806H270.907Z" fill="#27C0CD"/>
</svg>
