<svg width="24" height="24" viewBox="0 0 24 24" fill="none" xmlns="http://www.w3.org/2000/svg">
<path opacity="0.3" d="M20 5.5C20 4.67157 19.3284 4 18.5 4C17.6716 4 17 4.67157 17 5.5V15.5C17 16.3284 17.6716 17 18.5 17C19.3284 17 20 16.3284 20 15.5V5.5Z" fill="white"/>
<path opacity="0.3" d="M15 10.5C15 9.67157 14.3284 9 13.5 9C12.6716 9 12 9.67157 12 10.5V15.5C12 16.3284 12.6716 17 13.5 17C14.3284 17 15 16.3284 15 15.5V10.5Z" fill="white"/>
<path d="M5 19H20C20.5523 19 21 19.4477 21 20C21 20.5523 20.5523 21 20 21H4C3.44772 21 3 20.5523 3 20V4C3 3.44772 3.44772 3 4 3C4.55228 3 5 3.44772 5 4V19Z" fill="white"/>
<path opacity="0.3" d="M10 12.5C10 11.6716 9.32843 11 8.5 11C7.67157 11 7 11.6716 7 12.5V15.5C7 16.3284 7.67157 17 8.5 17C9.32843 17 10 16.3284 10 15.5V12.5Z" fill="white"/>
</svg>
