<svg width="64" height="64" viewBox="0 0 64 64" fill="none" xmlns="http://www.w3.org/2000/svg">
<path opacity="0.3" fill-rule="evenodd" clip-rule="evenodd" d="M10.6667 42.6667H13.3333C14.8061 42.6667 16 43.8606 16 45.3333C16 46.8061 14.8061 48 13.3333 48H10.6667C9.19391 48 8 46.8061 8 45.3333C8 43.8606 9.19391 42.6667 10.6667 42.6667ZM2.66667 29.3333H13.3333C14.8061 29.3333 16 30.5272 16 32C16 33.4728 14.8061 34.6667 13.3333 34.6667H2.66667C1.19391 34.6667 0 33.4728 0 32C0 30.5272 1.19391 29.3333 2.66667 29.3333ZM8 16H13.3333C14.8061 16 16 17.1939 16 18.6667C16 20.1394 14.8061 21.3333 13.3333 21.3333H8C6.52724 21.3333 5.33333 20.1394 5.33333 18.6667C5.33333 17.1939 6.52724 16 8 16Z" fill="#27C0CD"/>
<path fill-rule="evenodd" clip-rule="evenodd" d="M26.6666 16H58.6666C61.6121 16 63.9999 18.3878 63.9999 21.3333V42.6667C63.9999 45.6122 61.6121 48 58.6666 48H26.6666C23.7211 48 21.3333 45.6122 21.3333 42.6667V21.3333C21.3333 18.3878 23.7211 16 26.6666 16ZM56.2264 21.5249L42.6666 28.5829L29.1067 21.5249C28.3019 21.106 27.2981 21.397 26.8647 22.1751C26.4314 22.9531 26.7325 23.9234 27.5373 24.3423L41.8819 31.8088C42.3718 32.0637 42.9614 32.0637 43.4513 31.8088L57.7958 24.3423C58.6007 23.9234 58.9018 22.9531 58.4684 22.1751C58.0351 21.397 57.0313 21.106 56.2264 21.5249Z" fill="#27C0CD"/>
</svg>
