<svg width="24" height="24" viewBox="0 0 24 24" fill="none" xmlns="http://www.w3.org/2000/svg">
<path opacity="0.3" fill-rule="evenodd" clip-rule="evenodd" d="M11.1669 4.49936L2.82524 19.5143C2.55703 19.9971 2.73097 20.6059 3.21376 20.8741C3.36232 20.9566 3.52946 20.9999 3.6994 20.9999H21.2168C21.7691 20.9999 22.2168 20.5522 22.2168 19.9999C22.2168 19.8159 22.1661 19.6355 22.0701 19.4785L12.8943 4.46356C12.6063 3.9923 11.9908 3.84374 11.5196 4.13172C11.3722 4.22176 11.2507 4.34842 11.1669 4.49936Z" fill="#F0426C"/>
<path d="M13 10C13 9.44772 12.5523 9 12 9C11.4477 9 11 9.44772 11 10V15C11 15.5523 11.4477 16 12 16C12.5523 16 13 15.5523 13 15V10Z" fill="#F0426C"/>
<path d="M13 18C13 17.4477 12.5523 17 12 17C11.4477 17 11 17.4477 11 18C11 18.5523 11.4477 19 12 19C12.5523 19 13 18.5523 13 18Z" fill="#F0426C"/>
</svg>
