<svg width="24" height="24" viewBox="0 0 24 24" fill="none" xmlns="http://www.w3.org/2000/svg">
<path d="M22.5006 7.16953L20.1824 3.52734C19.9753 3.20039 19.6074 3 19.2144 3H4.78416C4.39125 3 4.02335 3.20039 3.81618 3.52734L1.49805 7.16953C0.301478 9.05039 1.36232 11.666 3.5983 11.9648C3.75903 11.9859 3.92334 11.9965 4.08764 11.9965C5.14491 11.9965 6.08074 11.5395 6.72367 10.8328C7.36661 11.5395 8.306 11.9965 9.3597 11.9965C10.417 11.9965 11.3528 11.5395 11.9957 10.8328C12.6387 11.5395 13.5781 11.9965 14.6318 11.9965C15.689 11.9965 16.6249 11.5395 17.2678 10.8328C17.9143 11.5395 18.8501 11.9965 19.9038 11.9965C20.0717 11.9965 20.2324 11.9859 20.3932 11.9648C22.6363 11.6695 23.7007 9.05391 22.5006 7.16953ZM19.911 13.125C19.5538 13.125 19.2002 13.0723 18.8573 12.9914V16.5H5.14134V12.9914C4.79844 13.0688 4.44483 13.125 4.08764 13.125C3.87333 13.125 3.65545 13.1109 3.44471 13.0828C3.24469 13.0547 3.04823 13.009 2.85893 12.9563V19.875C2.85893 20.4973 3.3697 21 4.00192 21H20.0038C20.636 21 21.1468 20.4973 21.1468 19.875V12.9563C20.9539 13.0125 20.7611 13.0582 20.561 13.0828C20.3432 13.1109 20.1288 13.125 19.911 13.125Z" fill="#7F8299"/>
</svg>
