<svg width="24" height="24" viewBox="0 0 24 24" fill="none" xmlns="http://www.w3.org/2000/svg">
<path d="M21.968 16.7969L20.9251 10.5469C20.8235 9.94531 20.304 9.50391 19.6908 9.50391H10.1286V7.00391H13.8785C14.2222 7.00391 14.5034 6.72266 14.5034 6.37891V2.625C14.5034 2.28125 14.2222 2 13.8785 2H3.87884C3.5351 2 3.25386 2.28125 3.25386 2.625V6.375C3.25386 6.71875 3.5351 7 3.87884 7H7.6287V9.5H4.31241C3.70306 9.5 3.17964 9.94141 3.07809 10.543L2.03515 16.793C2.01172 16.9297 2 17.0664 2 17.2031V20.75C2 21.4414 2.55857 22 3.24995 22H20.7493C21.4407 22 21.9993 21.4414 21.9993 20.75V17.207C22.0032 17.0703 21.9914 16.9336 21.968 16.7969ZM12.941 11.6875C12.941 11.3438 13.2222 11.0625 13.566 11.0625H14.191C14.5347 11.0625 14.8159 11.3438 14.8159 11.6875V12.3125C14.8159 12.6562 14.5347 12.9375 14.191 12.9375H13.566C13.2222 12.9375 12.941 12.6562 12.941 12.3125V11.6875ZM11.691 14.1875H12.316C12.6598 14.1875 12.941 14.4688 12.941 14.8125V15.4375C12.941 15.7812 12.6598 16.0625 12.316 16.0625H11.691C11.3473 16.0625 11.0661 15.7812 11.0661 15.4375V14.8125C11.0661 14.4688 11.3473 14.1875 11.691 14.1875ZM10.4411 11.0625C10.7848 11.0625 11.0661 11.3438 11.0661 11.6875V12.3125C11.0661 12.6562 10.7848 12.9375 10.4411 12.9375H9.81612C9.47238 12.9375 9.19114 12.6562 9.19114 12.3125V11.6875C9.19114 11.3438 9.47238 11.0625 9.81612 11.0625H10.4411ZM5.12879 5.125V3.875H12.6285V5.125H5.12879ZM6.69123 12.9375H6.06626C5.72252 12.9375 5.44128 12.6562 5.44128 12.3125V11.6875C5.44128 11.3438 5.72252 11.0625 6.06626 11.0625H6.69123C7.03497 11.0625 7.31621 11.3438 7.31621 11.6875V12.3125C7.31621 12.6562 7.03497 12.9375 6.69123 12.9375ZM7.31621 15.4375V14.8125C7.31621 14.4688 7.59745 14.1875 7.94119 14.1875H8.56616C8.9099 14.1875 9.19114 14.4688 9.19114 14.8125V15.4375C9.19114 15.7812 8.9099 16.0625 8.56616 16.0625H7.94119C7.59745 16.0625 7.31621 15.7812 7.31621 15.4375ZM15.7534 19.8125C15.7534 19.9844 15.6128 20.125 15.4409 20.125H8.56616C8.3943 20.125 8.25368 19.9844 8.25368 19.8125V19.1875C8.25368 19.0156 8.3943 18.875 8.56616 18.875H15.4409C15.6128 18.875 15.7534 19.0156 15.7534 19.1875V19.8125ZM16.6909 15.4375C16.6909 15.7812 16.4096 16.0625 16.0659 16.0625H15.4409C15.0972 16.0625 14.8159 15.7812 14.8159 15.4375V14.8125C14.8159 14.4688 15.0972 14.1875 15.4409 14.1875H16.0659C16.4096 14.1875 16.6909 14.4688 16.6909 14.8125V15.4375ZM18.5658 12.3125C18.5658 12.6562 18.2846 12.9375 17.9408 12.9375H17.3158C16.9721 12.9375 16.6909 12.6562 16.6909 12.3125V11.6875C16.6909 11.3438 16.9721 11.0625 17.3158 11.0625H17.9408C18.2846 11.0625 18.5658 11.3438 18.5658 11.6875V12.3125Z" fill="white"/>
</svg>
