<svg width="121" height="120" viewBox="0 0 121 120" fill="none" xmlns="http://www.w3.org/2000/svg">
<g clip-path="url(#clip0_10138_427866)">
<path d="M100.508 24.9961H15.5078C12.7464 24.9961 10.5078 27.2347 10.5078 29.9961V39.9961C10.5078 42.7575 12.7464 44.9961 15.5078 44.9961H100.508C103.269 44.9961 105.508 42.7575 105.508 39.9961V29.9961C105.508 27.2347 103.269 24.9961 100.508 24.9961Z" fill="#7F8299"/>
<path opacity="0.3" d="M100.508 54.9961H15.5078C12.7464 54.9961 10.5078 57.2347 10.5078 59.9961V99.9961C10.5078 102.758 12.7464 104.996 15.5078 104.996H100.508C103.269 104.996 105.508 102.758 105.508 99.9961V59.9961C105.508 57.2347 103.269 54.9961 100.508 54.9961Z" fill="#7F8299"/>
</g>
<defs>
<clipPath id="clip0_10138_427866">
<rect width="120" height="120" fill="white" transform="translate(0.5)"/>
</clipPath>
</defs>
</svg>
