<svg width="24" height="24" viewBox="0 0 24 24" fill="none" xmlns="http://www.w3.org/2000/svg">
<path fill-rule="evenodd" clip-rule="evenodd" d="M13.5 18V21H19V4C19 2.89543 18.1046 2 17 2H7C5.89543 2 5 2.89543 5 4V21H10.5V18C10.5 17.4477 10.9477 17 11.5 17H12.5C13.0523 17 13.5 17.4477 13.5 18ZM8 5C8 4.44772 8.44772 4 9 4H10C10.5523 4 11 4.44772 11 5V6C11 6.55228 10.5523 7 10 7H9C8.44772 7 8 6.55228 8 6V5ZM13 5C13 4.44772 13.4477 4 14 4H15C15.5523 4 16 4.44772 16 5V6C16 6.55228 15.5523 7 15 7H14C13.4477 7 13 6.55228 13 6V5ZM8 9C8 8.44772 8.44772 8 9 8H10C10.5523 8 11 8.44772 11 9V10C11 10.5523 10.5523 11 10 11H9C8.44772 11 8 10.5523 8 10V9ZM8 13C8 12.4477 8.44772 12 9 12H10C10.5523 12 11 12.4477 11 13V14C11 14.5523 10.5523 15 10 15H9C8.44772 15 8 14.5523 8 14V13ZM13 13C13 12.4477 13.4477 12 14 12H15C15.5523 12 16 12.4477 16 13V14C16 14.5523 15.5523 15 15 15H14C13.4477 15 13 14.5523 13 14V13ZM14 8H15C15.5523 8 16 8.44772 16 9V10C16 10.5523 15.5523 11 15 11H14C13.4477 11 13 10.5523 13 10V9C13 8.44772 13.4477 8 14 8Z" fill="white"/>
<path opacity="0.3" fill-rule="evenodd" clip-rule="evenodd" d="M4 21H20C20.5523 21 21 21.4477 21 22V22.4C21 22.7314 20.7314 23 20.4 23H3.6C3.26863 23 3 22.7314 3 22.4V22C3 21.4477 3.44772 21 4 21Z" fill="white"/>
</svg>
