<svg width="24" height="24" viewBox="0 0 24 24" fill="none" xmlns="http://www.w3.org/2000/svg">
<path d="M19.9249 8.4394L11.4764 16.8879C11.1915 17.1728 10.8039 17.3311 10.401 17.3271L6.87763 17.2925C6.06962 17.2845 5.41312 16.638 5.39286 15.8302L5.30692 12.403C5.29662 11.9923 5.45526 11.5953 5.74579 11.3048L14.268 2.78254C14.8538 2.19676 15.8035 2.19675 16.3893 2.78254L19.9249 6.31808C20.5106 6.90386 20.5106 7.85361 19.9249 8.4394Z" fill="#27C0CD"/>
<path opacity="0.3" d="M19 20H6C5.44772 20 5 20.4477 5 21C5 21.5523 5.44772 22 6 22H19C19.5523 22 20 21.5523 20 21C20 20.4477 19.5523 20 19 20Z" fill="#27C0CD"/>
</svg>
