<svg width="16" height="16" viewBox="0 0 16 16" fill="none" xmlns="http://www.w3.org/2000/svg">
<path opacity="0.3" d="M8.00016 14.6654C11.6821 14.6654 14.6668 11.6806 14.6668 7.9987C14.6668 4.3168 11.6821 1.33203 8.00016 1.33203C4.31826 1.33203 1.3335 4.3168 1.3335 7.9987C1.3335 11.6806 4.31826 14.6654 8.00016 14.6654Z" fill="#7F8299"/>
<path d="M8.66683 7.33464C8.66683 6.96645 8.36835 6.66797 8.00016 6.66797C7.63197 6.66797 7.3335 6.96645 7.3335 7.33464V10.668C7.3335 11.0362 7.63197 11.3346 8.00016 11.3346C8.36835 11.3346 8.66683 11.0362 8.66683 10.668V7.33464Z" fill="#7F8299"/>
<path d="M8.66683 5.33464C8.66683 4.96645 8.36835 4.66797 8.00016 4.66797C7.63197 4.66797 7.3335 4.96645 7.3335 5.33464C7.3335 5.70283 7.63197 6.0013 8.00016 6.0013C8.36835 6.0013 8.66683 5.70283 8.66683 5.33464Z" fill="#7F8299"/>
</svg>
