<svg width="120" height="120" viewBox="0 0 120 120" fill="none" xmlns="http://www.w3.org/2000/svg">
<path opacity="0.3" d="M60.0001 22.8102L38.8412 48.2009C37.0734 50.3223 33.9206 50.6089 31.7992 48.8411C29.6778 47.0733 29.3912 43.9205 31.159 41.7991L56.159 11.7991C58.158 9.40031 61.8423 9.40031 63.8412 11.7991L88.8412 41.7991C90.6091 43.9205 90.3224 47.0733 88.201 48.8411C86.0797 50.6089 82.9268 50.3223 81.159 48.2009L60.0001 22.8102Z" fill="#7F8299"/>
<path fill-rule="evenodd" clip-rule="evenodd" d="M16.4026 45H103.595C106.356 45 108.595 47.2386 108.595 50C108.595 50.4088 108.545 50.8161 108.445 51.2127L97.8392 93.638C96.1698 100.316 90.17 105 83.287 105H36.7103C29.8273 105 23.8276 100.316 22.1582 93.638L11.5518 51.2127C10.8821 48.5337 12.5109 45.819 15.1899 45.1493C15.5865 45.0501 15.9937 45 16.4026 45ZM59.9987 60C57.2372 60 54.9987 62.2386 54.9987 65V85C54.9987 87.7614 57.2372 90 59.9987 90C62.7601 90 64.9987 87.7614 64.9987 85V65C64.9987 62.2386 62.7601 60 59.9987 60ZM34.8223 60.6815C32.155 61.3962 30.572 64.1379 31.2868 66.8052L36.4631 86.1237C37.1778 88.7911 39.9195 90.374 42.5869 89.6593C45.2542 88.9446 46.8371 86.2029 46.1224 83.5355L40.946 64.217C40.2313 61.5497 37.4896 59.9668 34.8223 60.6815ZM85.175 60.6815C82.5077 59.9668 79.766 61.5497 79.0513 64.217L73.8749 83.5355C73.1602 86.2029 74.7431 88.9446 77.4105 89.6593C80.0778 90.374 82.8195 88.7911 83.5342 86.1237L88.7106 66.8052C89.4253 64.1379 87.8424 61.3962 85.175 60.6815Z" fill="#7F8299"/>
</svg>
