<svg width="24" height="24" viewBox="0 0 24 24" fill="none" xmlns="http://www.w3.org/2000/svg">
<path d="M3 20.125C3 21.1602 3.86384 22 4.92857 22H19.0714C20.1362 22 21 21.1602 21 20.125V9.5H3V20.125ZM15.8571 12.4688C15.8571 12.2109 16.0741 12 16.3393 12H17.9464C18.2116 12 18.4286 12.2109 18.4286 12.4688V14.0312C18.4286 14.2891 18.2116 14.5 17.9464 14.5H16.3393C16.0741 14.5 15.8571 14.2891 15.8571 14.0312V12.4688ZM15.8571 17.4688C15.8571 17.2109 16.0741 17 16.3393 17H17.9464C18.2116 17 18.4286 17.2109 18.4286 17.4688V19.0312C18.4286 19.2891 18.2116 19.5 17.9464 19.5H16.3393C16.0741 19.5 15.8571 19.2891 15.8571 19.0312V17.4688ZM10.7143 12.4688C10.7143 12.2109 10.9313 12 11.1964 12H12.8036C13.0687 12 13.2857 12.2109 13.2857 12.4688V14.0312C13.2857 14.2891 13.0687 14.5 12.8036 14.5H11.1964C10.9313 14.5 10.7143 14.2891 10.7143 14.0312V12.4688ZM10.7143 17.4688C10.7143 17.2109 10.9313 17 11.1964 17H12.8036C13.0687 17 13.2857 17.2109 13.2857 17.4688V19.0312C13.2857 19.2891 13.0687 19.5 12.8036 19.5H11.1964C10.9313 19.5 10.7143 19.2891 10.7143 19.0312V17.4688ZM5.57143 12.4688C5.57143 12.2109 5.78839 12 6.05357 12H7.66071C7.92589 12 8.14286 12.2109 8.14286 12.4688V14.0312C8.14286 14.2891 7.92589 14.5 7.66071 14.5H6.05357C5.78839 14.5 5.57143 14.2891 5.57143 14.0312V12.4688ZM5.57143 17.4688C5.57143 17.2109 5.78839 17 6.05357 17H7.66071C7.92589 17 8.14286 17.2109 8.14286 17.4688V19.0312C8.14286 19.2891 7.92589 19.5 7.66071 19.5H6.05357C5.78839 19.5 5.57143 19.2891 5.57143 19.0312V17.4688ZM19.0714 4.5H17.1429V2.625C17.1429 2.28125 16.8536 2 16.5 2H15.2143C14.8607 2 14.5714 2.28125 14.5714 2.625V4.5H9.42857V2.625C9.42857 2.28125 9.13929 2 8.78571 2H7.5C7.14643 2 6.85714 2.28125 6.85714 2.625V4.5H4.92857C3.86384 4.5 3 5.33984 3 6.375V8.25H21V6.375C21 5.33984 20.1362 4.5 19.0714 4.5Z" fill="#B5B5C3"/>
</svg>
