<svg width="30" height="40" viewBox="0 0 30 40" fill="none" xmlns="http://www.w3.org/2000/svg">
<path d="M15.75 16C15.75 15.4477 15.3023 15 14.75 15C14.1977 15 13.75 15.4477 13.75 16V28C13.75 28.5523 14.1977 29 14.75 29C15.3023 29 15.75 28.5523 15.75 28V16Z" fill="#27C0CD"/>
<path d="M9.45711 22.7071C9.06658 23.0976 8.43342 23.0976 8.04289 22.7071C7.65237 22.3166 7.65237 21.6834 8.04289 21.2929L14.0429 15.2929C14.4215 14.9143 15.0311 14.9011 15.4257 15.2628L21.4257 20.7628C21.8328 21.136 21.8603 21.7686 21.4872 22.1757C21.114 22.5828 20.4814 22.6103 20.0743 22.2372L14.7801 17.3841L9.45711 22.7071Z" fill="#27C0CD"/>
<path d="M1.75 5C1.75 2.79086 3.54086 1 5.75 1H18.3358L28.75 11.4142V35C28.75 37.2091 26.9591 39 24.75 39H5.75C3.54086 39 1.75 37.2091 1.75 35V5Z" stroke="#27C0CD" stroke-width="2"/>
<path d="M17.75 0L23.75 6L29.75 12H21.75C19.5409 12 17.75 10.2091 17.75 8V0Z" fill="#27C0CD"/>
</svg>
