<svg width="24" height="24" viewBox="0 0 24 24" fill="none" xmlns="http://www.w3.org/2000/svg">
<path opacity="0.3" d="M5 16C5 16.5523 5.44772 17 6 17C6.55228 17 7 16.5523 7 16L7 6C7 5.44771 6.55228 5 6 5C5.44772 5 5 5.44771 5 6L5 16Z" fill="#7F8299"/>
<path d="M8.29289 14.2929C8.68342 13.9024 9.31658 13.9024 9.70711 14.2929C10.0976 14.6834 10.0976 15.3166 9.70711 15.7071L6.70711 18.7071C6.31658 19.0976 5.68342 19.0976 5.29289 18.7071L2.29289 15.7071C1.90237 15.3166 1.90237 14.6834 2.29289 14.2929C2.68342 13.9024 3.31658 13.9024 3.70711 14.2929L6 16.5858L8.29289 14.2929Z" fill="#7F8299"/>
<path opacity="0.3" d="M17 8C17 7.44772 17.4477 7 18 7C18.5523 7 19 7.44772 19 8V18C19 18.5523 18.5523 19 18 19C17.4477 19 17 18.5523 17 18V8Z" fill="#7F8299"/>
<path d="M20.2929 9.70711C20.6834 10.0976 21.3166 10.0976 21.7071 9.70711C22.0976 9.31658 22.0976 8.68342 21.7071 8.29289L18.7071 5.29289C18.3166 4.90237 17.6834 4.90237 17.2929 5.29289L14.2929 8.29289C13.9024 8.68342 13.9024 9.31658 14.2929 9.70711C14.6834 10.0976 15.3166 10.0976 15.7071 9.70711L18 7.41421L20.2929 9.70711Z" fill="#7F8299"/>
</svg>
