<svg width="21" height="26" viewBox="0 0 21 26" fill="none" xmlns="http://www.w3.org/2000/svg">
<path fill-rule="evenodd" clip-rule="evenodd" d="M1.30831 6.81952C0.799815 7.19679 0.5 7.79256 0.5 8.42572V24.9999C0.5 25.5522 0.947715 25.9999 1.5 25.9999L7.5 25.9999V22.9999C7.5 21.343 8.84315 19.9999 10.5 19.9999C12.1569 19.9999 13.5 21.343 13.5 22.9999V25.9999L19.5 25.9999C20.0523 25.9999 20.5 25.5522 20.5 24.9999V8.42572C20.5 7.79256 20.2002 7.19679 19.6917 6.81952L11.6917 0.884038C10.984 0.358967 10.016 0.358966 9.30831 0.884038L1.30831 6.81952ZM8.5 9.49988C8.5 10.3283 7.82843 10.9999 7 10.9999C6.17157 10.9999 5.5 10.3283 5.5 9.49988C5.5 8.67145 6.17157 7.99988 7 7.99988C7.82843 7.99988 8.5 8.67145 8.5 9.49988ZM14 10.9999C14.8284 10.9999 15.5 10.3283 15.5 9.49988C15.5 8.67145 14.8284 7.99988 14 7.99988C13.1716 7.99988 12.5 8.67145 12.5 9.49988C12.5 10.3283 13.1716 10.9999 14 10.9999ZM8.5 15.4999C8.5 16.3283 7.82843 16.9999 7 16.9999C6.17157 16.9999 5.5 16.3283 5.5 15.4999C5.5 14.6715 6.17157 13.9999 7 13.9999C7.82843 13.9999 8.5 14.6715 8.5 15.4999ZM14 16.9999C14.8284 16.9999 15.5 16.3283 15.5 15.4999C15.5 14.6715 14.8284 13.9999 14 13.9999C13.1716 13.9999 12.5 14.6715 12.5 15.4999C12.5 16.3283 13.1716 16.9999 14 16.9999Z" fill="#27C0CD"/>
</svg>
