<svg width="25" height="24" viewBox="0 0 25 24" fill="none" xmlns="http://www.w3.org/2000/svg">
<path d="M20.834 4H3.83398C3.2817 4 2.83398 4.44772 2.83398 5V7C2.83398 7.55228 3.2817 8 3.83398 8H20.834C21.3863 8 21.834 7.55228 21.834 7V5C21.834 4.44772 21.3863 4 20.834 4Z" fill="#3F4253"/>
<path opacity="0.3" fill-rule="evenodd" clip-rule="evenodd" d="M3.83398 10H6.83398C7.38627 10 7.83398 10.4477 7.83398 11V19C7.83398 19.5523 7.38627 20 6.83398 20H3.83398C3.2817 20 2.83398 19.5523 2.83398 19V11C2.83398 10.4477 3.2817 10 3.83398 10ZM10.834 10H13.834C14.3863 10 14.834 10.4477 14.834 11V19C14.834 19.5523 14.3863 20 13.834 20H10.834C10.2817 20 9.83398 19.5523 9.83398 19V11C9.83398 10.4477 10.2817 10 10.834 10ZM17.834 10H20.834C21.3863 10 21.834 10.4477 21.834 11V19C21.834 19.5523 21.3863 20 20.834 20H17.834C17.2817 20 16.834 19.5523 16.834 19V11C16.834 10.4477 17.2817 10 17.834 10Z" fill="#3F4253"/>
</svg>
