<svg width="16" height="16" viewBox="0 0 16 16" fill="none" xmlns="http://www.w3.org/2000/svg">
<path opacity="0.3" d="M7.99967 14.6654C11.6816 14.6654 14.6663 11.6806 14.6663 7.9987C14.6663 4.3168 11.6816 1.33203 7.99967 1.33203C4.31778 1.33203 1.33301 4.3168 1.33301 7.9987C1.33301 11.6806 4.31778 14.6654 7.99967 14.6654Z" fill="#7F8299"/>
<path d="M8.66634 7.33464C8.66634 6.96645 8.36786 6.66797 7.99967 6.66797C7.63148 6.66797 7.33301 6.96645 7.33301 7.33464V10.668C7.33301 11.0362 7.63148 11.3346 7.99967 11.3346C8.36786 11.3346 8.66634 11.0362 8.66634 10.668V7.33464Z" fill="#7F8299"/>
<path d="M8.66634 5.33464C8.66634 4.96645 8.36786 4.66797 7.99967 4.66797C7.63148 4.66797 7.33301 4.96645 7.33301 5.33464C7.33301 5.70283 7.63148 6.0013 7.99967 6.0013C8.36786 6.0013 8.66634 5.70283 8.66634 5.33464Z" fill="#7F8299"/>
</svg>
