<svg width="20" height="20" viewBox="0 0 20 20" fill="none" xmlns="http://www.w3.org/2000/svg">
<path fill-rule="evenodd" clip-rule="evenodd" d="M7.5 8.33464V15.8346L8.4605 16.1548C9.48016 16.4947 10.548 16.668 11.6228 16.668H14.6172C15.8089 16.668 16.8349 15.8268 17.0686 14.6583L17.6929 11.5366C17.9637 10.1827 17.0857 8.86564 15.7318 8.59486C15.5158 8.55165 15.295 8.53719 15.0752 8.55185L12.0833 8.7513L12.3868 5.41284C12.4439 4.78498 11.9812 4.22973 11.3533 4.17266C11.319 4.16953 11.2845 4.16797 11.25 4.16797C10.4745 4.16797 9.75587 4.57485 9.35688 5.23984L7.5 8.33464Z" fill="#EC008C"/>
<path opacity="0.3" d="M5.00032 7.5H2.50033C2.04009 7.5 1.66699 7.8731 1.66699 8.33333V15.8333C1.66699 16.2936 2.04009 16.6667 2.50033 16.6667H5.00032C5.46056 16.6667 5.83366 16.2936 5.83366 15.8333V8.33333C5.83366 7.8731 5.46056 7.5 5.00032 7.5Z" fill="#EC008C"/>
</svg>
