<svg width="32" height="32" viewBox="0 0 32 32" fill="none" xmlns="http://www.w3.org/2000/svg">
<g clip-path="url(#clip0_1369_5931)">
<path d="M8.00002 29.333C5.0545 29.333 2.66669 26.9452 2.66669 23.9997L2.66669 7.99967C2.66669 5.05415 5.0545 2.66634 8.00002 2.66634L24 2.66634C26.9455 2.66634 29.3334 5.05415 29.3334 7.99967L29.3334 23.9997C29.3334 26.9452 26.9455 29.333 24 29.333L8.00002 29.333Z" fill="#DCF7FF"/>
<path d="M24.1333 16.3887L27.5406 17.1098C27.7485 17.1538 27.7222 17.4585 27.5098 17.4662L25.5194 17.5383C25.4093 17.5423 25.3285 17.6432 25.3487 17.7515L25.474 18.4226C25.4984 18.5534 25.3775 18.6647 25.2491 18.6294L22.2208 17.7981C22.0144 17.7415 22.0614 17.4362 22.2753 17.4443L23.9431 17.5071C24.0667 17.5118 24.1582 17.3933 24.1224 17.2749L23.9235 16.6172C23.8838 16.486 23.9992 16.3603 24.1333 16.3887Z" fill="black"/>
<path d="M24.1333 16.3887L27.5406 17.1098C27.7485 17.1538 27.7222 17.4585 27.5098 17.4662L25.5194 17.5383C25.4093 17.5423 25.3285 17.6432 25.3487 17.7515L25.474 18.4226C25.4984 18.5534 25.3775 18.6647 25.2491 18.6294L22.2208 17.7981C22.0144 17.7415 22.0614 17.4362 22.2753 17.4443L23.9431 17.5071C24.0667 17.5118 24.1582 17.3933 24.1224 17.2749L23.9235 16.6172C23.8838 16.486 23.9992 16.3603 24.1333 16.3887Z" fill="url(#paint0_linear_1369_5931)"/>
<path d="M24.1333 16.3887L27.5406 17.1098C27.7485 17.1538 27.7222 17.4585 27.5098 17.4662L25.5194 17.5383C25.4093 17.5423 25.3285 17.6432 25.3487 17.7515L25.474 18.4226C25.4984 18.5534 25.3775 18.6647 25.2491 18.6294L22.2208 17.7981C22.0144 17.7415 22.0614 17.4362 22.2753 17.4443L23.9431 17.5071C24.0667 17.5118 24.1582 17.3933 24.1224 17.2749L23.9235 16.6172C23.8838 16.486 23.9992 16.3603 24.1333 16.3887Z" fill="url(#paint1_linear_1369_5931)"/>
<path d="M24.1333 16.3887L27.5406 17.1098C27.7485 17.1538 27.7222 17.4585 27.5098 17.4662L25.5194 17.5383C25.4093 17.5423 25.3285 17.6432 25.3487 17.7515L25.474 18.4226C25.4984 18.5534 25.3775 18.6647 25.2491 18.6294L22.2208 17.7981C22.0144 17.7415 22.0614 17.4362 22.2753 17.4443L23.9431 17.5071C24.0667 17.5118 24.1582 17.3933 24.1224 17.2749L23.9235 16.6172C23.8838 16.486 23.9992 16.3603 24.1333 16.3887Z" fill="url(#paint2_linear_1369_5931)"/>
<path d="M20.6482 7.88901L23.1241 6.06728C23.2752 5.95611 23.4605 6.15237 23.3409 6.29684L22.2196 7.65075C22.1576 7.72561 22.1767 7.83809 22.2599 7.88834L22.7756 8.19985C22.8762 8.26058 22.8785 8.4056 22.7799 8.46948L20.454 9.97676C20.2954 10.0795 20.1219 9.86931 20.2528 9.73306L21.2735 8.67107C21.3492 8.59233 21.3248 8.4625 21.2257 8.41656L20.6756 8.16142C20.5659 8.11054 20.5508 7.96068 20.6482 7.88901Z" fill="black"/>
<path d="M20.6482 7.88901L23.1241 6.06728C23.2752 5.95611 23.4605 6.15237 23.3409 6.29684L22.2196 7.65075C22.1576 7.72561 22.1767 7.83809 22.2599 7.88834L22.7756 8.19985C22.8762 8.26058 22.8785 8.4056 22.7799 8.46948L20.454 9.97676C20.2954 10.0795 20.1219 9.86931 20.2528 9.73306L21.2735 8.67107C21.3492 8.59233 21.3248 8.4625 21.2257 8.41656L20.6756 8.16142C20.5659 8.11054 20.5508 7.96068 20.6482 7.88901Z" fill="url(#paint3_linear_1369_5931)"/>
<path d="M20.6482 7.88901L23.1241 6.06728C23.2752 5.95611 23.4605 6.15237 23.3409 6.29684L22.2196 7.65075C22.1576 7.72561 22.1767 7.83809 22.2599 7.88834L22.7756 8.19985C22.8762 8.26058 22.8785 8.4056 22.7799 8.46948L20.454 9.97676C20.2954 10.0795 20.1219 9.86931 20.2528 9.73306L21.2735 8.67107C21.3492 8.59233 21.3248 8.4625 21.2257 8.41656L20.6756 8.16142C20.5659 8.11054 20.5508 7.96068 20.6482 7.88901Z" fill="url(#paint4_linear_1369_5931)"/>
<path d="M20.6482 7.88901L23.1241 6.06728C23.2752 5.95611 23.4605 6.15237 23.3409 6.29684L22.2196 7.65075C22.1576 7.72561 22.1767 7.83809 22.2599 7.88834L22.7756 8.19985C22.8762 8.26058 22.8785 8.4056 22.7799 8.46948L20.454 9.97676C20.2954 10.0795 20.1219 9.86931 20.2528 9.73306L21.2735 8.67107C21.3492 8.59233 21.3248 8.4625 21.2257 8.41656L20.6756 8.16142C20.5659 8.11054 20.5508 7.96068 20.6482 7.88901Z" fill="url(#paint5_linear_1369_5931)"/>
<g filter="url(#filter0_bd_1369_5931)">
<path d="M19.2027 8.81946L21.9034 19.68C22.2003 20.874 21.276 22.0218 20.0461 21.9864L9.93286 21.6951C9.10228 21.6712 8.38848 21.0989 8.18455 20.2933L6.78975 14.7839C6.58526 13.9762 6.94325 13.1312 7.6657 12.7161L16.4731 7.65635C17.5434 7.04143 18.9048 7.62152 19.2027 8.81946Z" fill="url(#paint6_linear_1369_5931)"/>
</g>
<g filter="url(#filter1_bd_1369_5931)">
<path fill-rule="evenodd" clip-rule="evenodd" d="M4.87465 14.1837C4.21294 14.4827 3.86401 15.216 4.0493 15.9181L5.4577 21.2548C5.63314 21.9195 6.24145 22.3774 6.92881 22.3619L7.16277 22.3567C7.4347 23.4965 8.0554 24.6854 9.19626 25.9616C9.69983 26.525 10.5647 26.5734 11.128 26.0698C11.6914 25.5663 11.7398 24.7014 11.2363 24.138C10.6026 23.4291 10.2279 22.8205 10.0105 22.2927L16.329 22.1507C17.6352 22.1214 18.2713 20.5426 17.3503 19.616L10.4848 12.7084C10.0475 12.2685 9.38304 12.1462 8.81778 12.4017L4.87465 14.1837Z" fill="url(#paint7_linear_1369_5931)" shape-rendering="crispEdges"/>
<path d="M4.0493 15.9181L3.98484 15.9351H3.98484L4.0493 15.9181ZM4.87465 14.1837L4.84719 14.1229L4.87465 14.1837ZM5.4577 21.2548L5.52216 21.2378L5.4577 21.2548ZM6.92881 22.3619L6.92731 22.2953L6.92881 22.3619ZM7.16277 22.3567L7.22762 22.3412L7.21512 22.2888L7.16127 22.29L7.16277 22.3567ZM9.19626 25.9616L9.14656 26.0061V26.0061L9.19626 25.9616ZM11.128 26.0698L11.1725 26.1195L11.128 26.0698ZM11.2363 24.138L11.1866 24.1825L11.2363 24.138ZM10.0105 22.2927L10.009 22.226L9.91187 22.2282L9.94888 22.3181L10.0105 22.2927ZM16.329 22.1507L16.3275 22.0841L16.329 22.1507ZM17.3503 19.616L17.303 19.663L17.3503 19.616ZM10.4848 12.7084L10.4375 12.7554L10.4848 12.7084ZM8.81778 12.4017L8.84523 12.4624L8.81778 12.4017ZM4.11376 15.9011C3.93677 15.2305 4.27006 14.5301 4.9021 14.2444L4.84719 14.1229C4.15581 14.4354 3.79124 15.2015 3.98484 15.9351L4.11376 15.9011ZM5.52216 21.2378L4.11376 15.9011L3.98484 15.9351L5.39324 21.2718L5.52216 21.2378ZM6.92731 22.2953C6.27077 22.31 5.68973 21.8727 5.52216 21.2378L5.39324 21.2718C5.57654 21.9664 6.21213 22.4447 6.9303 22.4286L6.92731 22.2953ZM7.16127 22.29L6.92731 22.2953L6.9303 22.4286L7.16427 22.4233L7.16127 22.29ZM9.24596 25.9172C8.11095 24.6475 7.4965 23.4682 7.22762 22.3412L7.09792 22.3721C7.37291 23.5247 7.99985 24.7232 9.14656 26.0061L9.24596 25.9172ZM11.0836 26.0201C10.5477 26.4992 9.72499 26.4531 9.24596 25.9172L9.14656 26.0061C9.67466 26.5968 10.5817 26.6476 11.1725 26.1195L11.0836 26.0201ZM11.1866 24.1825C11.6656 24.7184 11.6195 25.5411 11.0836 26.0201L11.1725 26.1195C11.7633 25.5914 11.8141 24.6844 11.286 24.0936L11.1866 24.1825ZM9.94888 22.3181C10.1697 22.8543 10.5489 23.4692 11.1866 24.1825L11.286 24.0936C10.6562 23.3891 10.2861 22.7868 10.0722 22.2673L9.94888 22.3181ZM16.3275 22.0841L10.009 22.226L10.012 22.3593L16.3305 22.2174L16.3275 22.0841ZM17.303 19.663C18.1827 20.5481 17.5752 22.0561 16.3275 22.0841L16.3305 22.2174C17.6953 22.1867 18.3599 20.5372 17.3976 19.569L17.303 19.663ZM10.4375 12.7554L17.303 19.663L17.3976 19.569L10.5321 12.6614L10.4375 12.7554ZM8.84523 12.4624C9.38515 12.2184 10.0198 12.3352 10.4375 12.7554L10.5321 12.6614C10.0752 12.2017 9.38093 12.074 8.79032 12.3409L8.84523 12.4624ZM4.9021 14.2444L8.84523 12.4624L8.79032 12.3409L4.84719 14.1229L4.9021 14.2444Z" fill="url(#paint8_linear_1369_5931)"/>
</g>
<g filter="url(#filter2_d_1369_5931)">
<path d="M16.5016 17.5363C16.1133 17.4837 15.7106 17.4645 15.3016 17.4671C13.6 17.51 12.2007 17.9194 11.0586 18.673C11.0206 18.577 10.9673 18.453 10.895 18.281L9.20184 14.1045C9.20184 14.1045 10.8322 15.9161 11.7661 15.7046C12.6702 15.4986 13.0727 13.4397 13.0727 13.4397C13.0727 13.4397 14.1445 15.2195 15.0272 15.1202C15.8802 15.0264 16.9319 12.7668 16.9319 12.7668C16.9319 12.7668 16.6287 16.2684 16.5211 17.3064L16.5016 17.5363Z" fill="url(#paint9_linear_1369_5931)" shape-rendering="crispEdges"/>
</g>
<g filter="url(#filter3_bd_1369_5931)">
<path d="M21.3224 11.5221L26.6204 10.2439C27.0445 10.1416 27.2651 10.7293 26.8785 10.9313L24.3058 12.2756C24.1055 12.3803 24.0451 12.6386 24.1782 12.8213L24.7788 13.6454C24.9397 13.8661 24.814 14.1791 24.5452 14.2273L19.7879 15.0801C19.3554 15.1577 19.1726 14.5507 19.576 14.3765L21.6878 13.4646C21.921 13.3639 21.9856 13.0636 21.8146 12.8759L21.1357 12.1308C20.9463 11.9229 21.049 11.5881 21.3224 11.5221Z" fill="url(#paint10_linear_1369_5931)" shape-rendering="crispEdges"/>
<path d="M21.3224 11.5221L26.6204 10.2439C27.0445 10.1416 27.2651 10.7293 26.8785 10.9313L24.3058 12.2756C24.1055 12.3803 24.0451 12.6386 24.1782 12.8213L24.7788 13.6454C24.9397 13.8661 24.814 14.1791 24.5452 14.2273L19.7879 15.0801C19.3554 15.1577 19.1726 14.5507 19.576 14.3765L21.6878 13.4646C21.921 13.3639 21.9856 13.0636 21.8146 12.8759L21.1357 12.1308C20.9463 11.9229 21.049 11.5881 21.3224 11.5221Z" fill="url(#paint11_linear_1369_5931)" shape-rendering="crispEdges"/>
<path d="M21.3224 11.5221L26.6204 10.2439C27.0445 10.1416 27.2651 10.7293 26.8785 10.9313L24.3058 12.2756C24.1055 12.3803 24.0451 12.6386 24.1782 12.8213L24.7788 13.6454C24.9397 13.8661 24.814 14.1791 24.5452 14.2273L19.7879 15.0801C19.3554 15.1577 19.1726 14.5507 19.576 14.3765L21.6878 13.4646C21.921 13.3639 21.9856 13.0636 21.8146 12.8759L21.1357 12.1308C20.9463 11.9229 21.049 11.5881 21.3224 11.5221Z" stroke="url(#paint12_linear_1369_5931)" stroke-width="0.150387" shape-rendering="crispEdges"/>
</g>
</g>
<defs>
<filter id="filter0_bd_1369_5931" x="3.78366" y="5.93367" width="21.1247" height="21.9518" filterUnits="userSpaceOnUse" color-interpolation-filters="sRGB">
<feFlood flood-opacity="0" result="BackgroundImageFix"/>
<feGaussianBlur in="BackgroundImageFix" stdDeviation="0.737266"/>
<feComposite in2="SourceAlpha" operator="in" result="effect1_backgroundBlur_1369_5931"/>
<feColorMatrix in="SourceAlpha" type="matrix" values="0 0 0 0 0 0 0 0 0 0 0 0 0 0 0 0 0 0 127 0" result="hardAlpha"/>
<feOffset dy="2.94907"/>
<feGaussianBlur stdDeviation="1.47453"/>
<feComposite in2="hardAlpha" operator="out"/>
<feColorMatrix type="matrix" values="0 0 0 0 0.0627451 0 0 0 0 0.431373 0 0 0 0 0.454902 0 0 0 0.25 0"/>
<feBlend mode="normal" in2="effect1_backgroundBlur_1369_5931" result="effect2_dropShadow_1369_5931"/>
<feBlend mode="normal" in="SourceGraphic" in2="effect2_dropShadow_1369_5931" result="shape"/>
</filter>
<filter id="filter1_bd_1369_5931" x="0.984162" y="10.7286" width="19.817" height="21.6539" filterUnits="userSpaceOnUse" color-interpolation-filters="sRGB">
<feFlood flood-opacity="0" result="BackgroundImageFix"/>
<feGaussianBlur in="BackgroundImageFix" stdDeviation="0.737266"/>
<feComposite in2="SourceAlpha" operator="in" result="effect1_backgroundBlur_1369_5931"/>
<feColorMatrix in="SourceAlpha" type="matrix" values="0 0 0 0 0 0 0 0 0 0 0 0 0 0 0 0 0 0 127 0" result="hardAlpha"/>
<feOffset dy="2.94907"/>
<feGaussianBlur stdDeviation="1.47453"/>
<feComposite in2="hardAlpha" operator="out"/>
<feColorMatrix type="matrix" values="0 0 0 0 0.0627451 0 0 0 0 0.431373 0 0 0 0 0.454902 0 0 0 0.25 0"/>
<feBlend mode="normal" in2="effect1_backgroundBlur_1369_5931" result="effect2_dropShadow_1369_5931"/>
<feBlend mode="normal" in="SourceGraphic" in2="effect2_dropShadow_1369_5931" result="shape"/>
</filter>
<filter id="filter2_d_1369_5931" x="5.20184" y="10.0999" width="15.73" height="13.9062" filterUnits="userSpaceOnUse" color-interpolation-filters="sRGB">
<feFlood flood-opacity="0" result="BackgroundImageFix"/>
<feColorMatrix in="SourceAlpha" type="matrix" values="0 0 0 0 0 0 0 0 0 0 0 0 0 0 0 0 0 0 127 0" result="hardAlpha"/>
<feOffset dy="1.33333"/>
<feGaussianBlur stdDeviation="2"/>
<feComposite in2="hardAlpha" operator="out"/>
<feColorMatrix type="matrix" values="0 0 0 0 0.0643403 0 0 0 0 0.422559 0 0 0 0 0.454167 0 0 0 0.5 0"/>
<feBlend mode="normal" in2="BackgroundImageFix" result="effect1_dropShadow_1369_5931"/>
<feBlend mode="normal" in="SourceGraphic" in2="effect1_dropShadow_1369_5931" result="shape"/>
</filter>
<filter id="filter3_bd_1369_5931" x="17.6129" y="8.49312" width="11.2046" height="9.99256" filterUnits="userSpaceOnUse" color-interpolation-filters="sRGB">
<feFlood flood-opacity="0" result="BackgroundImageFix"/>
<feGaussianBlur in="BackgroundImageFix" stdDeviation="0.831567"/>
<feComposite in2="SourceAlpha" operator="in" result="effect1_backgroundBlur_1369_5931"/>
<feColorMatrix in="SourceAlpha" type="matrix" values="0 0 0 0 0 0 0 0 0 0 0 0 0 0 0 0 0 0 127 0" result="hardAlpha"/>
<feOffset dy="1.81969"/>
<feGaussianBlur stdDeviation="0.751937"/>
<feComposite in2="hardAlpha" operator="out"/>
<feColorMatrix type="matrix" values="0 0 0 0 0.0627451 0 0 0 0 0.431373 0 0 0 0 0.454902 0 0 0 0.25 0"/>
<feBlend mode="normal" in2="effect1_backgroundBlur_1369_5931" result="effect2_dropShadow_1369_5931"/>
<feBlend mode="normal" in="SourceGraphic" in2="effect2_dropShadow_1369_5931" result="shape"/>
</filter>
<linearGradient id="paint0_linear_1369_5931" x1="24.314" y1="17.7226" x2="23.7574" y2="15.1111" gradientUnits="userSpaceOnUse">
<stop stop-color="#FF759F"/>
<stop offset="1" stop-color="#FF196E"/>
</linearGradient>
<linearGradient id="paint1_linear_1369_5931" x1="28.5181" y1="16.7235" x2="27.6805" y2="19.3572" gradientUnits="userSpaceOnUse">
<stop stop-color="#2BBECB"/>
<stop offset="1" stop-color="#45F0FF"/>
</linearGradient>
<linearGradient id="paint2_linear_1369_5931" x1="22.7425" y1="17.871" x2="24.1508" y2="15.7026" gradientUnits="userSpaceOnUse">
<stop stop-color="#2BBECB"/>
<stop offset="1" stop-color="#45F0FF"/>
</linearGradient>
<linearGradient id="paint3_linear_1369_5931" x1="21.6333" y1="8.55316" x2="19.5857" y2="7.38654" gradientUnits="userSpaceOnUse">
<stop stop-color="#FF759F"/>
<stop offset="1" stop-color="#FF196E"/>
</linearGradient>
<linearGradient id="paint4_linear_1369_5931" x1="23.4436" y1="5.19636" x2="24.6871" y2="7.29474" gradientUnits="userSpaceOnUse">
<stop stop-color="#2BBECB"/>
<stop offset="1" stop-color="#45F0FF"/>
</linearGradient>
<linearGradient id="paint5_linear_1369_5931" x1="20.8083" y1="9.67584" x2="20.2064" y2="7.4746" gradientUnits="userSpaceOnUse">
<stop stop-color="#2BBECB"/>
<stop offset="1" stop-color="#45F0FF"/>
</linearGradient>
<linearGradient id="paint6_linear_1369_5931" x1="11.5032" y1="19.5059" x2="21.4261" y2="13.4184" gradientUnits="userSpaceOnUse">
<stop stop-color="#00B8C9"/>
<stop offset="1" stop-color="#45F0FF"/>
</linearGradient>
<linearGradient id="paint7_linear_1369_5931" x1="5.43907" y1="26.418" x2="17.6904" y2="14.0622" gradientUnits="userSpaceOnUse">
<stop stop-color="#9BEDFF" stop-opacity="0.7"/>
<stop offset="1" stop-color="#8EEBFF" stop-opacity="0.1"/>
</linearGradient>
<linearGradient id="paint8_linear_1369_5931" x1="10.8926" y1="17.5564" x2="17.7873" y2="23.4495" gradientUnits="userSpaceOnUse">
<stop stop-color="#FFFCFC"/>
<stop offset="1" stop-color="white" stop-opacity="0"/>
</linearGradient>
<linearGradient id="paint9_linear_1369_5931" x1="15.3328" y1="14.3849" x2="5.33247" y2="15.7754" gradientUnits="userSpaceOnUse">
<stop stop-color="white"/>
<stop offset="1" stop-color="white" stop-opacity="0"/>
</linearGradient>
<linearGradient id="paint10_linear_1369_5931" x1="14.737" y1="15.6682" x2="19.7275" y2="21.4158" gradientUnits="userSpaceOnUse">
<stop stop-color="#9BEDFF" stop-opacity="0.7"/>
<stop offset="1" stop-color="#8EEBFF" stop-opacity="0.1"/>
</linearGradient>
<linearGradient id="paint11_linear_1369_5931" x1="20.1602" y1="14.8943" x2="20.7429" y2="10.4615" gradientUnits="userSpaceOnUse">
<stop stop-color="#2BBECB"/>
<stop offset="1" stop-color="#45F0FF"/>
</linearGradient>
<linearGradient id="paint12_linear_1369_5931" x1="24.8135" y1="12.1057" x2="17.0633" y2="16.4379" gradientUnits="userSpaceOnUse">
<stop stop-color="#FFFCFC"/>
<stop offset="1" stop-color="white" stop-opacity="0"/>
</linearGradient>
<clipPath id="clip0_1369_5931">
<rect width="32" height="32" fill="white" transform="translate(0 32) rotate(-90)"/>
</clipPath>
</defs>
</svg>
