<svg width="19" height="12" viewBox="0 0 19 12" fill="none" xmlns="http://www.w3.org/2000/svg">
<path fill-rule="evenodd" clip-rule="evenodd" d="M10.6823 9.58835L19 12L16.9297 3.59084L14.3471 6.0702L10.181 1.7306C10.0396 1.58328 9.84422 1.5 9.64 1.5C9.43578 1.5 9.24039 1.58328 9.09896 1.7306L6.04 4.91702L1.54104 0.230601C1.25419 -0.0682068 0.779411 -0.0778971 0.480602 0.20896C0.181794 0.495815 0.172104 0.970591 0.45896 1.2694L5.49896 6.5194C5.64039 6.66672 5.83578 6.75 6.04 6.75C6.24422 6.75 6.43961 6.66672 6.58104 6.5194L9.64 3.33298L13.265 7.10899L10.6823 9.58835Z" fill="#C81A19"/>
</svg>
