<svg width="32" height="32" viewBox="0 0 32 32" fill="none" xmlns="http://www.w3.org/2000/svg">
<path d="M2.66632 7.99886C2.66632 5.05334 5.05414 2.66553 7.99965 2.66553H23.9997C26.9452 2.66553 29.333 5.05334 29.333 7.99886V23.9989C29.333 26.9444 26.9452 29.3322 23.9997 29.3322H7.99965C5.05413 29.3322 2.66632 26.9444 2.66632 23.9989V7.99886Z" fill="#EEFAFF"/>
<path fill-rule="evenodd" clip-rule="evenodd" d="M16.2034 26.6659C22.0007 26.5577 26.667 21.8244 26.667 16.0011C26.667 10.1101 21.8914 5.33447 16.0003 5.33447C10.1093 5.33447 5.33368 10.1101 5.33368 16.0011C5.33368 17.9927 5.87948 19.8568 6.82967 21.452C7.10428 22.0684 7.78512 23.9593 7.57943 25.0562C7.3689 26.179 7.43908 26.6703 10.2461 26.6703H16.211L16.2034 26.6659Z" fill="url(#paint0_radial_1369_5850)"/>
<path d="M16.2034 26.6659L16.2002 26.4993L15.5947 26.5106L16.1208 26.8107L16.2034 26.6659ZM6.82967 21.452L6.98191 21.3841L6.9779 21.3751L6.97285 21.3667L6.82967 21.452ZM7.57943 25.0562L7.74324 25.087L7.57943 25.0562ZM16.211 26.6703V26.8369H16.8395L16.2936 26.5255L16.211 26.6703ZM26.5003 16.0011C26.5003 21.7333 21.9069 26.3927 16.2002 26.4993L16.2065 26.8325C22.0945 26.7226 26.8337 21.9154 26.8337 16.0011H26.5003ZM16.0003 5.50114C21.7993 5.50114 26.5003 10.2021 26.5003 16.0011H26.8337C26.8337 10.0181 21.9834 5.16781 16.0003 5.16781V5.50114ZM5.50035 16.0011C5.50035 10.2021 10.2014 5.50114 16.0003 5.50114V5.16781C10.0173 5.16781 5.16701 10.0181 5.16701 16.0011H5.50035ZM6.97285 21.3667C6.03761 19.7966 5.50035 17.9619 5.50035 16.0011H5.16701C5.16701 18.0235 5.72135 19.917 6.68648 21.5373L6.97285 21.3667ZM7.74324 25.087C7.85335 24.4997 7.72558 23.7219 7.54595 23.0319C7.36469 22.3356 7.12271 21.7002 6.98191 21.3841L6.67742 21.5198C6.81124 21.8202 7.04699 22.4384 7.22337 23.1159C7.40139 23.7997 7.51119 24.5158 7.41562 25.0255L7.74324 25.087ZM10.2461 26.5036C9.54772 26.5036 9.02716 26.4729 8.64191 26.4114C8.25393 26.3494 8.02118 26.2586 7.8828 26.1522C7.75393 26.0531 7.69534 25.9315 7.67835 25.7652C7.66027 25.5882 7.69037 25.369 7.74324 25.087L7.41562 25.0255C7.36323 25.3049 7.32316 25.5682 7.34674 25.7991C7.37142 26.0406 7.46633 26.2524 7.67957 26.4164C7.88329 26.5731 8.18125 26.6754 8.58932 26.7406C9.00012 26.8062 9.54096 26.8369 10.2461 26.8369V26.5036ZM16.211 26.5036H10.2461V26.8369H16.211V26.5036ZM16.1208 26.8107L16.1284 26.815L16.2936 26.5255L16.2859 26.5211L16.1208 26.8107Z" fill="#03ACBA"/>
<g filter="url(#filter0_bd_1369_5850)">
<path fill-rule="evenodd" clip-rule="evenodd" d="M17.536 25.3314C23.3333 25.2232 27.9997 20.4899 27.9997 14.6667C27.9997 8.77563 23.224 4 17.333 4C11.442 4 6.66632 8.77563 6.66632 14.6667C6.66632 16.6582 7.21212 18.5223 8.16231 20.1175C8.43693 20.7339 9.11776 22.6248 8.91207 23.7218C8.70155 24.8446 8.77172 25.3358 11.5787 25.3358H17.5437L17.536 25.3314Z" fill="url(#paint1_linear_1369_5850)" shape-rendering="crispEdges"/>
<path d="M17.536 25.3314L17.5329 25.1648L16.9274 25.1761L17.4534 25.4762L17.536 25.3314ZM8.16231 20.1175L8.31455 20.0497L8.31054 20.0407L8.3055 20.0322L8.16231 20.1175ZM8.91207 23.7218L8.74826 23.691L8.91207 23.7218ZM17.5437 25.3358V25.5025H18.1721L17.6262 25.191L17.5437 25.3358ZM27.833 14.6667C27.833 20.3989 23.2396 25.0583 17.5329 25.1648L17.5391 25.4981C23.4271 25.3882 28.1663 20.5809 28.1663 14.6667H27.833ZM17.333 4.16667C23.132 4.16667 27.833 8.86768 27.833 14.6667H28.1663C28.1663 8.68358 23.3161 3.83333 17.333 3.83333V4.16667ZM6.83299 14.6667C6.83299 8.86768 11.534 4.16667 17.333 4.16667V3.83333C11.3499 3.83333 6.49965 8.68358 6.49965 14.6667H6.83299ZM8.3055 20.0322C7.37025 18.4621 6.83299 16.6274 6.83299 14.6667H6.49965C6.49965 16.6891 7.05399 18.5825 8.01912 20.2028L8.3055 20.0322ZM9.07588 23.7525C9.186 23.1652 9.05822 22.3874 8.87859 21.6974C8.69733 21.0012 8.45535 20.3657 8.31455 20.0497L8.01007 20.1853C8.14388 20.4857 8.37963 21.1039 8.55601 21.7814C8.73404 22.4652 8.84383 23.1813 8.74826 23.691L9.07588 23.7525ZM11.5787 25.1691C10.8804 25.1691 10.3598 25.1385 9.97455 25.0769C9.58657 25.0149 9.35382 24.9242 9.21545 24.8177C9.08658 24.7186 9.02798 24.597 9.01099 24.4307C8.99291 24.2537 9.02301 24.0345 9.07588 23.7525L8.74826 23.691C8.69587 23.9704 8.6558 24.2337 8.67938 24.4646C8.70406 24.7062 8.79897 24.9179 9.01221 25.0819C9.21593 25.2387 9.51389 25.3409 9.92196 25.4061C10.3328 25.4717 10.8736 25.5025 11.5787 25.5025V25.1691ZM17.5437 25.1691H11.5787V25.5025H17.5437V25.1691ZM17.4534 25.4762L17.4611 25.4806L17.6262 25.191L17.6186 25.1867L17.4534 25.4762Z" fill="url(#paint2_linear_1369_5850)"/>
</g>
<g filter="url(#filter1_b_1369_5850)">
<mask id="path-6-inside-1_1369_5850" fill="white">
<path fill-rule="evenodd" clip-rule="evenodd" d="M23.3339 13.1477C23.3405 12.1614 22.5579 11.3645 21.5861 11.3384H21.2791C21.2293 11.0404 21.1457 10.7483 21.0295 10.4678C20.8285 9.9825 20.5338 9.54154 20.1624 9.17011C19.791 8.79867 19.35 8.50404 18.8647 8.30302C18.3794 8.102 17.8593 7.99854 17.334 7.99854C16.8087 7.99854 16.2886 8.102 15.8033 8.30302C15.3179 8.50404 14.877 8.79867 14.5056 9.17011C14.1341 9.54154 13.8395 9.9825 13.6385 10.4678C13.5223 10.7483 13.4387 11.0404 13.3888 11.3384H13.0883C12.1166 11.3645 11.334 12.1614 11.334 13.1477L12.0057 19.5226C12.0057 19.5851 12.0089 19.6468 12.015 19.7076C12.1075 20.62 12.8768 21.3319 13.8122 21.3319H20.8557C21.8535 21.3319 22.6622 20.5219 22.6622 19.5226L23.3339 13.1477ZM14.752 11.3319H15.1862H15.5666H19.1079H19.3198H19.916C19.8849 11.2116 19.8454 11.0933 19.7977 10.978C19.6637 10.6545 19.4672 10.3605 19.2196 10.1129C18.972 9.86529 18.678 9.66887 18.3545 9.53486C18.0309 9.40084 17.6842 9.33187 17.334 9.33187C16.9838 9.33187 16.637 9.40084 16.3135 9.53486C15.99 9.66887 15.696 9.86529 15.4484 10.1129C15.2007 10.3605 15.0043 10.6545 14.8703 10.978C14.8226 11.0933 14.7831 11.2116 14.752 11.3319Z"/>
</mask>
<path fill-rule="evenodd" clip-rule="evenodd" d="M23.3339 13.1477C23.3405 12.1614 22.5579 11.3645 21.5861 11.3384H21.2791C21.2293 11.0404 21.1457 10.7483 21.0295 10.4678C20.8285 9.9825 20.5338 9.54154 20.1624 9.17011C19.791 8.79867 19.35 8.50404 18.8647 8.30302C18.3794 8.102 17.8593 7.99854 17.334 7.99854C16.8087 7.99854 16.2886 8.102 15.8033 8.30302C15.3179 8.50404 14.877 8.79867 14.5056 9.17011C14.1341 9.54154 13.8395 9.9825 13.6385 10.4678C13.5223 10.7483 13.4387 11.0404 13.3888 11.3384H13.0883C12.1166 11.3645 11.334 12.1614 11.334 13.1477L12.0057 19.5226C12.0057 19.5851 12.0089 19.6468 12.015 19.7076C12.1075 20.62 12.8768 21.3319 13.8122 21.3319H20.8557C21.8535 21.3319 22.6622 20.5219 22.6622 19.5226L23.3339 13.1477ZM14.752 11.3319H15.1862H15.5666H19.1079H19.3198H19.916C19.8849 11.2116 19.8454 11.0933 19.7977 10.978C19.6637 10.6545 19.4672 10.3605 19.2196 10.1129C18.972 9.86529 18.678 9.66887 18.3545 9.53486C18.0309 9.40084 17.6842 9.33187 17.334 9.33187C16.9838 9.33187 16.637 9.40084 16.3135 9.53486C15.99 9.66887 15.696 9.86529 15.4484 10.1129C15.2007 10.3605 15.0043 10.6545 14.8703 10.978C14.8226 11.0933 14.7831 11.2116 14.752 11.3319Z" fill="url(#paint3_linear_1369_5850)"/>
<path d="M21.5861 11.3384L21.5951 11.0051H21.5861V11.3384ZM23.3339 13.1477L23.6654 13.1826L23.6672 13.1663L23.6673 13.1499L23.3339 13.1477ZM21.2791 11.3384L20.9504 11.3934L20.9969 11.6717H21.2791V11.3384ZM21.0295 10.4678L20.7215 10.5954V10.5954L21.0295 10.4678ZM20.1624 9.17011L20.3981 8.93441V8.93441L20.1624 9.17011ZM18.8647 8.30302L18.7372 8.61098L18.7372 8.61098L18.8647 8.30302ZM15.8033 8.30302L15.6757 7.99506L15.6757 7.99506L15.8033 8.30302ZM14.5056 9.17011L14.7413 9.40581L14.7413 9.40581L14.5056 9.17011ZM13.6385 10.4678L13.9464 10.5954L13.9464 10.5954L13.6385 10.4678ZM13.3888 11.3384V11.6717H13.671L13.7176 11.3934L13.3888 11.3384ZM13.0883 11.3384V11.0049L13.0794 11.0052L13.0883 11.3384ZM11.334 13.1477H11.0007V13.1652L11.0025 13.1826L11.334 13.1477ZM12.0057 19.5226H12.3391V19.5051L12.3372 19.4877L12.0057 19.5226ZM12.015 19.7076L11.6834 19.7412V19.7412L12.015 19.7076ZM22.6622 19.5226L22.3307 19.4877L22.3289 19.5051V19.5226H22.6622ZM14.752 11.3319L14.4292 11.2485L14.3217 11.6652H14.752V11.3319ZM19.916 11.3319V11.6652H20.3463L20.2387 11.2485L19.916 11.3319ZM19.7977 10.978L19.4897 11.1056V11.1056L19.7977 10.978ZM19.2196 10.1129L19.4553 9.87722V9.87721L19.2196 10.1129ZM18.3545 9.53486L18.482 9.2269L18.482 9.2269L18.3545 9.53486ZM16.3135 9.53486L16.1859 9.2269L16.1859 9.2269L16.3135 9.53486ZM15.4484 10.1129L15.6841 10.3486L15.6841 10.3486L15.4484 10.1129ZM14.8703 10.978L14.5623 10.8505L14.5623 10.8505L14.8703 10.978ZM21.5772 11.6716C22.3688 11.6929 23.0059 12.3419 23.0006 13.1455L23.6673 13.1499C23.675 11.9809 22.747 11.0362 21.5951 11.0052L21.5772 11.6716ZM21.5861 11.0051H21.2791V11.6717H21.5861V11.0051ZM20.7215 10.5954C20.828 10.8525 20.9047 11.1202 20.9504 11.3934L21.6079 11.2834C21.5539 10.9605 21.4633 10.6441 21.3375 10.3402L20.7215 10.5954ZM19.9267 9.40581C20.2672 9.74629 20.5373 10.1505 20.7215 10.5954L21.3375 10.3402C21.1197 9.8145 20.8005 9.33679 20.3981 8.93441L19.9267 9.40581ZM18.7372 8.61098C19.182 8.79524 19.5862 9.06533 19.9267 9.40581L20.3981 8.93441C19.9957 8.53202 19.518 8.21283 18.9923 7.99506L18.7372 8.61098ZM17.334 8.33187C17.8155 8.33187 18.2923 8.42671 18.7372 8.61098L18.9923 7.99506C18.4665 7.77729 17.903 7.6652 17.334 7.6652V8.33187ZM15.9308 8.61098C16.3757 8.42671 16.8525 8.33187 17.334 8.33187V7.6652C16.7649 7.6652 16.2014 7.77729 15.6757 7.99506L15.9308 8.61098ZM14.7413 9.40581C15.0817 9.06533 15.486 8.79524 15.9308 8.61098L15.6757 7.99506C15.1499 8.21283 14.6722 8.53202 14.2699 8.93441L14.7413 9.40581ZM13.9464 10.5954C14.1307 10.1505 14.4008 9.74629 14.7413 9.40581L14.2699 8.93441C13.8675 9.33679 13.5483 9.8145 13.3305 10.3402L13.9464 10.5954ZM13.7176 11.3934C13.7633 11.1202 13.8399 10.8525 13.9464 10.5954L13.3305 10.3402C13.2046 10.6441 13.1141 10.9605 13.0601 11.2834L13.7176 11.3934ZM13.3888 11.0051H13.0883V11.6717H13.3888V11.0051ZM11.6673 13.1477C11.6673 12.342 12.3061 11.6929 13.0973 11.6716L13.0794 11.0052C11.9271 11.0362 11.0007 11.9808 11.0007 13.1477H11.6673ZM12.3372 19.4877L11.6655 13.1127L11.0025 13.1826L11.6742 19.5575L12.3372 19.4877ZM12.3467 19.674C12.3416 19.6243 12.3391 19.5738 12.3391 19.5226H11.6724C11.6724 19.5963 11.6761 19.6692 11.6834 19.7412L12.3467 19.674ZM13.8122 20.9985C13.05 20.9985 12.4221 20.4183 12.3467 19.674L11.6834 19.7412C11.793 20.8217 12.7036 21.6652 13.8122 21.6652V20.9985ZM13.8122 21.6652H20.8557V20.9985H13.8122V21.6652ZM22.3289 19.5226C22.3289 20.3383 21.6689 20.9985 20.8557 20.9985V21.6652C22.0381 21.6652 22.9955 20.7056 22.9955 19.5226H22.3289ZM23.0024 13.1127L22.3307 19.4877L22.9937 19.5575L23.6654 13.1826L23.0024 13.1127ZM15.1862 10.9985H14.752V11.6652H15.1862V10.9985ZM15.5666 10.9985H15.1862V11.6652H15.5666V10.9985ZM19.1079 10.9985H15.5666V11.6652H19.1079V10.9985ZM19.3198 10.9985H19.1079V11.6652H19.3198V10.9985ZM19.916 10.9985H19.3198V11.6652H19.916V10.9985ZM20.2387 11.2485C20.2038 11.1132 20.1593 10.9802 20.1056 10.8505L19.4897 11.1056C19.5315 11.2065 19.566 11.3099 19.5932 11.4152L20.2387 11.2485ZM20.1056 10.8505C19.9549 10.4865 19.7339 10.1558 19.4553 9.87722L18.9839 10.3486C19.2006 10.5653 19.3724 10.8225 19.4897 11.1056L20.1056 10.8505ZM19.4553 9.87721C19.1767 9.59864 18.846 9.37766 18.482 9.2269L18.2269 9.84282C18.51 9.96008 18.7672 10.1319 18.9839 10.3486L19.4553 9.87721ZM18.482 9.2269C18.1181 9.07613 17.728 8.99854 17.334 8.99854V9.6652C17.6404 9.6652 17.9438 9.72556 18.2269 9.84282L18.482 9.2269ZM17.334 8.99854C16.94 8.99854 16.5499 9.07613 16.1859 9.2269L16.4411 9.84282C16.7242 9.72556 17.0276 9.6652 17.334 9.6652V8.99854ZM16.1859 9.2269C15.822 9.37766 15.4912 9.59864 15.2127 9.87721L15.6841 10.3486C15.9007 10.1319 16.158 9.96008 16.4411 9.84282L16.1859 9.2269ZM15.2127 9.87721C14.9341 10.1558 14.7131 10.4865 14.5623 10.8505L15.1783 11.1056C15.2955 10.8225 15.4674 10.5653 15.6841 10.3486L15.2127 9.87721ZM14.5623 10.8505C14.5086 10.9802 14.4642 11.1132 14.4292 11.2485L15.0747 11.4152C15.1019 11.3099 15.1365 11.2065 15.1783 11.1056L14.5623 10.8505Z" fill="url(#paint4_linear_1369_5850)" mask="url(#path-6-inside-1_1369_5850)"/>
</g>
<path d="M19.5121 17.9005C19.2543 17.8167 18.9825 17.7538 18.7038 17.7049C17.54 17.5232 16.2349 17.628 15.3639 17.9984C15.1419 16.8853 14.8983 15.7762 14.667 14.665C14.667 14.665 15.5368 16.1046 16.1988 16.0766C16.8949 16.0766 17.3813 14.665 17.3813 14.665C17.3813 14.665 17.9845 16.173 18.8083 16.0766C19.4006 16.1186 20.0956 14.665 20.0956 14.665C19.9419 15.7469 19.7993 16.8447 19.5121 17.9005Z" fill="#25B6F8"/>
<defs>
<filter id="filter0_bd_1369_5850" x="3.83297" y="1.96683" width="27" height="27.0023" filterUnits="userSpaceOnUse" color-interpolation-filters="sRGB">
<feFlood flood-opacity="0" result="BackgroundImageFix"/>
<feGaussianBlur in="BackgroundImageFix" stdDeviation="0.53454"/>
<feComposite in2="SourceAlpha" operator="in" result="effect1_backgroundBlur_1369_5850"/>
<feColorMatrix in="SourceAlpha" type="matrix" values="0 0 0 0 0 0 0 0 0 0 0 0 0 0 0 0 0 0 127 0" result="hardAlpha"/>
<feOffset dy="0.8"/>
<feGaussianBlur stdDeviation="1.33333"/>
<feComposite in2="hardAlpha" operator="out"/>
<feColorMatrix type="matrix" values="0 0 0 0 0.0971701 0 0 0 0 0.595789 0 0 0 0 0.804167 0 0 0 0.25 0"/>
<feBlend mode="normal" in2="effect1_backgroundBlur_1369_5850" result="effect2_dropShadow_1369_5850"/>
<feBlend mode="normal" in="SourceGraphic" in2="effect2_dropShadow_1369_5850" result="shape"/>
</filter>
<filter id="filter1_b_1369_5850" x="10.6673" y="7.33187" width="13.3333" height="14.6668" filterUnits="userSpaceOnUse" color-interpolation-filters="sRGB">
<feFlood flood-opacity="0" result="BackgroundImageFix"/>
<feGaussianBlur in="BackgroundImageFix" stdDeviation="0.333333"/>
<feComposite in2="SourceAlpha" operator="in" result="effect1_backgroundBlur_1369_5850"/>
<feBlend mode="normal" in="SourceGraphic" in2="effect1_backgroundBlur_1369_5850" result="shape"/>
</filter>
<radialGradient id="paint0_radial_1369_5850" cx="0" cy="0" r="1" gradientUnits="userSpaceOnUse" gradientTransform="translate(23.3337 8.00145) rotate(129.802) scale(26.0359 31.1563)">
<stop stop-color="#8CE2F2"/>
<stop offset="1" stop-color="#16B4FF"/>
</radialGradient>
<linearGradient id="paint1_linear_1369_5850" x1="7.42823" y1="5.20751" x2="23.2492" y2="25.9059" gradientUnits="userSpaceOnUse">
<stop stop-color="#9BEDFF" stop-opacity="0.7"/>
<stop offset="1" stop-color="#8EEBFF" stop-opacity="0.1"/>
</linearGradient>
<linearGradient id="paint2_linear_1369_5850" x1="16.9061" y1="6.70914" x2="17.5208" y2="25.3296" gradientUnits="userSpaceOnUse">
<stop stop-color="white" stop-opacity="0.7"/>
<stop offset="1" stop-color="#FFF5F5" stop-opacity="0.25"/>
</linearGradient>
<linearGradient id="paint3_linear_1369_5850" x1="16.2823" y1="14.8687" x2="25.4976" y2="20.4831" gradientUnits="userSpaceOnUse">
<stop stop-color="white"/>
<stop offset="1" stop-color="white" stop-opacity="0"/>
</linearGradient>
<linearGradient id="paint4_linear_1369_5850" x1="15.5811" y1="13.2383" x2="25.6726" y2="19.9151" gradientUnits="userSpaceOnUse">
<stop stop-color="white"/>
<stop offset="1" stop-color="white" stop-opacity="0"/>
</linearGradient>
</defs>
</svg>
