<svg width="32" height="32" viewBox="0 0 32 32" fill="none" xmlns="http://www.w3.org/2000/svg">
<path d="M2.66632 7.99887C2.66632 5.05335 5.05413 2.66553 7.99965 2.66553H23.9996C26.9452 2.66553 29.333 5.05334 29.333 7.99886V23.9988C29.333 26.9444 26.9452 29.3322 23.9996 29.3322H7.99966C5.05414 29.3322 2.66632 26.9444 2.66632 23.9989V7.99887Z" fill="#E5DFFC"/>
<path fill-rule="evenodd" clip-rule="evenodd" d="M16.2034 26.6664C22.0007 26.5582 26.667 21.8248 26.667 16.0016C26.667 10.1106 21.8914 5.33496 16.0003 5.33496C10.1093 5.33496 5.33368 10.1106 5.33368 16.0016C5.33368 17.9932 5.87948 19.8573 6.82967 21.4524C7.10429 22.0689 7.78511 23.9597 7.57943 25.0567C7.3689 26.1795 7.43908 26.6708 10.2461 26.6708H16.211L16.2034 26.6664Z" fill="url(#paint0_linear_1369_5883)"/>
<path d="M16.2034 26.6664L16.2002 26.4997L15.5947 26.511L16.1208 26.8111L16.2034 26.6664ZM6.82967 21.4524L6.98191 21.3846L6.9779 21.3756L6.97285 21.3672L6.82967 21.4524ZM7.57943 25.0567L7.74324 25.0874L7.57943 25.0567ZM16.211 26.6708V26.8374H16.8395L16.2936 26.526L16.211 26.6708ZM26.5003 16.0016C26.5003 21.7338 21.9069 26.3932 16.2002 26.4997L16.2065 26.833C22.0945 26.7231 26.8337 21.9158 26.8337 16.0016H26.5003ZM16.0003 5.50163C21.7993 5.50163 26.5003 10.2026 26.5003 16.0016H26.8337C26.8337 10.0185 21.9834 5.16829 16.0003 5.16829V5.50163ZM5.50035 16.0016C5.50035 10.2026 10.2014 5.50163 16.0003 5.50163V5.16829C10.0173 5.16829 5.16701 10.0185 5.16701 16.0016H5.50035ZM6.97285 21.3672C6.03761 19.7971 5.50035 17.9623 5.50035 16.0016H5.16701C5.16701 18.024 5.72135 19.9175 6.68648 21.5377L6.97285 21.3672ZM7.74324 25.0874C7.85335 24.5002 7.72558 23.7223 7.54595 23.0324C7.36469 22.3361 7.12271 21.7007 6.98191 21.3846L6.67742 21.5203C6.81124 21.8206 7.04699 22.4388 7.22337 23.1164C7.40139 23.8002 7.51119 24.5163 7.41562 25.026L7.74324 25.0874ZM10.2461 26.5041C9.54772 26.5041 9.02716 26.4734 8.64191 26.4119C8.25392 26.3499 8.02118 26.2591 7.8828 26.1527C7.75393 26.0536 7.69533 25.932 7.67835 25.7657C7.66026 25.5886 7.69037 25.3694 7.74324 25.0874L7.41562 25.026C7.36323 25.3054 7.32316 25.5687 7.34674 25.7995C7.37142 26.0411 7.46633 26.2529 7.67957 26.4169C7.88329 26.5736 8.18125 26.6758 8.58932 26.741C9.00012 26.8067 9.54096 26.8374 10.2461 26.8374V26.5041ZM16.211 26.5041H10.2461V26.8374H16.211V26.5041ZM16.1208 26.8111L16.1284 26.8155L16.2936 26.526L16.2859 26.5216L16.1208 26.8111Z" fill="#990A68"/>
<g filter="url(#filter0_bd_1369_5883)">
<path fill-rule="evenodd" clip-rule="evenodd" d="M17.536 25.3314C23.3333 25.2232 27.9996 20.4899 27.9996 14.6667C27.9996 8.77562 23.224 4 17.333 4C11.4419 4 6.66632 8.77562 6.66632 14.6667C6.66632 16.6582 7.21212 18.5223 8.16231 20.1175C8.43693 20.7339 9.11776 22.6248 8.91207 23.7218C8.70154 24.8446 8.77172 25.3358 11.5787 25.3358H17.5436L17.536 25.3314Z" fill="url(#paint1_radial_1369_5883)" shape-rendering="crispEdges"/>
<path d="M17.536 25.3314L17.5329 25.1648L16.9274 25.1761L17.4534 25.4762L17.536 25.3314ZM8.16231 20.1175L8.31455 20.0497L8.31054 20.0407L8.3055 20.0322L8.16231 20.1175ZM8.91207 23.7218L9.07588 23.7525L8.91207 23.7218ZM17.5436 25.3358V25.5025H18.1721L17.6262 25.191L17.5436 25.3358ZM27.833 14.6667C27.833 20.3989 23.2396 25.0583 17.5329 25.1648L17.5391 25.4981C23.4271 25.3882 28.1663 20.5809 28.1663 14.6667H27.833ZM17.333 4.16667C23.132 4.16667 27.833 8.86767 27.833 14.6667H28.1663C28.1663 8.68358 23.3161 3.83333 17.333 3.83333V4.16667ZM6.83299 14.6667C6.83299 8.86767 11.534 4.16667 17.333 4.16667V3.83333C11.3499 3.83333 6.49965 8.68358 6.49965 14.6667H6.83299ZM8.3055 20.0322C7.37025 18.4621 6.83299 16.6274 6.83299 14.6667H6.49965C6.49965 16.6891 7.05399 18.5825 8.01912 20.2028L8.3055 20.0322ZM9.07588 23.7525C9.18599 23.1652 9.05822 22.3874 8.87859 21.6974C8.69733 21.0012 8.45535 20.3657 8.31455 20.0497L8.01007 20.1853C8.14388 20.4857 8.37963 21.1039 8.55601 21.7814C8.73404 22.4652 8.84383 23.1813 8.74826 23.691L9.07588 23.7525ZM11.5787 25.1691C10.8804 25.1691 10.3598 25.1385 9.97455 25.0769C9.58657 25.0149 9.35382 24.9242 9.21544 24.8177C9.08657 24.7186 9.02798 24.597 9.01099 24.4307C8.99291 24.2537 9.02301 24.0345 9.07588 23.7525L8.74826 23.691C8.69587 23.9704 8.6558 24.2337 8.67938 24.4646C8.70406 24.7062 8.79897 24.9179 9.01221 25.0819C9.21593 25.2386 9.51389 25.3409 9.92196 25.4061C10.3328 25.4717 10.8736 25.5025 11.5787 25.5025V25.1691ZM17.5436 25.1691H11.5787V25.5025H17.5436V25.1691ZM17.4534 25.4762L17.4611 25.4806L17.6262 25.191L17.6186 25.1867L17.4534 25.4762Z" fill="url(#paint2_linear_1369_5883)"/>
<path d="M17.536 25.3314L17.5329 25.1648L16.9274 25.1761L17.4534 25.4762L17.536 25.3314ZM8.16231 20.1175L8.31455 20.0497L8.31054 20.0407L8.3055 20.0322L8.16231 20.1175ZM8.91207 23.7218L9.07588 23.7525L8.91207 23.7218ZM17.5436 25.3358V25.5025H18.1721L17.6262 25.191L17.5436 25.3358ZM27.833 14.6667C27.833 20.3989 23.2396 25.0583 17.5329 25.1648L17.5391 25.4981C23.4271 25.3882 28.1663 20.5809 28.1663 14.6667H27.833ZM17.333 4.16667C23.132 4.16667 27.833 8.86767 27.833 14.6667H28.1663C28.1663 8.68358 23.3161 3.83333 17.333 3.83333V4.16667ZM6.83299 14.6667C6.83299 8.86767 11.534 4.16667 17.333 4.16667V3.83333C11.3499 3.83333 6.49965 8.68358 6.49965 14.6667H6.83299ZM8.3055 20.0322C7.37025 18.4621 6.83299 16.6274 6.83299 14.6667H6.49965C6.49965 16.6891 7.05399 18.5825 8.01912 20.2028L8.3055 20.0322ZM9.07588 23.7525C9.18599 23.1652 9.05822 22.3874 8.87859 21.6974C8.69733 21.0012 8.45535 20.3657 8.31455 20.0497L8.01007 20.1853C8.14388 20.4857 8.37963 21.1039 8.55601 21.7814C8.73404 22.4652 8.84383 23.1813 8.74826 23.691L9.07588 23.7525ZM11.5787 25.1691C10.8804 25.1691 10.3598 25.1385 9.97455 25.0769C9.58657 25.0149 9.35382 24.9242 9.21544 24.8177C9.08657 24.7186 9.02798 24.597 9.01099 24.4307C8.99291 24.2537 9.02301 24.0345 9.07588 23.7525L8.74826 23.691C8.69587 23.9704 8.6558 24.2337 8.67938 24.4646C8.70406 24.7062 8.79897 24.9179 9.01221 25.0819C9.21593 25.2386 9.51389 25.3409 9.92196 25.4061C10.3328 25.4717 10.8736 25.5025 11.5787 25.5025V25.1691ZM17.5436 25.1691H11.5787V25.5025H17.5436V25.1691ZM17.4534 25.4762L17.4611 25.4806L17.6262 25.191L17.6186 25.1867L17.4534 25.4762Z" fill="url(#paint3_linear_1369_5883)"/>
</g>
<g clip-path="url(#clip0_1369_5883)">
<g filter="url(#filter1_d_1369_5883)">
<path d="M23.4415 8.84725C20.5591 8.57315 18.8244 8.85863 17.5294 9.23318C17.1489 9.34324 16.7738 9.4726 16.4467 9.58539C16.2593 9.65002 16.0877 9.7092 15.9398 9.75621C15.4961 9.89729 15.1139 9.98541 14.6857 9.99136C13.6714 10.0055 12.8521 9.83513 12.2503 9.62622C11.7572 9.45506 11.2291 9.5654 10.8415 9.79191C10.455 10.0177 10.0641 10.4506 10.0641 11.0507V19.3254C10.0641 20.0115 10.59 20.5981 11.2903 20.6476C14.1259 20.8483 15.9222 20.5205 17.2452 20.1348C17.6385 20.0201 18.0218 19.8892 18.3512 19.7767C18.5383 19.7127 18.7082 19.6547 18.8524 19.6091C18.8895 19.5973 18.9259 19.586 18.9616 19.5752L20.7982 19.4732C21.4754 19.5739 22.0977 19.7689 22.6037 19.9772C23.0673 20.168 23.5653 20.0926 23.9401 19.8693C24.3186 19.6438 24.6365 19.2242 24.6365 18.6796V10.1673C24.6365 9.49282 24.1284 8.91256 23.4415 8.84725Z" fill="url(#paint4_linear_1369_5883)" shape-rendering="crispEdges"/>
<path d="M23.4415 8.84725C20.5591 8.57315 18.8244 8.85863 17.5294 9.23318C17.1489 9.34324 16.7738 9.4726 16.4467 9.58539C16.2593 9.65002 16.0877 9.7092 15.9398 9.75621C15.4961 9.89729 15.1139 9.98541 14.6857 9.99136C13.6714 10.0055 12.8521 9.83513 12.2503 9.62622C11.7572 9.45506 11.2291 9.5654 10.8415 9.79191C10.455 10.0177 10.0641 10.4506 10.0641 11.0507V19.3254C10.0641 20.0115 10.59 20.5981 11.2903 20.6476C14.1259 20.8483 15.9222 20.5205 17.2452 20.1348C17.6385 20.0201 18.0218 19.8892 18.3512 19.7767C18.5383 19.7127 18.7082 19.6547 18.8524 19.6091C18.8895 19.5973 18.9259 19.586 18.9616 19.5752L20.7982 19.4732C21.4754 19.5739 22.0977 19.7689 22.6037 19.9772C23.0673 20.168 23.5653 20.0926 23.9401 19.8693C24.3186 19.6438 24.6365 19.2242 24.6365 18.6796V10.1673C24.6365 9.49282 24.1284 8.91256 23.4415 8.84725Z" stroke="url(#paint5_linear_1369_5883)" stroke-width="0.333333" stroke-linecap="round" shape-rendering="crispEdges"/>
</g>
<g filter="url(#filter2_d_1369_5883)">
<path d="M14.888 16.3513C14.7212 16.3513 14.5923 16.3058 14.5013 16.2148C14.4104 16.12 14.3649 15.9892 14.3649 15.8224V12.8199C14.3649 12.6493 14.4104 12.5185 14.5013 12.4275C14.5961 12.3365 14.7269 12.291 14.8937 12.291H16.2927C16.7476 12.291 17.0983 12.4029 17.3447 12.6265C17.5949 12.8464 17.72 13.1535 17.72 13.5478C17.72 13.8018 17.6631 14.0236 17.5494 14.2131C17.4395 14.3989 17.2783 14.5429 17.066 14.6453C16.8575 14.7439 16.5997 14.7932 16.2927 14.7932L16.3381 14.6908H16.6111C16.7741 14.6908 16.9182 14.7306 17.0433 14.8102C17.1684 14.886 17.2727 15.0036 17.3561 15.1628L17.6404 15.6746C17.701 15.7845 17.7295 15.8926 17.7257 15.9987C17.7219 16.1011 17.6802 16.1864 17.6006 16.2546C17.5248 16.3191 17.4129 16.3513 17.2651 16.3513C17.1172 16.3513 16.9959 16.321 16.9011 16.2603C16.8101 16.1997 16.7286 16.1049 16.6566 15.976L16.1391 15.0263C16.0936 14.9429 16.0349 14.886 15.9628 14.8557C15.8946 14.8216 15.815 14.8045 15.724 14.8045H15.4112V15.8224C15.4112 15.9892 15.3676 16.12 15.2804 16.2148C15.1932 16.3058 15.0624 16.3513 14.888 16.3513ZM15.4112 14.0653H16.105C16.3059 14.0653 16.4595 14.0255 16.5656 13.9458C16.6718 13.8662 16.7248 13.743 16.7248 13.5762C16.7248 13.417 16.6718 13.2976 16.5656 13.2179C16.4595 13.1345 16.3059 13.0928 16.105 13.0928H15.4112V14.0653Z" fill="#D861AC"/>
<path d="M18.8122 17.3749C18.6529 17.3749 18.5297 17.3313 18.4425 17.2441C18.3553 17.1569 18.3117 17.0299 18.3117 16.8631V13.9572C18.3117 13.7942 18.3534 13.6691 18.4368 13.5819C18.524 13.4947 18.6472 13.4511 18.8065 13.4511C18.9695 13.4511 19.0927 13.4947 19.1761 13.5819C19.2633 13.6691 19.3069 13.7942 19.3069 13.9572V14.287L19.2443 14.0084C19.2974 13.8378 19.4074 13.7013 19.5742 13.599C19.7448 13.4928 19.9381 13.4397 20.1542 13.4397C20.3968 13.4397 20.6091 13.4985 20.7911 13.616C20.9769 13.7335 21.1209 13.9003 21.2233 14.1164C21.3257 14.3325 21.3768 14.5941 21.3768 14.9012C21.3768 15.2007 21.3257 15.4604 21.2233 15.6803C21.1209 15.9002 20.9769 16.0689 20.7911 16.1864C20.6091 16.3039 20.3968 16.3627 20.1542 16.3627C19.9457 16.3627 19.758 16.3134 19.5912 16.2148C19.4244 16.1163 19.3126 15.9874 19.2557 15.8281H19.324V16.8631C19.324 17.0299 19.2785 17.1569 19.1875 17.2441C19.1003 17.3313 18.9752 17.3749 18.8122 17.3749ZM19.8358 15.6177C19.9381 15.6177 20.0272 15.5931 20.103 15.5438C20.1826 15.4907 20.2452 15.413 20.2907 15.3106C20.3362 15.2045 20.3589 15.068 20.3589 14.9012C20.3589 14.6472 20.3096 14.4652 20.2111 14.3553C20.1125 14.2415 19.9874 14.1847 19.8358 14.1847C19.7334 14.1847 19.6424 14.2093 19.5628 14.2586C19.4832 14.3079 19.4206 14.3856 19.3751 14.4918C19.3296 14.5941 19.3069 14.7306 19.3069 14.9012C19.3069 15.1514 19.3562 15.3334 19.4548 15.4471C19.5533 15.5609 19.6803 15.6177 19.8358 15.6177Z" fill="#D861AC"/>
</g>
</g>
<defs>
<filter id="filter0_bd_1369_5883" x="3.83297" y="1.96683" width="27" height="27.0028" filterUnits="userSpaceOnUse" color-interpolation-filters="sRGB">
<feFlood flood-opacity="0" result="BackgroundImageFix"/>
<feGaussianBlur in="BackgroundImageFix" stdDeviation="0.53454"/>
<feComposite in2="SourceAlpha" operator="in" result="effect1_backgroundBlur_1369_5883"/>
<feColorMatrix in="SourceAlpha" type="matrix" values="0 0 0 0 0 0 0 0 0 0 0 0 0 0 0 0 0 0 127 0" result="hardAlpha"/>
<feOffset dy="0.8"/>
<feGaussianBlur stdDeviation="1.33333"/>
<feComposite in2="hardAlpha" operator="out"/>
<feColorMatrix type="matrix" values="0 0 0 0 0.445833 0 0 0 0 0 0 0 0 0 0.282273 0 0 0 0.15 0"/>
<feBlend mode="normal" in2="effect1_backgroundBlur_1369_5883" result="effect2_dropShadow_1369_5883"/>
<feBlend mode="normal" in="SourceGraphic" in2="effect2_dropShadow_1369_5883" result="shape"/>
</filter>
<filter id="filter1_d_1369_5883" x="7.23073" y="6.57129" width="20.2391" height="17.637" filterUnits="userSpaceOnUse" color-interpolation-filters="sRGB">
<feFlood flood-opacity="0" result="BackgroundImageFix"/>
<feColorMatrix in="SourceAlpha" type="matrix" values="0 0 0 0 0 0 0 0 0 0 0 0 0 0 0 0 0 0 127 0" result="hardAlpha"/>
<feOffset dy="0.666666"/>
<feGaussianBlur stdDeviation="1.33333"/>
<feComposite in2="hardAlpha" operator="out"/>
<feColorMatrix type="matrix" values="0 0 0 0 0.583333 0 0 0 0 0.0777778 0 0 0 0 0.515015 0 0 0 0.25 0"/>
<feBlend mode="normal" in2="BackgroundImageFix" result="effect1_dropShadow_1369_5883"/>
<feBlend mode="normal" in="SourceGraphic" in2="effect1_dropShadow_1369_5883" result="shape"/>
</filter>
<filter id="filter2_d_1369_5883" x="11.6982" y="10.291" width="12.3453" height="10.4173" filterUnits="userSpaceOnUse" color-interpolation-filters="sRGB">
<feFlood flood-opacity="0" result="BackgroundImageFix"/>
<feColorMatrix in="SourceAlpha" type="matrix" values="0 0 0 0 0 0 0 0 0 0 0 0 0 0 0 0 0 0 127 0" result="hardAlpha"/>
<feOffset dy="0.666666"/>
<feGaussianBlur stdDeviation="1.33333"/>
<feComposite in2="hardAlpha" operator="out"/>
<feColorMatrix type="matrix" values="0 0 0 0 0.583333 0 0 0 0 0.0777778 0 0 0 0 0.515015 0 0 0 0.25 0"/>
<feBlend mode="normal" in2="BackgroundImageFix" result="effect1_dropShadow_1369_5883"/>
<feBlend mode="normal" in="SourceGraphic" in2="effect1_dropShadow_1369_5883" result="shape"/>
</filter>
<linearGradient id="paint0_linear_1369_5883" x1="11.3337" y1="26.004" x2="13.3162" y2="-0.693365" gradientUnits="userSpaceOnUse">
<stop stop-color="#BC006F"/>
<stop offset="1" stop-color="#FF9CD7" stop-opacity="0.54"/>
</linearGradient>
<radialGradient id="paint1_radial_1369_5883" cx="0" cy="0" r="1" gradientUnits="userSpaceOnUse" gradientTransform="translate(17.333 23.7056) rotate(-75.8155) scale(18.719 20.6879)">
<stop stop-color="#FFD6F1"/>
<stop offset="0.921875" stop-color="#FFD6F1" stop-opacity="0.170312"/>
</radialGradient>
<linearGradient id="paint2_linear_1369_5883" x1="16.9061" y1="6.70913" x2="17.5207" y2="25.3296" gradientUnits="userSpaceOnUse">
<stop stop-color="white" stop-opacity="0.7"/>
<stop offset="1" stop-color="#FFF5F5" stop-opacity="0.25"/>
</linearGradient>
<linearGradient id="paint3_linear_1369_5883" x1="17.333" y1="4" x2="17.333" y2="25.3358" gradientUnits="userSpaceOnUse">
<stop stop-color="#FFFCFC"/>
<stop offset="1" stop-color="white" stop-opacity="0"/>
</linearGradient>
<linearGradient id="paint4_linear_1369_5883" x1="16.0732" y1="14.906" x2="25.2114" y2="22.437" gradientUnits="userSpaceOnUse">
<stop stop-color="white"/>
<stop offset="1" stop-color="white" stop-opacity="0"/>
</linearGradient>
<linearGradient id="paint5_linear_1369_5883" x1="15.2217" y1="13.4423" x2="25.005" y2="22.1981" gradientUnits="userSpaceOnUse">
<stop stop-color="white"/>
<stop offset="1" stop-color="white" stop-opacity="0"/>
</linearGradient>
<clipPath id="clip0_1369_5883">
<rect width="16" height="16" fill="white" transform="translate(9.33331 6.66699)"/>
</clipPath>
</defs>
</svg>
