<svg width="32" height="32" viewBox="0 0 32 32" fill="none" xmlns="http://www.w3.org/2000/svg">
<path d="M2.66632 7.99838C2.66632 5.05286 5.05413 2.66504 7.99965 2.66504H23.9996C26.9452 2.66504 29.333 5.05285 29.333 7.99837V23.9984C29.333 26.9439 26.9452 29.3317 23.9996 29.3317H7.99966C5.05414 29.3317 2.66632 26.9439 2.66632 23.9984V7.99838Z" fill="#FFF6E1"/>
<path fill-rule="evenodd" clip-rule="evenodd" d="M16.2034 26.6664C22.0007 26.5582 26.667 21.8248 26.667 16.0016C26.667 10.1106 21.8914 5.33496 16.0003 5.33496C10.1093 5.33496 5.33368 10.1106 5.33368 16.0016C5.33368 17.9932 5.87948 19.8573 6.82967 21.4524C7.10429 22.0689 7.78511 23.9597 7.57943 25.0567C7.3689 26.1795 7.43908 26.6708 10.2461 26.6708H16.211L16.2034 26.6664Z" fill="url(#paint0_radial_1369_5906)"/>
<path d="M16.2034 26.6664L16.2002 26.4997L15.5947 26.511L16.1208 26.8111L16.2034 26.6664ZM6.82967 21.4524L6.98191 21.3846L6.9779 21.3756L6.97285 21.3672L6.82967 21.4524ZM7.57943 25.0567L7.74324 25.0874L7.57943 25.0567ZM16.211 26.6708V26.8374H16.8395L16.2936 26.526L16.211 26.6708ZM26.5003 16.0016C26.5003 21.7338 21.9069 26.3932 16.2002 26.4997L16.2065 26.833C22.0945 26.7231 26.8337 21.9158 26.8337 16.0016H26.5003ZM16.0003 5.50163C21.7993 5.50163 26.5003 10.2026 26.5003 16.0016H26.8337C26.8337 10.0185 21.9834 5.16829 16.0003 5.16829V5.50163ZM5.50035 16.0016C5.50035 10.2026 10.2014 5.50163 16.0003 5.50163V5.16829C10.0173 5.16829 5.16701 10.0185 5.16701 16.0016H5.50035ZM6.97285 21.3672C6.03761 19.7971 5.50035 17.9623 5.50035 16.0016H5.16701C5.16701 18.024 5.72135 19.9175 6.68648 21.5377L6.97285 21.3672ZM7.74324 25.0874C7.85335 24.5002 7.72558 23.7223 7.54595 23.0324C7.36469 22.3361 7.12271 21.7007 6.98191 21.3846L6.67742 21.5203C6.81124 21.8206 7.04699 22.4388 7.22337 23.1164C7.40139 23.8002 7.51119 24.5163 7.41562 25.026L7.74324 25.0874ZM10.2461 26.5041C9.54772 26.5041 9.02716 26.4734 8.64191 26.4119C8.25392 26.3499 8.02118 26.2591 7.8828 26.1527C7.75393 26.0536 7.69533 25.932 7.67835 25.7657C7.66026 25.5886 7.69037 25.3694 7.74324 25.0874L7.41562 25.026C7.36323 25.3054 7.32316 25.5687 7.34674 25.7995C7.37142 26.0411 7.46633 26.2529 7.67957 26.4169C7.88329 26.5736 8.18125 26.6758 8.58932 26.741C9.00012 26.8067 9.54096 26.8374 10.2461 26.8374V26.5041ZM16.211 26.5041H10.2461V26.8374H16.211V26.5041ZM16.1208 26.8111L16.1284 26.8155L16.2936 26.526L16.2859 26.5216L16.1208 26.8111Z" fill="#BA7120"/>
<g filter="url(#filter0_bd_1369_5906)">
<path fill-rule="evenodd" clip-rule="evenodd" d="M17.536 25.3314C23.3333 25.2232 27.9996 20.4899 27.9996 14.6667C27.9996 8.77562 23.224 4 17.333 4C11.4419 4 6.66632 8.77562 6.66632 14.6667C6.66632 16.6582 7.21212 18.5223 8.16231 20.1175C8.43693 20.7339 9.11776 22.6248 8.91207 23.7218C8.70154 24.8446 8.77172 25.3358 11.5787 25.3358H17.5436L17.536 25.3314Z" fill="url(#paint1_radial_1369_5906)" shape-rendering="crispEdges"/>
<path d="M17.536 25.3314L17.5329 25.1648L16.9274 25.1761L17.4534 25.4762L17.536 25.3314ZM8.16231 20.1175L8.31455 20.0497L8.31054 20.0407L8.3055 20.0322L8.16231 20.1175ZM8.91207 23.7218L9.07588 23.7525L8.91207 23.7218ZM17.5436 25.3358V25.5025H18.1721L17.6262 25.191L17.5436 25.3358ZM27.833 14.6667C27.833 20.3989 23.2396 25.0583 17.5329 25.1648L17.5391 25.4981C23.4271 25.3882 28.1663 20.5809 28.1663 14.6667H27.833ZM17.333 4.16667C23.132 4.16667 27.833 8.86767 27.833 14.6667H28.1663C28.1663 8.68358 23.3161 3.83333 17.333 3.83333V4.16667ZM6.83299 14.6667C6.83299 8.86767 11.534 4.16667 17.333 4.16667V3.83333C11.3499 3.83333 6.49965 8.68358 6.49965 14.6667H6.83299ZM8.3055 20.0322C7.37025 18.4621 6.83299 16.6274 6.83299 14.6667H6.49965C6.49965 16.6891 7.05399 18.5825 8.01912 20.2028L8.3055 20.0322ZM9.07588 23.7525C9.18599 23.1652 9.05822 22.3874 8.87859 21.6974C8.69733 21.0012 8.45535 20.3657 8.31455 20.0497L8.01007 20.1853C8.14388 20.4857 8.37963 21.1039 8.55601 21.7814C8.73404 22.4652 8.84383 23.1813 8.74826 23.691L9.07588 23.7525ZM11.5787 25.1691C10.8804 25.1691 10.3598 25.1385 9.97455 25.0769C9.58657 25.0149 9.35382 24.9242 9.21544 24.8177C9.08657 24.7186 9.02798 24.597 9.01099 24.4307C8.99291 24.2537 9.02301 24.0345 9.07588 23.7525L8.74826 23.691C8.69587 23.9704 8.6558 24.2337 8.67938 24.4646C8.70406 24.7062 8.79897 24.9179 9.01221 25.0819C9.21593 25.2386 9.51389 25.3409 9.92196 25.4061C10.3328 25.4717 10.8736 25.5025 11.5787 25.5025V25.1691ZM17.5436 25.1691H11.5787V25.5025H17.5436V25.1691ZM17.4534 25.4762L17.4611 25.4806L17.6262 25.191L17.6186 25.1867L17.4534 25.4762Z" fill="url(#paint2_linear_1369_5906)"/>
</g>
<g filter="url(#filter1_d_1369_5906)">
<path d="M13.2635 8.11127C12.7338 7.73476 12 8.11346 12 8.76332V19.3295C12 20.4341 12.8954 21.3295 14 21.3295H21.3333C22.4379 21.3295 23.3333 20.434 23.3333 19.3295V15.9961C23.3333 15.628 23.0349 15.3295 22.6667 15.3295C22.2985 15.3295 22 15.628 22 15.9961V19.3295C22 19.6977 21.7015 19.9961 21.3333 19.9961V8.84268C21.3333 8.20376 20.6213 7.82264 20.0896 8.17699L18.657 9.13187L17.094 8.14425C16.833 7.97932 16.5003 7.97932 16.2393 8.14425L14.6885 9.12419L13.2635 8.11127Z" fill="url(#paint3_linear_1369_5906)" shape-rendering="crispEdges"/>
<path d="M13.2635 8.11127C12.7338 7.73476 12 8.11346 12 8.76332V19.3295C12 20.4341 12.8954 21.3295 14 21.3295H21.3333C22.4379 21.3295 23.3333 20.434 23.3333 19.3295V15.9961C23.3333 15.628 23.0349 15.3295 22.6667 15.3295C22.2985 15.3295 22 15.628 22 15.9961V19.3295C22 19.6977 21.7015 19.9961 21.3333 19.9961V8.84268C21.3333 8.20376 20.6213 7.82264 20.0896 8.17699L18.657 9.13187L17.094 8.14425C16.833 7.97932 16.5003 7.97932 16.2393 8.14425L14.6885 9.12419L13.2635 8.11127Z" stroke="url(#paint4_linear_1369_5906)" stroke-width="0.333333" shape-rendering="crispEdges"/>
</g>
<path d="M15.3333 15.332H18" stroke="#FAAC4D" stroke-width="1.33333" stroke-linecap="round"/>
<path d="M15.3333 12.665H18" stroke="#FAAC4D" stroke-width="1.33333" stroke-linecap="round"/>
<path d="M15.3333 17.998H18" stroke="#FAAC4D" stroke-width="1.33333" stroke-linecap="round"/>
<defs>
<filter id="filter0_bd_1369_5906" x="3.83297" y="1.96634" width="27" height="27.0033" filterUnits="userSpaceOnUse" color-interpolation-filters="sRGB">
<feFlood flood-opacity="0" result="BackgroundImageFix"/>
<feGaussianBlur in="BackgroundImageFix" stdDeviation="0.53454"/>
<feComposite in2="SourceAlpha" operator="in" result="effect1_backgroundBlur_1369_5906"/>
<feColorMatrix in="SourceAlpha" type="matrix" values="0 0 0 0 0 0 0 0 0 0 0 0 0 0 0 0 0 0 127 0" result="hardAlpha"/>
<feOffset dy="0.8"/>
<feGaussianBlur stdDeviation="1.33333"/>
<feComposite in2="hardAlpha" operator="out"/>
<feColorMatrix type="matrix" values="0 0 0 0 0.658333 0 0 0 0 0.363635 0 0 0 0 0.0274306 0 0 0 0.25 0"/>
<feBlend mode="normal" in2="effect1_backgroundBlur_1369_5906" result="effect2_dropShadow_1369_5906"/>
<feBlend mode="normal" in="SourceGraphic" in2="effect2_dropShadow_1369_5906" result="shape"/>
</filter>
<filter id="filter1_d_1369_5906" x="10.6905" y="7.22349" width="13.9524" height="15.9869" filterUnits="userSpaceOnUse" color-interpolation-filters="sRGB">
<feFlood flood-opacity="0" result="BackgroundImageFix"/>
<feColorMatrix in="SourceAlpha" type="matrix" values="0 0 0 0 0 0 0 0 0 0 0 0 0 0 0 0 0 0 127 0" result="hardAlpha"/>
<feOffset dy="0.571428"/>
<feGaussianBlur stdDeviation="0.571428"/>
<feComposite in2="hardAlpha" operator="out"/>
<feColorMatrix type="matrix" values="0 0 0 0 0.0465972 0 0 0 0 0.362972 0 0 0 0 0.508333 0 0 0 0.25 0"/>
<feBlend mode="normal" in2="BackgroundImageFix" result="effect1_dropShadow_1369_5906"/>
<feBlend mode="normal" in="SourceGraphic" in2="effect1_dropShadow_1369_5906" result="shape"/>
</filter>
<radialGradient id="paint0_radial_1369_5906" cx="0" cy="0" r="1" gradientUnits="userSpaceOnUse" gradientTransform="translate(25.7781 26.0781) rotate(-133.149) scale(25.9947 34.1319)">
<stop offset="0.0852739" stop-color="#FFC740"/>
<stop offset="0.651042" stop-color="#F5AA56"/>
</radialGradient>
<radialGradient id="paint1_radial_1369_5906" cx="0" cy="0" r="1" gradientUnits="userSpaceOnUse" gradientTransform="translate(24.9865 8.13048) rotate(84.9576) scale(14.7313 200.678)">
<stop stop-color="#FBC97F" stop-opacity="0.7"/>
<stop offset="1" stop-color="#FBC97F" stop-opacity="0.1"/>
</radialGradient>
<linearGradient id="paint2_linear_1369_5906" x1="16.9061" y1="6.70913" x2="17.5207" y2="25.3296" gradientUnits="userSpaceOnUse">
<stop stop-color="white" stop-opacity="0.7"/>
<stop offset="1" stop-color="#FFF5F5" stop-opacity="0.25"/>
</linearGradient>
<linearGradient id="paint3_linear_1369_5906" x1="16.6734" y1="14.8497" x2="3.42607" y2="8.64489" gradientUnits="userSpaceOnUse">
<stop stop-color="white"/>
<stop offset="1" stop-color="white" stop-opacity="0"/>
</linearGradient>
<linearGradient id="paint4_linear_1369_5906" x1="16.0112" y1="13.2151" x2="25.8803" y2="19.3663" gradientUnits="userSpaceOnUse">
<stop stop-color="white"/>
<stop offset="1" stop-color="white" stop-opacity="0"/>
</linearGradient>
</defs>
</svg>
