<svg width="32" height="32" viewBox="0 0 32 32" fill="none" xmlns="http://www.w3.org/2000/svg">
<path d="M7.99965 29.335C5.05413 29.335 2.66632 26.9471 2.66632 24.0016L2.66632 8.00162C2.66632 5.0561 5.05413 2.66829 7.99965 2.66829L23.9997 2.66829C26.9452 2.66829 29.333 5.05611 29.333 8.00163L29.333 24.0016C29.333 26.9471 26.9452 29.335 23.9997 29.335L7.99965 29.335Z" fill="#DEFFF0"/>
<path d="M6.44162 18.8283L14.9034 27.2902C15.9448 28.3316 17.6333 28.3316 18.6747 27.2902L26.2172 19.7477C27.2586 18.7063 27.2586 17.0179 26.2172 15.9765L17.7553 7.51463C17.2021 6.96145 16.434 6.67908 15.6542 6.7423L8.67741 7.30799C7.37475 7.41361 6.3406 8.44776 6.23498 9.75043L5.66929 16.7272C5.60607 17.507 5.88844 18.2752 6.44162 18.8283Z" fill="url(#paint0_radial_1369_5952)" stroke="url(#paint1_linear_1369_5952)" stroke-width="0.333333" stroke-linecap="round"/>
<g filter="url(#filter0_bd_1369_5952)">
<path d="M7.77493 17.6311L16.2368 26.0929C17.2782 27.1343 18.9666 27.1343 20.008 26.0929L27.5505 18.5504C28.5919 17.509 28.5919 15.8206 27.5505 14.7792L19.0886 6.31736C18.5355 5.76418 17.7673 5.48181 16.9875 5.54504L10.0107 6.11072C8.70806 6.21635 7.67391 7.2505 7.56829 8.55316L7.00261 15.5299C6.93938 16.3097 7.22175 17.0779 7.77493 17.6311Z" fill="url(#paint2_radial_1369_5952)" shape-rendering="crispEdges"/>
<path d="M7.77493 17.6311L16.2368 26.0929C17.2782 27.1343 18.9666 27.1343 20.008 26.0929L27.5505 18.5504C28.5919 17.509 28.5919 15.8206 27.5505 14.7792L19.0886 6.31736C18.5355 5.76418 17.7673 5.48181 16.9875 5.54504L10.0107 6.11072C8.70806 6.21635 7.67391 7.2505 7.56829 8.55316L7.00261 15.5299C6.93938 16.3097 7.22175 17.0779 7.77493 17.6311Z" stroke="url(#paint3_linear_1369_5952)" stroke-width="0.333333" stroke-linecap="round" shape-rendering="crispEdges"/>
</g>
<path d="M21.6647 15.6301C21.703 15.696 21.6778 15.7803 21.6104 15.816C21.2052 16.0307 20.8075 16.2817 20.4174 16.5553C18.7065 17.8041 17.1746 19.5801 16.4838 21.1712C16.4501 21.2487 16.3544 21.2783 16.2841 21.2314C14.7933 20.2386 13.2866 19.269 11.7863 18.2905C11.6606 18.2085 11.7497 17.9907 11.8976 18.0151C12.8528 18.173 14.43 18.3199 14.9946 17.7055C15.7039 16.9962 15.1301 15.3358 14.8384 14.6294C14.7913 14.5152 14.9116 14.3885 15.0281 14.4296C15.7912 14.6989 17.6545 15.2277 18.4104 14.2918C18.4156 14.2853 18.4214 14.2792 18.4276 14.2736C18.9552 13.7979 18.7277 12.4584 18.5015 11.5724C18.4637 11.4246 18.6853 11.3126 18.7769 11.4345C19.7969 12.791 20.8138 14.1647 21.6647 15.6301Z" fill="url(#paint4_linear_1369_5952)"/>
<circle cx="11.133" cy="10.3223" r="1.33333" transform="rotate(-45 11.133 10.3223)" fill="white"/>
<defs>
<filter id="filter0_bd_1369_5952" x="6.33976" y="4.88267" width="24.1082" height="24.1082" filterUnits="userSpaceOnUse" color-interpolation-filters="sRGB">
<feFlood flood-opacity="0" result="BackgroundImageFix"/>
<feGaussianBlur in="BackgroundImageFix" stdDeviation="0.243726"/>
<feComposite in2="SourceAlpha" operator="in" result="effect1_backgroundBlur_1369_5952"/>
<feColorMatrix in="SourceAlpha" type="matrix" values="0 0 0 0 0 0 0 0 0 0 0 0 0 0 0 0 0 0 127 0" result="hardAlpha"/>
<feOffset dx="0.974904" dy="0.974904"/>
<feGaussianBlur stdDeviation="0.487452"/>
<feComposite in2="hardAlpha" operator="out"/>
<feColorMatrix type="matrix" values="0 0 0 0 0.0161632 0 0 0 0 0.554167 0 0 0 0 0.327812 0 0 0 0.25 0"/>
<feBlend mode="normal" in2="effect1_backgroundBlur_1369_5952" result="effect2_dropShadow_1369_5952"/>
<feBlend mode="normal" in="SourceGraphic" in2="effect2_dropShadow_1369_5952" result="shape"/>
</filter>
<radialGradient id="paint0_radial_1369_5952" cx="0" cy="0" r="1" gradientUnits="userSpaceOnUse" gradientTransform="translate(17.2144 27.351) rotate(-100.562) scale(24.9909 28.0975)">
<stop stop-color="#00FF85" stop-opacity="0.7"/>
<stop offset="1" stop-color="#00945F"/>
</radialGradient>
<linearGradient id="paint1_linear_1369_5952" x1="5.33321" y1="16.6628" x2="27.9999" y2="15.9961" gradientUnits="userSpaceOnUse">
<stop stop-color="#00AF63" stop-opacity="0.7"/>
<stop offset="1" stop-color="#00AF63" stop-opacity="0.3"/>
</linearGradient>
<radialGradient id="paint2_radial_1369_5952" cx="0" cy="0" r="1" gradientUnits="userSpaceOnUse" gradientTransform="translate(16.7216 28.4634) rotate(-101.718) scale(26.7267 460.043)">
<stop stop-color="#4FFBB3"/>
<stop offset="0.0001" stop-color="#4FFBB3" stop-opacity="0.7"/>
<stop offset="1" stop-color="#4FFBB3" stop-opacity="0.1"/>
</radialGradient>
<linearGradient id="paint3_linear_1369_5952" x1="29.9999" y1="13.998" x2="7.92291" y2="19.7" gradientUnits="userSpaceOnUse">
<stop stop-color="white" stop-opacity="0"/>
<stop offset="1" stop-color="white"/>
</linearGradient>
<linearGradient id="paint4_linear_1369_5952" x1="17.2868" y1="16.9042" x2="26.5672" y2="13.9174" gradientUnits="userSpaceOnUse">
<stop stop-color="white"/>
<stop offset="1" stop-color="white" stop-opacity="0"/>
</linearGradient>
</defs>
</svg>
