<svg width="18" height="20" viewBox="0 0 22 24" fill="none" xmlns="http://www.w3.org/2000/svg">
<path d="M11 19.6364C11.2176 19.6364 11.4302 19.5724 11.6111 19.4525C11.792 19.3326 11.933 19.1623 12.0163 18.9629C12.0995 18.7636 12.1213 18.5442 12.0789 18.3326C12.0364 18.121 11.9317 17.9266 11.7778 17.7741C11.624 17.6215 11.428 17.5176 11.2146 17.4755C11.0012 17.4334 10.78 17.455 10.579 17.5376C10.378 17.6202 10.2063 17.76 10.0854 17.9394C9.96451 18.1188 9.9 18.3297 9.9 18.5455C9.9 18.8348 10.0159 19.1123 10.2222 19.3168C10.4285 19.5214 10.7083 19.6364 11 19.6364ZM16.5 19.6364C16.7176 19.6364 16.9302 19.5724 17.1111 19.4525C17.292 19.3326 17.433 19.1623 17.5163 18.9629C17.5995 18.7636 17.6213 18.5442 17.5789 18.3326C17.5364 18.121 17.4317 17.9266 17.2778 17.7741C17.124 17.6215 16.928 17.5176 16.7146 17.4755C16.5012 17.4334 16.28 17.455 16.0791 17.5376C15.8781 17.6202 15.7063 17.76 15.5854 17.9394C15.4645 18.1188 15.4 18.3297 15.4 18.5455C15.4 18.8348 15.5159 19.1123 15.7222 19.3168C15.9285 19.5214 16.2083 19.6364 16.5 19.6364ZM16.5 15.2727C16.7176 15.2727 16.9302 15.2087 17.1111 15.0889C17.292 14.969 17.433 14.7986 17.5163 14.5993C17.5995 14.4 17.6213 14.1806 17.5789 13.969C17.5364 13.7574 17.4317 13.563 17.2778 13.4104C17.124 13.2579 16.928 13.154 16.7146 13.1119C16.5012 13.0698 16.28 13.0914 16.0791 13.174C15.8781 13.2565 15.7063 13.3963 15.5854 13.5757C15.4645 13.7551 15.4 13.9661 15.4 14.1818C15.4 14.4711 15.5159 14.7486 15.7222 14.9532C15.9285 15.1578 16.2083 15.2727 16.5 15.2727ZM11 15.2727C11.2176 15.2727 11.4302 15.2087 11.6111 15.0889C11.792 14.969 11.933 14.7986 12.0163 14.5993C12.0995 14.4 12.1213 14.1806 12.0789 13.969C12.0364 13.7574 11.9317 13.563 11.7778 13.4104C11.624 13.2579 11.428 13.154 11.2146 13.1119C11.0012 13.0698 10.78 13.0914 10.579 13.174C10.378 13.2565 10.2063 13.3963 10.0854 13.5757C9.96451 13.7551 9.9 13.9661 9.9 14.1818C9.9 14.4711 10.0159 14.7486 10.2222 14.9532C10.4285 15.1578 10.7083 15.2727 11 15.2727ZM18.7 2.18182H17.6V1.09091C17.6 0.801582 17.4841 0.524105 17.2778 0.31952C17.0715 0.114935 16.7917 0 16.5 0C16.2083 0 15.9285 0.114935 15.7222 0.31952C15.5159 0.524105 15.4 0.801582 15.4 1.09091V2.18182H6.6V1.09091C6.6 0.801582 6.48411 0.524105 6.27782 0.31952C6.07153 0.114935 5.79174 0 5.5 0C5.20826 0 4.92847 0.114935 4.72218 0.31952C4.51589 0.524105 4.4 0.801582 4.4 1.09091V2.18182H3.3C2.42479 2.18182 1.58542 2.52662 0.966548 3.14038C0.347678 3.75413 0 4.58656 0 5.45455V20.7273C0 21.5953 0.347678 22.4277 0.966548 23.0414C1.58542 23.6552 2.42479 24 3.3 24H18.7C19.5752 24 20.4146 23.6552 21.0335 23.0414C21.6523 22.4277 22 21.5953 22 20.7273V5.45455C22 4.58656 21.6523 3.75413 21.0335 3.14038C20.4146 2.52662 19.5752 2.18182 18.7 2.18182ZM19.8 20.7273C19.8 21.0166 19.6841 21.2941 19.4778 21.4987C19.2715 21.7032 18.9917 21.8182 18.7 21.8182H3.3C3.00826 21.8182 2.72847 21.7032 2.52218 21.4987C2.31589 21.2941 2.2 21.0166 2.2 20.7273V10.9091H19.8V20.7273ZM19.8 8.72727H2.2V5.45455C2.2 5.16522 2.31589 4.88774 2.52218 4.68316C2.72847 4.47857 3.00826 4.36364 3.3 4.36364H4.4V5.45455C4.4 5.74387 4.51589 6.02135 4.72218 6.22593C4.92847 6.43052 5.20826 6.54545 5.5 6.54545C5.79174 6.54545 6.07153 6.43052 6.27782 6.22593C6.48411 6.02135 6.6 5.74387 6.6 5.45455V4.36364H15.4V5.45455C15.4 5.74387 15.5159 6.02135 15.7222 6.22593C15.9285 6.43052 16.2083 6.54545 16.5 6.54545C16.7917 6.54545 17.0715 6.43052 17.2778 6.22593C17.4841 6.02135 17.6 5.74387 17.6 5.45455V4.36364H18.7C18.9917 4.36364 19.2715 4.47857 19.4778 4.68316C19.6841 4.88774 19.8 5.16522 19.8 5.45455V8.72727ZM5.5 15.2727C5.71756 15.2727 5.93023 15.2087 6.11113 15.0889C6.29202 14.969 6.43301 14.7986 6.51627 14.5993C6.59952 14.4 6.62131 14.1806 6.57886 13.969C6.53642 13.7574 6.43165 13.563 6.27782 13.4104C6.12398 13.2579 5.92798 13.154 5.7146 13.1119C5.50122 13.0698 5.28005 13.0914 5.07905 13.174C4.87805 13.2565 4.70625 13.3963 4.58538 13.5757C4.46451 13.7551 4.4 13.9661 4.4 14.1818C4.4 14.4711 4.51589 14.7486 4.72218 14.9532C4.92847 15.1578 5.20826 15.2727 5.5 15.2727ZM5.5 19.6364C5.71756 19.6364 5.93023 19.5724 6.11113 19.4525C6.29202 19.3326 6.43301 19.1623 6.51627 18.9629C6.59952 18.7636 6.62131 18.5442 6.57886 18.3326C6.53642 18.121 6.43165 17.9266 6.27782 17.7741C6.12398 17.6215 5.92798 17.5176 5.7146 17.4755C5.50122 17.4334 5.28005 17.455 5.07905 17.5376C4.87805 17.6202 4.70625 17.76 4.58538 17.9394C4.46451 18.1188 4.4 18.3297 4.4 18.5455C4.4 18.8348 4.51589 19.1123 4.72218 19.3168C4.92847 19.5214 5.20826 19.6364 5.5 19.6364Z" fill="#444444"/>
</svg>
