<svg width="20" height="20" viewBox="0 0 20 20" fill="none" xmlns="http://www.w3.org/2000/svg">
<rect width="20" height="20" fill="white"/>
<path d="M2.5 12.4997V4.99967C2.5 4.0792 3.24619 3.33301 4.16667 3.33301H15.8333C16.7538 3.33301 17.5 4.0792 17.5 4.99967V12.9163C17.5 13.8368 16.7538 14.583 15.8333 14.583H12.9203C12.6644 14.583 12.4119 14.642 12.1824 14.7553L7.28233 17.1751C6.55417 17.5346 5.79422 16.7465 6.18009 16.0319L6.52368 15.3956C6.8235 14.8404 6.42143 14.1663 5.79043 14.1663H4.16667C3.24619 14.1663 2.5 13.4201 2.5 12.4997Z" stroke="#165F66" stroke-width="1.66667"/>
<path d="M5 10.833H10.4167" stroke="#165F66" stroke-width="1.66667" stroke-linecap="round"/>
<path d="M12.5 10.833L15 10.833" stroke="#165F66" stroke-width="1.66667" stroke-linecap="round"/>
<path d="M5 7.5H15" stroke="#165F66" stroke-width="1.66667" stroke-linecap="round"/>
</svg>
