<svg width="25" height="25" viewBox="0 0 25 25" fill="none" xmlns="http://www.w3.org/2000/svg">
<rect width="24" height="24" transform="translate(0.0812988 0.759277)" fill="white"/>
<circle cx="12.0813" cy="12.7593" r="3" stroke="#165F66" stroke-width="2"/>
<path d="M10.3719 4.57346C11.1508 3.29118 13.0118 3.29118 13.7907 4.57346L14.7683 6.1829C15.1227 6.7665 15.7505 7.12892 16.4331 7.14411L18.3157 7.18601C19.8157 7.21939 20.7462 8.83107 20.0251 10.1467L19.1201 11.7981C18.7919 12.3969 18.7919 13.1217 19.1201 13.7205L20.0251 15.3718C20.7462 16.6875 19.8157 18.2992 18.3157 18.3325L16.4331 18.3744C15.7505 18.3896 15.1227 18.7521 14.7683 19.3357L13.7907 20.9451C13.0118 22.2274 11.1508 22.2274 10.3719 20.9451L9.39434 19.3357C9.03985 18.7521 8.41212 18.3896 7.72947 18.3744L5.84686 18.3325C4.34694 18.2992 3.41644 16.6875 4.13749 15.3718L5.04251 13.7205C5.37067 13.1217 5.37067 12.3969 5.04251 11.7981L4.13749 10.1467C3.41644 8.83107 4.34694 7.21939 5.84686 7.18601L7.72947 7.14411C8.41212 7.12892 9.03985 6.7665 9.39434 6.1829L10.3719 4.57346Z" stroke="#165F66" stroke-width="2" stroke-linejoin="round"/>
</svg>
