<svg width="18" height="18" viewBox="0 0 22 22" fill="none" xmlns="http://www.w3.org/2000/svg">
<g clip-path="url(#clip0_423_37901)">
<path d="M13.1425 15.3346C12.9694 15.3346 12.7912 15.2901 12.6329 15.1911L10.035 13.6324C9.73814 13.4543 9.55505 13.1327 9.55505 12.7863V5.76468C9.55505 5.22037 10.0004 4.77502 10.5447 4.77502C11.089 4.77502 11.5344 5.22037 11.5344 5.76468V12.2222L13.6522 13.4939C14.1223 13.7759 14.2708 14.3846 13.9936 14.8497C13.8056 15.1614 13.479 15.3346 13.1425 15.3346Z" fill="#444444"/>
<path d="M11 22C4.93342 22 0 17.0666 0 11C0 4.93342 4.93342 0 11 0C17.0666 0 22 4.93342 22 11C22 17.0666 17.0666 22 11 22ZM11 1.97931C6.02699 1.97931 1.97931 6.02699 1.97931 11C1.97931 15.973 6.02699 20.0207 11 20.0207C15.973 20.0207 20.0207 15.973 20.0207 11C20.0207 6.02699 15.973 1.97931 11 1.97931Z" fill="#444444"/>
</g>
<defs>
<clipPath id="clip0_423_37901">
<rect width="22" height="22" fill="white"/>
</clipPath>
</defs>
</svg>
