<svg width="24" height="24" viewBox="0 0 24 24" fill="none" xmlns="http://www.w3.org/2000/svg">
<path d="M9.0116 7.58249L11.1866 5.39803V14.5063C11.1866 14.7582 11.2866 14.9998 11.4647 15.1779C11.6429 15.356 11.8844 15.4561 12.1363 15.4561C12.3882 15.4561 12.6298 15.356 12.8079 15.1779C12.986 14.9998 13.0861 14.7582 13.0861 14.5063V5.39803L15.2611 7.58249C15.3494 7.67151 15.4544 7.74217 15.5701 7.79039C15.6859 7.83861 15.81 7.86343 15.9354 7.86343C16.0608 7.86343 16.1849 7.83861 16.3007 7.79039C16.4164 7.74217 16.5214 7.67151 16.6097 7.58249C16.6988 7.4942 16.7694 7.38915 16.8176 7.27342C16.8658 7.15768 16.8907 7.03354 16.8907 6.90816C16.8907 6.78278 16.8658 6.65864 16.8176 6.5429C16.7694 6.42716 16.6988 6.32212 16.6097 6.23382L12.8107 2.43476C12.7203 2.34829 12.6138 2.28051 12.4972 2.23531C12.266 2.14031 12.0067 2.14031 11.7754 2.23531C11.6588 2.28051 11.5523 2.34829 11.462 2.43476L7.66294 6.23382C7.57438 6.32238 7.50414 6.42751 7.45621 6.54321C7.40828 6.65891 7.38362 6.78292 7.38362 6.90816C7.38362 7.03339 7.40828 7.1574 7.45621 7.2731C7.50414 7.38881 7.57438 7.49394 7.66294 7.58249C7.75149 7.67105 7.85662 7.74129 7.97232 7.78922C8.08803 7.83714 8.21203 7.86181 8.33727 7.86181C8.4625 7.86181 8.58651 7.83714 8.70222 7.78922C8.81792 7.74129 8.92305 7.67105 9.0116 7.58249ZM20.6842 11.657C20.4323 11.657 20.1908 11.7571 20.0126 11.9352C19.8345 12.1133 19.7345 12.3549 19.7345 12.6068V18.3054C19.7345 18.5572 19.6344 18.7988 19.4563 18.9769C19.2782 19.1551 19.0366 19.2551 18.7847 19.2551H5.48797C5.23608 19.2551 4.9945 19.1551 4.81638 18.9769C4.63827 18.7988 4.5382 18.5572 4.5382 18.3054V12.6068C4.5382 12.3549 4.43814 12.1133 4.26002 11.9352C4.08191 11.7571 3.84033 11.657 3.58844 11.657C3.33654 11.657 3.09497 11.7571 2.91685 11.9352C2.73874 12.1133 2.63867 12.3549 2.63867 12.6068V18.3054C2.63867 19.061 2.93887 19.7858 3.47321 20.3201C4.00756 20.8545 4.73229 21.1547 5.48797 21.1547H18.7847C19.5404 21.1547 20.2651 20.8545 20.7995 20.3201C21.3338 19.7858 21.634 19.061 21.634 18.3054V12.6068C21.634 12.3549 21.5339 12.1133 21.3558 11.9352C21.1777 11.7571 20.9361 11.657 20.6842 11.657Z" fill="#EB008B"/>
</svg>
