<svg width="13" height="14" viewBox="0 0 13 14" fill="none" xmlns="http://www.w3.org/2000/svg">
<path d="M0.90625 10.4695C0.90625 9.79446 1.39234 8.87856 2.38443 8.09273C3.35125 7.32692 4.68982 6.7804 6.15625 6.7804C7.62268 6.7804 8.96125 7.32692 9.92807 8.09273C10.9202 8.87856 11.4062 9.79446 11.4062 10.4695C11.4062 11.0643 11.0138 11.6584 10.0548 12.1442C9.1026 12.6266 7.72784 12.9168 6.15625 12.9168C4.58466 12.9168 3.2099 12.6266 2.25769 12.1442C1.2987 11.6584 0.90625 11.0643 0.90625 10.4695Z" stroke="#EB008B" stroke-width="1.5"/>
<path d="M8.07296 3.00004C8.07296 4.05859 7.21484 4.91671 6.15629 4.91671C5.09774 4.91671 4.23962 4.05859 4.23962 3.00004C4.23962 1.94149 5.09774 1.08337 6.15629 1.08337C7.21484 1.08337 8.07296 1.94149 8.07296 3.00004Z" stroke="#EB008B" stroke-width="1.5"/>
</svg>
