<svg width="50" height="29" viewBox="0 0 32 11" fill="none" xmlns="http://www.w3.org/2000/svg">
<path d="M5.106 10.652C5.78867 10.652 6.44867 10.5487 7.08733 10.3427C7.72533 10.1373 8.22267 9.86267 8.57867 9.51933L7.88133 7.606C6.862 8.20467 5.96133 8.504 5.18 8.504C4.38867 8.504 3.79 8.26133 3.384 7.77533C2.97867 7.29 2.77533 6.582 2.77533 5.64933C2.77533 4.56067 3.03267 3.70733 3.54733 3.08933C4.062 2.472 4.794 2.16267 5.744 2.16267C6.17933 2.16267 6.59733 2.236 6.998 2.38333C7.39867 2.53 7.812 2.76133 8.238 3.07467L9.23133 1.148C8.75667 0.784667 8.21 0.505333 7.59133 0.308667C6.97333 0.113333 6.31333 0.0153333 5.61133 0.0153333C4.49267 0.0153333 3.51133 0.245333 2.66467 0.706C1.81867 1.16733 1.16333 1.82467 0.698 2.678C0.233333 3.53133 0 4.522 0 5.64933C0 6.66933 0.205333 7.55467 0.616 8.30533C1.02667 9.05533 1.61533 9.634 2.38267 10.0413C3.14933 10.448 4.05667 10.652 5.106 10.652ZM15.2433 10.6667C16.292 10.6667 17.2167 10.4313 18.0187 9.96C18.82 9.48933 19.4407 8.82733 19.8813 7.974C20.3213 7.12067 20.5413 6.13533 20.5413 5.01733C20.5413 3.99733 20.3313 3.10933 19.9107 2.354C19.4907 1.59867 18.8893 1.01733 18.1073 0.610667C17.3267 0.204 16.4107 0 15.362 0C14.3033 0 13.3727 0.233333 12.5713 0.698667C11.77 1.16533 11.1513 1.82667 10.716 2.68533C10.2807 3.54333 10.0627 4.532 10.0627 5.64933C10.0627 6.67933 10.2733 7.56933 10.694 8.32C11.114 9.07067 11.7153 9.64933 12.4973 10.056C13.2787 10.4627 14.194 10.6667 15.2433 10.6667ZM15.2133 8.57733C14.4313 8.57733 13.8307 8.32467 13.41 7.82C12.99 7.31467 12.7793 6.59133 12.7793 5.64933C12.7793 4.54133 13.012 3.67067 13.4767 3.038C13.942 2.40533 14.58 2.08933 15.3913 2.08933C16.1533 2.08933 16.7473 2.344 17.1727 2.854C17.598 3.364 17.8107 4.08533 17.8107 5.01733C17.8107 6.13533 17.578 7.008 17.1133 7.636C16.648 8.26333 16.0147 8.57733 15.2133 8.57733ZM26.1373 10.5193C27.364 10.5193 28.4153 10.304 29.2907 9.87267C30.1667 9.44067 30.8373 8.81267 31.3027 7.98867C31.7667 7.16533 32 6.17467 32 5.01733C32 4.02667 31.7867 3.166 31.362 2.43467C30.936 1.704 30.3353 1.14 29.5587 0.742667C28.782 0.346667 27.8687 0.147333 26.82 0.147333H22.56L21.744 10.5193H26.1373ZM25.8847 8.342H24.638L25.1133 2.32467H26.4487C27.3687 2.32467 28.072 2.55267 28.5567 3.00867C29.0413 3.46467 29.2833 4.12933 29.2833 5.002C29.2833 6.16 29.0067 7.006 28.4527 7.54C27.8987 8.07467 27.0427 8.342 25.8847 8.342Z" fill="#383838"/>
</svg>
