<svg width="25" height="25" viewBox="0 0 25 25" fill="none" xmlns="http://www.w3.org/2000/svg">
<rect width="24" height="24" transform="translate(0.0820312 0.758789)" fill="white"/>
<circle cx="12.082" cy="12.7588" r="3" stroke="#165F66" stroke-width="2"/>
<path d="M10.3727 4.57297C11.1515 3.2907 13.0125 3.2907 13.7914 4.57297L14.769 6.18241C15.1235 6.76601 15.7512 7.12843 16.4339 7.14362L18.3165 7.18552C19.8164 7.21891 20.7469 8.83058 20.0258 10.1462L19.1208 11.7976C18.7927 12.3964 18.7927 13.1212 19.1208 13.72L20.0258 15.3713C20.7469 16.687 19.8164 18.2987 18.3165 18.3321L16.4339 18.374C15.7512 18.3891 15.1235 18.7516 14.769 19.3352L13.7914 20.9446C13.0125 22.2269 11.1515 22.2269 10.3727 20.9446L9.39507 19.3352C9.04058 18.7516 8.41285 18.3891 7.7302 18.374L5.84759 18.3321C4.34767 18.2987 3.41717 16.687 4.13822 15.3713L5.04324 13.72C5.37141 13.1212 5.37141 12.3964 5.04324 11.7976L4.13822 10.1462C3.41717 8.83058 4.34767 7.21891 5.84759 7.18552L7.7302 7.14362C8.41286 7.12843 9.04058 6.76601 9.39507 6.18241L10.3727 4.57297Z" stroke="#165F66" stroke-width="2" stroke-linejoin="round"/>
</svg>
