<svg width="32" height="11" viewBox="0 0 32 11" fill="none" xmlns="http://www.w3.org/2000/svg">
<path d="M8.88418 9.34923C7.91084 10.311 6.58084 10.8476 5.19618 10.8371C3.80551 10.8515 2.46818 10.3149 1.48951 9.34923C0.524843 8.3777 -0.0104903 7.07472 0.00017635 5.72095C-0.011157 4.36719 0.524176 3.06421 1.48951 2.09333C2.46818 1.12765 3.80551 0.590446 5.19618 0.604772C6.58084 0.594353 7.91084 1.13091 8.88418 2.09333C9.84951 3.06356 10.3848 4.36719 10.3735 5.72095C10.3842 7.07472 9.84884 8.3777 8.88418 9.34923ZM5.19618 2.27826C3.33351 2.27891 1.92418 3.76747 1.92418 5.73984C1.92418 7.71156 3.33351 9.163 5.19618 9.163C7.05951 9.163 8.44951 7.67444 8.44951 5.70598C8.44951 3.73751 7.04018 2.2457 5.19618 2.2457V2.27826ZM20.9528 1.799L17.0062 10.8339H16.6515C15.9648 10.83 15.3462 10.4282 15.0782 9.81025L11.8335 2.51333H10.8202V0.876306H14.9608V2.51333H13.9475L16.3515 8.06905L18.6668 2.51268H17.6535V0.876306H20.9528V1.799ZM30.4995 9.34923C28.4548 11.334 25.1528 11.334 23.1088 9.34923C22.1422 8.37835 21.6062 7.07472 21.6155 5.72095C21.6055 4.36654 22.1422 3.06421 23.1088 2.09333C25.1535 0.108586 28.4548 0.108586 30.4995 2.09333C31.4688 3.06226 32.0082 4.36589 32.0002 5.72095C32.0108 7.07472 31.4755 8.3777 30.5108 9.34923H30.4995ZM26.8268 2.27826C24.9602 2.27826 23.5542 3.76682 23.5542 5.73919C23.5542 7.71091 24.9488 9.16235 26.8155 9.16235C28.6822 9.16235 30.0648 7.67379 30.0648 5.70533C30.0648 3.73686 28.6555 2.2457 26.8155 2.2457" fill="#3C2B7D"/>
</svg>
