<svg width="32" height="11" viewBox="0 0 32 11" fill="none" xmlns="http://www.w3.org/2000/svg">
<path d="M8.88393 9.34899C7.9106 10.3108 6.5806 10.8473 5.19593 10.8369C3.80527 10.8512 2.46793 10.3147 1.48927 9.34899C0.524599 8.37745 -0.0107345 7.07448 -6.77909e-05 5.72071C-0.0114011 4.36694 0.523932 3.06397 1.48927 2.09308C2.46793 1.12741 3.80527 0.590202 5.19593 0.604527C6.5806 0.594109 7.9106 1.13067 8.88393 2.09308C9.84927 3.06332 10.3846 4.36694 10.3733 5.72071C10.3839 7.07448 9.8486 8.37745 8.88393 9.34899ZM5.19593 2.27801C3.33327 2.27867 1.92393 3.76722 1.92393 5.73959C1.92393 7.71131 3.33327 9.16275 5.19593 9.16275C7.05927 9.16275 8.44927 7.6742 8.44927 5.70573C8.44927 3.73727 7.03993 2.24546 5.19593 2.24546V2.27801ZM20.9526 1.79876L17.0059 10.8336H16.6513C15.9646 10.8297 15.3459 10.428 15.0779 9.81001L11.8333 2.51308H10.8199V0.876062H14.9606V2.51308H13.9473L16.3513 8.0688L18.6666 2.51243H17.6533V0.876062H20.9526V1.79876ZM30.4993 9.34899C28.4546 11.3337 25.1526 11.3337 23.1086 9.34899C22.1419 8.3781 21.6059 7.07448 21.6153 5.72071C21.6053 4.36629 22.1419 3.06397 23.1086 2.09308C25.1533 0.108342 28.4546 0.108342 30.4993 2.09308C31.4686 3.06201 32.0079 4.36564 31.9999 5.72071C32.0106 7.07448 31.4753 8.37745 30.5106 9.34899H30.4993ZM26.8266 2.27801C24.9599 2.27801 23.5539 3.76657 23.5539 5.73894C23.5539 7.71066 24.9486 9.1621 26.8153 9.1621C28.6819 9.1621 30.0646 7.67355 30.0646 5.70508C30.0646 3.73662 28.6553 2.24546 26.8153 2.24546" fill="#3C2B7D"/>
</svg>
