<svg width="24" height="24" viewBox="0 0 24 24" fill="none" xmlns="http://www.w3.org/2000/svg">
<path fill-rule="evenodd" clip-rule="evenodd" d="M18.8255 3.13623C19.6729 3.13623 20.4284 3.67032 20.711 4.46925L22.2552 8.8346C22.662 9.98475 21.9554 11.1849 20.8328 11.4484C20.8332 11.4656 20.8334 11.4829 20.8334 11.5002V19.5002C20.8334 20.6047 19.938 21.5002 18.8334 21.5002H4.83345C3.72888 21.5002 2.83345 20.6047 2.83345 19.5002V11.5002C2.83345 11.4472 2.83551 11.3947 2.83955 11.3427C1.91712 10.9494 1.38077 9.88728 1.73182 8.85669L3.21883 4.49134C3.49485 3.68103 4.25597 3.13623 5.112 3.13623H18.8255ZM18.8334 11.5016H16.8334V19.5002H18.8334V11.5016ZM14.8334 19.5002V11.5016H4.83345V19.5002H14.8334ZM4.75726 9.50158H3.625L5.112 5.13623L18.8255 5.13623L20.3697 9.50158H18.9096C18.8843 9.50063 18.8589 9.50015 18.8334 9.50015H4.83345C4.80794 9.50015 4.78254 9.50063 4.75726 9.50158ZM9.10242 16.7967C8.81921 16.8439 8.55221 16.9191 8.29207 17.0067L8.25003 16.845C8.0521 16.0905 7.41024 13.5569 7.41024 13.5569C7.41024 13.5569 8.40954 15.0749 8.9986 15.03C9.61144 14.9823 10.1217 13.5282 10.1217 13.5282C10.1217 13.5282 10.6513 14.9862 11.2902 15.0193C11.9501 15.0553 12.8334 13.5002 12.8334 13.5002L12.2002 16.8029C12.1856 16.8752 12.1733 16.9375 12.1627 16.9914L12.138 17.1156C11.2691 16.7142 10.2647 16.6008 9.10242 16.7967Z" fill="white"/>
</svg>
