<svg width="24" height="24" viewBox="0 0 24 24" fill="none" xmlns="http://www.w3.org/2000/svg">
<path fill-rule="evenodd" clip-rule="evenodd" d="M22 8C22 5.23858 19.7614 3 17 3H7C4.23858 3 2 5.23858 2 8V16C2 18.7614 4.23858 21 7 21H17C19.7614 21 22 18.7614 22 16V8ZM17 5C18.6569 5 20 6.34315 20 8V9H4V8C4 6.34315 5.34315 5 7 5H17ZM20 16V11H4V16C4 17.6569 5.34315 19 7 19H17C18.6569 19 20 17.6569 20 16ZM17 6C17.5523 6 18 6.44772 18 7C18 7.55228 17.5523 8 17 8H15C14.4477 8 14 7.55228 14 7C14 6.44772 14.4477 6 15 6H17Z" fill="white"/>
</svg>
