<svg width="280" height="120" viewBox="0 0 280 120" fill="none" xmlns="http://www.w3.org/2000/svg">
<path d="M101.286 41.0703C100.762 41.2117 100.235 41.3862 99.7116 41.612C97.555 42.556 95.9701 43.8197 94.8938 45.3887C94.7941 45.2876 94.6628 45.1446 94.4839 44.9607L90.1852 40.4463C90.1852 40.4463 93.1947 41.9399 94.2756 41.1735C95.3239 40.4327 94.7961 37.5659 94.7961 37.5659C94.7961 37.5659 97.0809 39.3052 98.1592 38.7242C99.1983 38.1579 99.4071 34.6934 99.4071 34.6934C99.4071 34.6934 100.798 39.3728 101.198 40.7743L101.286 41.0703Z" fill="#EB008B"/>
<path d="M114.055 52.0439C114.009 49.1902 113.004 46.8185 111.094 44.8864C109.281 43.1895 106.895 42.3203 103.841 42.3203C100.641 42.3203 97.9653 43.5761 95.8677 46.0437C94.3396 47.9307 93.526 50.304 93.526 53.3017C93.526 56.0114 94.3893 58.4711 96.1556 60.2104C98.5257 62.4275 100.699 62.9787 104.232 63.029C106.429 63.029 109.404 62.4715 111.455 61.2629C111.266 60.1507 110.748 59.0756 110.272 58.4464C108.506 59.2695 106.209 59.8374 104.49 59.8374C100.669 59.8374 98.4156 58.6733 97.4412 55.2391C102.495 55.3224 108.824 54.8797 113.817 53.5941C113.964 53.5553 114.055 53.0126 114.055 52.0439ZM97.605 52.4462C97.605 51.4953 98.0175 48.966 98.3639 48.1136C98.7082 47.2633 99.3786 46.2674 100.169 46.1877C102.637 45.9352 102.931 50.5859 103.082 52.1869C100.945 52.3734 99.2525 52.519 97.605 52.4462ZM105.636 51.9663C105.592 51.0176 105.475 48.4033 105.705 47.224C105.884 46.3187 106.352 45.811 107.138 45.6921C109.592 45.3243 110.62 49.5386 110.843 51.1333C109.246 51.5734 107.355 51.9145 105.636 51.9663Z" fill="white"/>
<path d="M116.97 35.8057H126.351C128.07 35.8057 129.802 36.0336 131.546 36.4878C133.29 36.9425 134.86 37.6943 136.255 38.7416C137.651 39.7899 138.785 41.1662 139.657 42.871C140.529 44.5757 140.965 46.6907 140.965 49.2154C140.965 51.564 140.528 53.5847 139.657 55.2764C138.784 56.968 137.651 58.3574 136.255 59.4429C134.86 60.529 133.29 61.331 131.546 61.8481C129.802 62.3663 128.07 62.6245 126.351 62.6245H116.97V35.8057ZM125.604 58.4585C126.824 58.4585 128.046 58.3134 129.266 58.0226C130.487 57.7329 131.59 57.2404 132.574 56.5458C133.558 55.8516 134.362 54.9112 134.985 53.7235C135.607 52.5369 135.919 51.0338 135.919 49.2159C135.919 47.2974 135.607 45.7314 134.985 44.5186C134.362 43.3068 133.558 42.3596 132.574 41.678C131.59 40.9959 130.487 40.5291 129.266 40.2761C128.046 40.0241 126.824 39.8973 125.604 39.8973H121.679V58.4585H125.604Z" fill="white"/>
<path d="M142.012 49.1399C142.012 46.9935 142.367 45.0556 143.077 43.3251C143.787 41.5957 144.771 40.1246 146.03 38.9123C147.288 37.7 148.782 36.7659 150.515 36.109C152.247 35.4525 154.134 35.124 156.178 35.124C158.245 35.124 160.152 35.4525 161.896 36.109C163.64 36.7659 165.148 37.6995 166.418 38.9123C167.689 40.1241 168.68 41.5957 169.39 43.3251C170.1 45.0556 170.456 46.9935 170.456 49.1399C170.456 51.2365 170.1 53.1493 169.39 54.8787C168.68 56.6091 167.689 58.0985 166.418 59.3486C165.148 60.5986 163.64 61.5709 161.896 62.2651C160.152 62.9593 158.245 63.3066 156.178 63.3066C154.134 63.3066 152.247 62.9593 150.515 62.2651C148.782 61.5709 147.288 60.5981 146.03 59.3486C144.771 58.0985 143.787 56.6091 143.077 54.8787C142.366 53.1493 142.012 51.2365 142.012 49.1399ZM147.132 49.1399C147.132 50.5795 147.351 51.8998 147.786 53.0985C148.222 54.2982 148.845 55.3397 149.656 56.224C150.464 57.1084 151.424 57.7957 152.533 58.2882C153.642 58.7801 154.869 59.0269 156.214 59.0269C157.56 59.0269 158.792 58.7801 159.914 58.2882C161.036 57.7957 162.001 57.1078 162.811 56.224C163.62 55.3397 164.244 54.2982 164.68 53.0985C165.116 51.8998 165.334 50.5795 165.334 49.1399C165.334 47.7515 165.116 46.4638 164.68 45.2761C164.243 44.0895 163.627 43.0543 162.83 42.1699C162.031 41.2861 161.073 40.592 159.952 40.0864C158.831 39.5814 157.585 39.3288 156.215 39.3288C154.844 39.3288 153.603 39.5814 152.496 40.0864C151.387 40.592 150.434 41.2861 149.637 42.1699C148.839 43.0543 148.223 44.0895 147.787 45.2761C147.351 46.4633 147.132 47.751 147.132 49.1399Z" fill="white"/>
<path d="M176.995 39.9732H168.885V35.8062H189.815V39.9732H181.705V62.625H176.995V39.9732H176.995Z" fill="white"/>
<path d="M114.414 76.9352C114.414 76.2641 114.551 75.6699 114.826 75.1525C115.109 74.635 115.489 74.2348 115.966 73.9518C116.451 73.6608 116.985 73.5152 117.567 73.5152C118.092 73.5152 118.549 73.6203 118.937 73.8306C119.333 74.0327 119.649 74.2874 119.883 74.5946V73.6244H121.278V80.3066H119.883V79.3122C119.649 79.6275 119.329 79.8903 118.925 80.1005C118.521 80.3107 118.06 80.4158 117.543 80.4158C116.969 80.4158 116.443 80.2703 115.966 79.9792C115.489 79.6801 115.109 79.2677 114.826 78.7422C114.551 78.2086 114.414 77.6062 114.414 76.9352ZM119.883 76.9594C119.883 76.4986 119.786 76.0984 119.592 75.7588C119.406 75.4193 119.16 75.1605 118.852 74.9827C118.545 74.8048 118.214 74.7159 117.858 74.7159C117.502 74.7159 117.171 74.8048 116.863 74.9827C116.556 75.1525 116.306 75.4071 116.112 75.7467C115.926 76.0782 115.833 76.4743 115.833 76.9352C115.833 77.396 115.926 77.8003 116.112 78.1479C116.306 78.4956 116.556 78.7624 116.863 78.9484C117.179 79.1262 117.51 79.2152 117.858 79.2152C118.214 79.2152 118.545 79.1262 118.852 78.9484C119.16 78.7705 119.406 78.5118 119.592 78.1722C119.786 77.8245 119.883 77.4203 119.883 76.9594ZM126.283 74.7522V78.4511C126.283 78.7018 126.34 78.8837 126.453 78.9969C126.574 79.102 126.776 79.1545 127.059 79.1545H127.908V80.3066H126.817C126.194 80.3066 125.717 80.1611 125.386 79.8701C125.054 79.579 124.889 79.106 124.889 78.4511V74.7522H124.1V73.6244H124.889V71.9629H126.283V73.6244H127.908V74.7522H126.283ZM134.216 73.5152C134.725 73.5152 135.178 73.6244 135.574 73.8427C135.978 74.061 136.293 74.3844 136.52 74.8129C136.754 75.2414 136.871 75.7588 136.871 76.3652V80.3066H135.501V76.5714C135.501 75.9731 135.351 75.5163 135.052 75.201C134.753 74.8776 134.345 74.7159 133.827 74.7159C133.31 74.7159 132.898 74.8776 132.59 75.201C132.291 75.5163 132.142 75.9731 132.142 76.5714V80.3066H130.759V71.3323H132.142V74.4005C132.376 74.1176 132.671 73.8993 133.027 73.7457C133.391 73.592 133.787 73.5152 134.216 73.5152ZM146.336 76.8018C146.336 77.0524 146.32 77.2788 146.287 77.4809H141.182C141.222 78.0145 141.42 78.443 141.776 78.7664C142.132 79.0898 142.568 79.2515 143.086 79.2515C143.83 79.2515 144.355 78.9403 144.662 78.3177H146.154C145.952 78.9322 145.584 79.4375 145.05 79.8337C144.525 80.2217 143.87 80.4158 143.086 80.4158C142.447 80.4158 141.873 80.2743 141.364 79.9913C140.862 79.7003 140.466 79.296 140.175 78.7786C139.892 78.2531 139.751 77.6467 139.751 76.9594C139.751 76.2722 139.888 75.6699 140.163 75.1525C140.446 74.6269 140.838 74.2227 141.339 73.9397C141.849 73.6567 142.431 73.5152 143.086 73.5152C143.716 73.5152 144.278 73.6527 144.771 73.9276C145.265 74.2025 145.649 74.5905 145.924 75.0918C146.198 75.585 146.336 76.155 146.336 76.8018ZM144.893 76.3652C144.885 75.8558 144.703 75.4476 144.347 75.1403C143.991 74.8331 143.551 74.6795 143.025 74.6795C142.548 74.6795 142.14 74.8331 141.8 75.1403C141.461 75.4395 141.259 75.8478 141.194 76.3652H144.893ZM152.644 73.5152C153.17 73.5152 153.639 73.6244 154.051 73.8427C154.472 74.061 154.799 74.3844 155.034 74.8129C155.268 75.2414 155.385 75.7588 155.385 76.3652V80.3066H154.015V76.5714C154.015 75.9731 153.865 75.5163 153.566 75.201C153.267 74.8776 152.859 74.7159 152.341 74.7159C151.824 74.7159 151.412 74.8776 151.104 75.201C150.805 75.5163 150.656 75.9731 150.656 76.5714V80.3066H149.273V73.6244H150.656V74.3884C150.882 74.1135 151.169 73.8993 151.517 73.7457C151.872 73.592 152.248 73.5152 152.644 73.5152ZM158.265 76.9352C158.265 76.2641 158.402 75.6699 158.677 75.1525C158.96 74.635 159.34 74.2348 159.817 73.9518C160.302 73.6608 160.836 73.5152 161.418 73.5152C161.943 73.5152 162.4 73.6203 162.788 73.8306C163.184 74.0327 163.5 74.2874 163.734 74.5946V73.6244H165.129V80.3066H163.734V79.3122C163.5 79.6275 163.18 79.8903 162.776 80.1005C162.372 80.3107 161.911 80.4158 161.393 80.4158C160.819 80.4158 160.294 80.2703 159.817 79.9792C159.34 79.6801 158.96 79.2677 158.677 78.7422C158.402 78.2086 158.265 77.6062 158.265 76.9352ZM163.734 76.9594C163.734 76.4986 163.637 76.0984 163.443 75.7588C163.257 75.4193 163.01 75.1605 162.703 74.9827C162.396 74.8048 162.064 74.7159 161.709 74.7159C161.353 74.7159 161.022 74.8048 160.714 74.9827C160.407 75.1525 160.156 75.4071 159.962 75.7467C159.776 76.0782 159.683 76.4743 159.683 76.9352C159.683 77.396 159.776 77.8003 159.962 78.1479C160.156 78.4956 160.407 78.7624 160.714 78.9484C161.03 79.1262 161.361 79.2152 161.709 79.2152C162.064 79.2152 162.396 79.1262 162.703 78.9484C163.01 78.7705 163.257 78.5118 163.443 78.1722C163.637 77.8245 163.734 77.4203 163.734 76.9594Z" fill="white"/>
</svg>
