<svg width="24" height="24" viewBox="0 0 24 24" fill="none" xmlns="http://www.w3.org/2000/svg">
<path d="M15 20L15 15L9 15L9 20" stroke="white" stroke-width="2" stroke-linejoin="round"/>
<path d="M16 17H21V20" stroke="white" stroke-width="2" stroke-linejoin="round"/>
<path d="M8 17H3V20" stroke="white" stroke-width="2" stroke-linejoin="round"/>
<path d="M11.2774 3.77828C11.6263 3.25229 12.3737 3.25229 12.7226 3.77828L13.5329 4.99965C13.6466 5.17091 13.813 5.29667 14.0048 5.35611L15.3724 5.77995C15.9613 5.96247 16.1923 6.7015 15.819 7.2091L14.9522 8.38779C14.8307 8.55307 14.7671 8.75656 14.772 8.96455L14.8069 10.4479C14.8219 11.0867 14.2173 11.5434 13.6376 11.3311L12.2916 10.8382C12.1029 10.7691 11.8971 10.7691 11.7084 10.8382L10.3624 11.3311C9.78271 11.5434 9.17808 11.0867 9.19312 10.4479L9.22804 8.96455C9.23293 8.75656 9.16934 8.55307 9.0478 8.38779L8.181 7.2091C7.80772 6.7015 8.03866 5.96247 8.62761 5.77995L9.9952 5.35611C10.187 5.29667 10.3534 5.17091 10.4671 4.99965L11.2774 3.77828Z" stroke="white" stroke-width="2"/>
</svg>
