<svg width="24" height="24" viewBox="0 0 24 24" fill="none" xmlns="http://www.w3.org/2000/svg">
<path fill-rule="evenodd" clip-rule="evenodd" d="M9.45561 3.1868C10.6304 1.30557 13.3699 1.30558 14.5447 3.1868L15.5847 4.85209C15.7609 5.13422 16.0658 5.31028 16.3983 5.3218L18.3604 5.38979C20.5771 5.46661 21.9468 7.83908 20.905 9.79712L19.9828 11.5304C19.8266 11.8241 19.8266 12.1762 19.9828 12.4698L20.905 14.2031C21.9468 16.1611 20.577 18.5336 18.3604 18.6104L16.3983 18.6784C16.0658 18.6899 15.7609 18.866 15.5847 19.1481L14.5447 20.8134C13.3699 22.6947 10.6304 22.6946 9.45561 20.8134L8.41564 19.1481C8.23945 18.866 7.93451 18.6899 7.60208 18.6784L5.63991 18.6104C3.4233 18.5336 2.05357 16.1611 3.09534 14.2031L4.01754 12.4698C4.17377 12.1762 4.17377 11.8241 4.01754 11.5304L3.09534 9.79711C2.05356 7.83907 3.42331 5.46661 5.63991 5.38979L7.60208 5.3218C7.93451 5.31028 8.23945 5.13422 8.41564 4.85209L9.45561 3.1868ZM12.8484 4.24619C12.4568 3.61911 11.5436 3.61911 11.152 4.24618L10.112 5.91148C9.58345 6.75786 8.66863 7.28604 7.67135 7.3206L5.70918 7.38859C4.97031 7.4142 4.51373 8.20502 4.86098 8.8577L5.78318 10.591C6.25189 11.4719 6.25189 12.5283 5.78318 13.4092L4.86099 15.1425C4.51373 15.7952 4.97031 16.586 5.70918 16.6116L7.67135 16.6796C8.66862 16.7142 9.58344 17.2424 10.112 18.0887L11.152 19.754C11.5436 20.3811 12.4568 20.3811 12.8484 19.754L13.8883 18.0887C14.4169 17.2424 15.3317 16.7142 16.329 16.6796L18.2912 16.6116C19.03 16.586 19.4866 15.7952 19.1394 15.1425L18.2172 13.4092C17.7485 12.5283 17.7485 11.4719 18.2172 10.591L19.1394 8.8577C19.4866 8.20502 19.03 7.4142 18.2912 7.38859L16.329 7.3206C15.3317 7.28604 14.4169 6.75787 13.8883 5.91148L12.8484 4.24619ZM14.0002 12.0001C14.0002 10.8955 13.1047 10.0001 12.0002 10.0001C10.8956 10.0001 10.0002 10.8955 10.0002 12.0001C10.0002 13.1047 10.8956 14.0001 12.0002 14.0001C13.1047 14.0001 14.0002 13.1047 14.0002 12.0001ZM12.0002 8.00011C14.2093 8.00011 16.0002 9.79097 16.0002 12.0001C16.0002 14.2092 14.2093 16.0001 12.0002 16.0001C9.79104 16.0001 8.00018 14.2092 8.00018 12.0001C8.00018 9.79097 9.79104 8.00011 12.0002 8.00011Z" fill="white"/>
</svg>
