<svg width="24" height="24" viewBox="0 0 24 24" fill="none" xmlns="http://www.w3.org/2000/svg">
<path fill-rule="evenodd" clip-rule="evenodd" d="M18 19.0001L18 4.70101L16.6887 5.63312C16.2919 5.91517 15.764 5.92954 15.3524 5.66948L13 4.18302L10.6439 5.67179C10.2434 5.92484 9.73156 5.91861 9.33737 5.65587L8 4.7645V20.0001H17C17.5523 20.0001 18 19.5524 18 19.0001ZM18.1048 2.17276C18.8993 1.608 20 2.17605 20 3.15084V19.0001C20 20.657 18.6569 22.0001 17 22.0001H7H6C4.34315 22.0001 3 20.657 3 19.0001V14.0001C3 13.4478 3.44772 13.0001 4 13.0001C4.55229 13.0001 5 13.4478 5 14.0001V19.0001C5 19.5524 5.44772 20.0001 6 20.0001V3.26988C6 2.31151 7.06806 1.73982 7.86553 2.27135L10.0145 3.70367L12.359 2.22224C12.7505 1.97484 13.2495 1.97484 13.641 2.22224L15.9672 3.69215L18.1048 2.17276ZM15 8.00011C15.5523 8.00011 16 8.44782 16 9.00011C16 9.55239 15.5523 10.0001 15 10.0001H11C10.4477 10.0001 10 9.55239 10 9.00011C10 8.44782 10.4477 8.00011 11 8.00011H15ZM16 13.0001C16 12.4478 15.5523 12.0001 15 12.0001H11C10.4477 12.0001 10 12.4478 10 13.0001C10 13.5524 10.4477 14.0001 11 14.0001H15C15.5523 14.0001 16 13.5524 16 13.0001ZM16 17.0001C16 16.4478 15.5523 16.0001 15 16.0001H11C10.4477 16.0001 10 16.4478 10 17.0001C10 17.5524 10.4477 18.0001 11 18.0001H15C15.5523 18.0001 16 17.5524 16 17.0001Z" fill="white"/>
</svg>
