<svg width="18" height="18" viewBox="0 0 18 18" fill="none" xmlns="http://www.w3.org/2000/svg">
<path d="M3.16699 14.0003H6.70033C6.81 14.0009 6.91872 13.9799 7.02025 13.9384C7.12178 13.8969 7.21413 13.8358 7.29199 13.7586L13.0587 7.98361L15.4253 5.66694C15.5034 5.58947 15.5654 5.4973 15.6077 5.39576C15.65 5.29421 15.6718 5.18528 15.6718 5.07527C15.6718 4.96526 15.65 4.85634 15.6077 4.75479C15.5654 4.65324 15.5034 4.56108 15.4253 4.48361L11.892 0.908608C11.8145 0.830501 11.7224 0.768506 11.6208 0.726198C11.5193 0.683891 11.4103 0.662109 11.3003 0.662109C11.1903 0.662109 11.0814 0.683891 10.9798 0.726198C10.8783 0.768506 10.7861 0.830501 10.7087 0.908608L8.35866 3.26694L2.57533 9.04194C2.49809 9.11981 2.43699 9.21216 2.39552 9.31369C2.35405 9.41522 2.33302 9.52394 2.33366 9.63361V13.1669C2.33366 13.388 2.42146 13.5999 2.57774 13.7562C2.73402 13.9125 2.94598 14.0003 3.16699 14.0003ZM11.3003 2.67527L13.6587 5.03361L12.4753 6.21694L10.117 3.85861L11.3003 2.67527ZM4.00033 9.97528L8.94199 5.03361L11.3003 7.39194L6.35866 12.3336H4.00033V9.97528ZM16.5003 15.6669H1.50033C1.27931 15.6669 1.06735 15.7547 0.91107 15.911C0.75479 16.0673 0.666992 16.2793 0.666992 16.5003C0.666992 16.7213 0.75479 16.9333 0.91107 17.0895C1.06735 17.2458 1.27931 17.3336 1.50033 17.3336H16.5003C16.7213 17.3336 16.9333 17.2458 17.0896 17.0895C17.2459 16.9333 17.3337 16.7213 17.3337 16.5003C17.3337 16.2793 17.2459 16.0673 17.0896 15.911C16.9333 15.7547 16.7213 15.6669 16.5003 15.6669Z" fill="#165F66"/>
</svg>
