<svg width="122" height="56" viewBox="0 0 122 56" fill="none" xmlns="http://www.w3.org/2000/svg">
<path d="M13.6937 7.62401C13.0592 7.79313 12.4197 8.00171 11.7858 8.27167C9.17264 9.40036 7.25223 10.9111 5.94816 12.7871C5.82727 12.6662 5.66818 12.4952 5.45146 12.2753L0.242676 6.87802C0.242676 6.87802 3.88932 8.66377 5.19904 7.74741C6.46929 6.86174 5.82978 3.43431 5.82978 3.43431C5.82978 3.43431 8.59827 5.51382 9.90485 4.81919C11.1638 4.1421 11.4169 0 11.4169 0C11.4169 0 13.1024 5.59462 13.5872 7.27012L13.6937 7.62401Z" fill="#EB008B"/>
<path d="M29.1653 20.7433C29.1102 17.3316 27.8919 14.4961 25.5781 12.1861C23.3809 10.1573 20.4896 9.11816 16.7897 9.11816C12.9119 9.11816 9.66992 10.6195 7.12817 13.5697C5.27666 15.8258 4.29077 18.6632 4.29077 22.2472C4.29077 25.4867 5.33679 28.4275 7.47705 30.507C10.3489 33.1577 12.9827 33.8167 17.2632 33.8768C19.9253 33.8768 23.5299 33.2103 26.0153 31.7653C25.7867 30.4356 25.1591 29.1503 24.5816 28.398C22.442 29.3821 19.6591 30.061 17.5764 30.061C12.9458 30.061 10.2155 28.6693 9.0348 24.5635C15.1581 24.6631 22.8278 24.1338 28.8778 22.5967C29.055 22.5504 29.1653 21.9015 29.1653 20.7433ZM9.23335 21.2244C9.23335 20.0875 9.73318 17.0635 10.1528 16.0444C10.57 15.0278 11.3824 13.8371 12.3407 13.7419C15.3309 13.44 15.6873 19.0002 15.8696 20.9143C13.2809 21.1373 11.2296 21.3114 9.23335 21.2244ZM18.9651 20.6506C18.9106 19.5163 18.7696 16.3908 19.0484 14.9809C19.2645 13.8985 19.8326 13.2916 20.784 13.1494C23.7579 12.7097 25.0038 17.7481 25.2737 19.6547C23.3383 20.1809 21.0471 20.5886 18.9651 20.6506Z" fill="white"/>
<path d="M32.698 1.3291H44.0651C46.1484 1.3291 48.2467 1.60157 50.36 2.14462C52.4733 2.6883 54.375 3.58712 56.0661 4.8392C57.7567 6.09254 59.1309 7.73798 60.1875 9.77615C61.2442 11.8143 61.7722 14.3429 61.7722 17.3613C61.7722 20.1693 61.2436 22.5851 60.1875 24.6076C59.1303 26.6302 57.7567 28.2912 56.0661 29.5891C54.375 30.8875 52.4733 31.8465 50.36 32.4647C48.2467 33.0841 46.1484 33.3929 44.0651 33.3929H32.698V1.3291ZM43.1594 28.4121C44.6382 28.4121 46.1183 28.2386 47.5971 27.891C49.0766 27.5446 50.4126 26.9559 51.6058 26.1253C52.7978 25.2954 53.7724 24.1711 54.5265 22.7511C55.2807 21.3324 55.659 19.5354 55.659 17.362C55.659 15.0682 55.2807 13.1961 54.5265 11.746C53.7724 10.2973 52.7978 9.16482 51.6058 8.34993C50.4126 7.53442 49.0766 6.97633 47.5971 6.6738C46.1183 6.37252 44.6382 6.22095 43.1594 6.22095H38.4041V28.4121H43.1594Z" fill="white"/>
<path d="M63.041 17.2716C63.041 14.7054 63.4713 12.3885 64.3319 10.3196C65.1926 8.25203 66.3845 6.49322 67.9097 5.04383C69.4342 3.59444 71.245 2.47765 73.3446 1.6922C75.4429 0.907374 77.7297 0.514648 80.2057 0.514648C82.7111 0.514648 85.0211 0.907374 87.1351 1.6922C89.2478 2.47765 91.0749 3.59382 92.6138 5.04383C94.1547 6.4926 95.3548 8.25203 96.2154 10.3196C97.0754 12.3885 97.5063 14.7054 97.5063 17.2716C97.5063 19.7782 97.0754 22.0651 96.2154 24.1327C95.3548 26.2015 94.1547 27.9823 92.6138 29.4768C91.0749 30.9712 89.2478 32.1338 87.1351 32.9637C85.0211 33.7936 82.7111 34.2089 80.2057 34.2089C77.7297 34.2089 75.4429 33.7936 73.3446 32.9637C71.245 32.1338 69.4342 30.9706 67.9097 29.4768C66.3845 27.9823 65.1926 26.2015 64.3319 24.1327C63.4707 22.0651 63.041 19.7782 63.041 17.2716ZM69.2451 17.2716C69.2451 18.9928 69.51 20.5712 70.038 22.0043C70.5661 23.4387 71.3208 24.6839 72.303 25.7412C73.2826 26.7985 74.4457 27.6202 75.7893 28.209C77.1328 28.7972 78.6198 29.0922 80.2502 29.0922C81.8806 29.0922 83.3738 28.7972 84.7336 28.209C86.0922 27.6202 87.2616 26.7978 88.2437 25.7412C89.224 24.6839 89.9794 23.4387 90.508 22.0043C91.036 20.5712 91.3004 18.9928 91.3004 17.2716C91.3004 15.6117 91.036 14.0721 90.508 12.6522C89.9787 11.2335 89.2321 9.99581 88.2663 8.93852C87.2986 7.88186 86.1379 7.05193 84.7794 6.4475C83.4208 5.84369 81.9106 5.54179 80.2508 5.54179C78.5903 5.54179 77.0864 5.84369 75.7448 6.4475C74.4006 7.05193 73.2456 7.88186 72.2804 8.93852C71.3133 9.99581 70.5667 11.2335 70.0387 12.6522C69.51 14.0715 69.2451 15.6111 69.2451 17.2716Z" fill="white"/>
<path d="M105.43 6.3131H95.603V1.33105H120.964V6.3131H111.137V33.3949H105.431V6.3131H105.43Z" fill="white"/>
<path d="M5.44135 49.6623C4.66519 49.6623 4.00097 49.4981 3.44871 49.1697C2.89644 48.8413 2.47104 48.3749 2.17252 47.7704C1.88146 47.1659 1.73593 46.4457 1.73593 45.6098C1.73593 44.7814 1.88146 44.065 2.17252 43.4605C2.47104 42.8559 2.89644 42.3895 3.44871 42.0611C4.00097 41.7328 4.66519 41.5686 5.44135 41.5686C5.98615 41.5686 6.48618 41.6544 6.94143 41.826C7.40414 41.9977 7.79595 42.2477 8.11686 42.5761L7.75863 43.3261C7.41533 43.0052 7.0571 42.7739 6.68395 42.6321C6.31826 42.4828 5.91152 42.4082 5.46374 42.4082C4.57563 42.4082 3.89649 42.688 3.42632 43.2478C2.95614 43.8075 2.72106 44.5948 2.72106 45.6098C2.72106 46.6323 2.95614 47.4234 3.42632 47.9831C3.89649 48.5428 4.57563 48.8227 5.46374 48.8227C5.91152 48.8227 6.31826 48.7518 6.68395 48.61C7.0571 48.4607 7.41533 48.2256 7.75863 47.9047L8.11686 48.6548C7.79595 48.9757 7.40414 49.2257 6.94143 49.4048C6.48618 49.5764 5.98615 49.6623 5.44135 49.6623ZM10.974 49.6623C10.6009 49.6623 10.265 49.5914 9.96651 49.4496C9.67545 49.3003 9.44409 49.0988 9.27244 48.8451C9.10079 48.5913 9.01497 48.3077 9.01497 47.9943C9.01497 47.5987 9.11572 47.2853 9.31722 47.0539C9.52619 46.8226 9.86576 46.6584 10.3359 46.5614C10.8136 46.4569 11.4629 46.4046 12.2838 46.4046H12.642V46.0576C12.642 45.5949 12.545 45.2628 12.351 45.0613C12.1644 44.8523 11.8621 44.7478 11.4442 44.7478C11.1158 44.7478 10.7986 44.7963 10.4927 44.8934C10.1867 44.9829 9.87322 45.1322 9.55231 45.3412L9.23886 44.6807C9.52246 44.4792 9.86576 44.3187 10.2688 44.1993C10.6792 44.0799 11.071 44.0202 11.4442 44.0202C12.1457 44.0202 12.6644 44.1918 13.0002 44.5351C13.3436 44.8784 13.5152 45.4121 13.5152 46.136V49.5615H12.6644V48.6212C12.5226 48.9421 12.3025 49.1958 12.0039 49.3824C11.7129 49.569 11.3696 49.6623 10.974 49.6623ZM11.1196 48.9794C11.5673 48.9794 11.933 48.8264 12.2166 48.5204C12.5002 48.207 12.642 47.8114 12.642 47.3338V46.998H12.295C11.6905 46.998 11.2128 47.0278 10.8621 47.0875C10.5188 47.1398 10.2762 47.2368 10.1344 47.3786C10.0001 47.5129 9.93292 47.6995 9.93292 47.9383C9.93292 48.2443 10.0374 48.4943 10.2464 48.6883C10.4628 48.8824 10.7539 48.9794 11.1196 48.9794ZM15.2198 49.5615V44.1209H16.1042V45.0389C16.2684 44.7105 16.496 44.4605 16.7871 44.2889C17.0781 44.1097 17.4177 44.0202 17.8058 44.0202C18.6566 44.0202 19.2014 44.3896 19.4402 45.1285C19.6044 44.7852 19.847 44.5165 20.1679 44.3224C20.4888 44.1209 20.8582 44.0202 21.2761 44.0202C22.4851 44.0202 23.0897 44.7366 23.0897 46.1696V49.5615H22.1829V46.2143C22.1829 45.7143 22.0933 45.3486 21.9142 45.1173C21.7426 44.8784 21.4552 44.759 21.0522 44.759C20.6119 44.759 20.2612 44.9158 19.9999 45.2292C19.7387 45.5427 19.6081 45.9606 19.6081 46.483V49.5615H18.7014V46.2143C18.7014 45.7143 18.6118 45.3486 18.4327 45.1173C18.261 44.8784 17.9737 44.759 17.5707 44.759C17.1229 44.759 16.7684 44.9158 16.5072 45.2292C16.2535 45.5427 16.1266 45.9606 16.1266 46.483V49.5615H15.2198ZM24.785 51.5766V44.1209H25.6694V45.0949C25.8336 44.759 26.0761 44.4978 26.3971 44.3112C26.7254 44.1172 27.106 44.0202 27.5389 44.0202C28.024 44.0202 28.4457 44.1359 28.8039 44.3672C29.1696 44.5911 29.4495 44.9158 29.6435 45.3412C29.845 45.7591 29.9457 46.2591 29.9457 46.8412C29.9457 47.4159 29.845 47.9159 29.6435 48.3413C29.4495 48.7592 29.1696 49.0839 28.8039 49.3152C28.4457 49.5466 28.024 49.6623 27.5389 49.6623C27.121 49.6623 26.7478 49.569 26.4194 49.3824C26.0911 49.1958 25.8485 48.9384 25.6918 48.61V51.5766H24.785ZM27.3486 48.9346C27.8561 48.9346 28.2628 48.7555 28.5688 48.3973C28.8748 48.0316 29.0278 47.5129 29.0278 46.8412C29.0278 46.1621 28.8748 45.6434 28.5688 45.2852C28.2628 44.927 27.8561 44.7478 27.3486 44.7478C26.8411 44.7478 26.4344 44.927 26.1284 45.2852C25.8224 45.6434 25.6694 46.1621 25.6694 46.8412C25.6694 47.5129 25.8224 48.0316 26.1284 48.3973C26.4344 48.7555 26.8411 48.9346 27.3486 48.9346ZM33.0244 49.6623C32.6512 49.6623 32.3154 49.5914 32.0168 49.4496C31.7258 49.3003 31.4944 49.0988 31.3228 48.8451C31.1511 48.5913 31.0653 48.3077 31.0653 47.9943C31.0653 47.5987 31.166 47.2853 31.3675 47.0539C31.5765 46.8226 31.9161 46.6584 32.3863 46.5614C32.8639 46.4569 33.5132 46.4046 34.3341 46.4046H34.6923V46.0576C34.6923 45.5949 34.5953 45.2628 34.4013 45.0613C34.2147 44.8523 33.9125 44.7478 33.4945 44.7478C33.1662 44.7478 32.849 44.7963 32.543 44.8934C32.237 44.9829 31.9235 45.1322 31.6026 45.3412L31.2892 44.6807C31.5728 44.4792 31.9161 44.3187 32.3191 44.1993C32.7296 44.0799 33.1214 44.0202 33.4945 44.0202C34.1961 44.0202 34.7147 44.1918 35.0506 44.5351C35.3939 44.8784 35.5655 45.4121 35.5655 46.136V49.5615H34.7147V48.6212C34.5729 48.9421 34.3528 49.1958 34.0543 49.3824C33.7632 49.569 33.4199 49.6623 33.0244 49.6623ZM33.1699 48.9794C33.6177 48.9794 33.9834 48.8264 34.267 48.5204C34.5506 48.207 34.6923 47.8114 34.6923 47.3338V46.998H34.3453C33.7408 46.998 33.2632 47.0278 32.9124 47.0875C32.5691 47.1398 32.3266 47.2368 32.1848 47.3786C32.0504 47.5129 31.9833 47.6995 31.9833 47.9383C31.9833 48.2443 32.0877 48.4943 32.2967 48.6883C32.5131 48.8824 32.8042 48.9794 33.1699 48.9794ZM37.1358 42.7664V41.7477H38.2553V42.7664H37.1358ZM37.2478 49.5615V44.1209H38.1545V49.5615H37.2478ZM42.2565 51.6773C41.7863 51.6773 41.3423 51.6139 40.9243 51.487C40.5139 51.3676 40.1482 51.1847 39.8273 50.9385L40.1295 50.278C40.4654 50.5168 40.7975 50.6884 41.1258 50.7929C41.4617 50.8974 41.8236 50.9497 42.2117 50.9497C43.2864 50.9497 43.8237 50.3974 43.8237 49.2929V48.3301C43.667 48.6734 43.4207 48.9458 43.0849 49.1473C42.7565 49.3414 42.3796 49.4384 41.9542 49.4384C41.4542 49.4384 41.0214 49.3227 40.6557 49.0913C40.29 48.86 40.0064 48.5428 39.8049 48.1398C39.6108 47.7293 39.5138 47.2554 39.5138 46.7181C39.5138 46.1807 39.6108 45.7106 39.8049 45.3076C40.0064 44.8971 40.29 44.5799 40.6557 44.356C41.0214 44.1321 41.4542 44.0202 41.9542 44.0202C42.3796 44.0202 42.7565 44.1172 43.0849 44.3112C43.4207 44.5053 43.667 44.7702 43.8237 45.1061V44.1209H44.7081V49.1697C44.7081 50.0056 44.4992 50.6325 44.0812 51.0504C43.6708 51.4683 43.0625 51.6773 42.2565 51.6773ZM42.1222 48.6995C42.6446 48.6995 43.0588 48.5204 43.3648 48.1622C43.6708 47.804 43.8237 47.3226 43.8237 46.7181C43.8237 46.1136 43.6708 45.6359 43.3648 45.2852C43.0588 44.927 42.6446 44.7478 42.1222 44.7478C41.6072 44.7478 41.1967 44.927 40.8908 45.2852C40.5848 45.6359 40.4318 46.1136 40.4318 46.7181C40.4318 47.3226 40.5848 47.804 40.8908 48.1622C41.1967 48.5204 41.6072 48.6995 42.1222 48.6995ZM46.409 49.5615V44.1209H47.2934V45.0501C47.4725 44.7068 47.7262 44.4493 48.0546 44.2777C48.383 44.106 48.7524 44.0202 49.1629 44.0202C50.454 44.0202 51.0995 44.7366 51.0995 46.1696V49.5615H50.1928V46.2255C50.1928 45.718 50.092 45.3486 49.8905 45.1173C49.6965 44.8784 49.383 44.759 48.9502 44.759C48.4502 44.759 48.0509 44.9158 47.7524 45.2292C47.4613 45.5352 47.3158 45.9457 47.3158 46.4606V49.5615H46.409ZM55.7923 49.5615V41.6693H56.5647L59.5984 47.3674L62.6098 41.6693H63.3822V49.5615H62.5314V43.3933L59.9007 48.3413H59.2962L56.6319 43.4045V49.5615H55.7923ZM66.9362 49.6623C66.563 49.6623 66.2272 49.5914 65.9286 49.4496C65.6376 49.3003 65.4062 49.0988 65.2346 48.8451C65.0629 48.5913 64.9771 48.3077 64.9771 47.9943C64.9771 47.5987 65.0779 47.2853 65.2794 47.0539C65.4883 46.8226 65.8279 46.6584 66.2981 46.5614C66.7757 46.4569 67.425 46.4046 68.2459 46.4046H68.6042V46.0576C68.6042 45.5949 68.5071 45.2628 68.3131 45.0613C68.1265 44.8523 67.8243 44.7478 67.4063 44.7478C67.078 44.7478 66.7608 44.7963 66.4548 44.8934C66.1488 44.9829 65.8354 45.1322 65.5144 45.3412L65.201 44.6807C65.4846 44.4792 65.8279 44.3187 66.2309 44.1993C66.6414 44.0799 67.0332 44.0202 67.4063 44.0202C68.1079 44.0202 68.6266 44.1918 68.9624 44.5351C69.3057 44.8784 69.4773 45.4121 69.4773 46.136V49.5615H68.6266V48.6212C68.4848 48.9421 68.2646 49.1958 67.9661 49.3824C67.675 49.569 67.3317 49.6623 66.9362 49.6623ZM67.0817 48.9794C67.5295 48.9794 67.8952 48.8264 68.1788 48.5204C68.4624 48.207 68.6042 47.8114 68.6042 47.3338V46.998H68.2571C67.6526 46.998 67.175 47.0278 66.8242 47.0875C66.4809 47.1398 66.2384 47.2368 66.0966 47.3786C65.9622 47.5129 65.8951 47.6995 65.8951 47.9383C65.8951 48.2443 65.9995 48.4943 66.2085 48.6883C66.4249 48.8824 66.716 48.9794 67.0817 48.9794ZM71.1596 49.5615V44.1209H72.044V45.0501C72.2231 44.7068 72.4768 44.4493 72.8052 44.2777C73.1336 44.106 73.503 44.0202 73.9135 44.0202C75.2046 44.0202 75.8501 44.7366 75.8501 46.1696V49.5615H74.9434V46.2255C74.9434 45.718 74.8426 45.3486 74.6411 45.1173C74.4471 44.8784 74.1336 44.759 73.7008 44.759C73.2007 44.759 72.8015 44.9158 72.503 45.2292C72.2119 45.5352 72.0664 45.9457 72.0664 46.4606V49.5615H71.1596ZM79.2349 49.6623C78.8618 49.6623 78.5259 49.5914 78.2274 49.4496C77.9364 49.3003 77.705 49.0988 77.5334 48.8451C77.3617 48.5913 77.2759 48.3077 77.2759 47.9943C77.2759 47.5987 77.3766 47.2853 77.5781 47.0539C77.7871 46.8226 78.1267 46.6584 78.5968 46.5614C79.0745 46.4569 79.7238 46.4046 80.5447 46.4046H80.9029V46.0576C80.9029 45.5949 80.8059 45.2628 80.6119 45.0613C80.4253 44.8523 80.123 44.7478 79.7051 44.7478C79.3767 44.7478 79.0596 44.7963 78.7536 44.8934C78.4476 44.9829 78.1341 45.1322 77.8132 45.3412L77.4998 44.6807C77.7834 44.4792 78.1267 44.3187 78.5297 44.1993C78.9401 44.0799 79.332 44.0202 79.7051 44.0202C80.4066 44.0202 80.9253 44.1918 81.2612 44.5351C81.6045 44.8784 81.7761 45.4121 81.7761 46.136V49.5615H80.9253V48.6212C80.7835 48.9421 80.5634 49.1958 80.2648 49.3824C79.9738 49.569 79.6305 49.6623 79.2349 49.6623ZM79.3805 48.9794C79.8283 48.9794 80.1939 48.8264 80.4775 48.5204C80.7611 48.207 80.9029 47.8114 80.9029 47.3338V46.998H80.5559C79.9514 46.998 79.4738 47.0278 79.123 47.0875C78.7797 47.1398 78.5371 47.2368 78.3953 47.3786C78.261 47.5129 78.1938 47.6995 78.1938 47.9383C78.1938 48.2443 78.2983 48.4943 78.5073 48.6883C78.7237 48.8824 79.0148 48.9794 79.3805 48.9794ZM85.8652 51.6773C85.395 51.6773 84.951 51.6139 84.533 51.487C84.1226 51.3676 83.7569 51.1847 83.436 50.9385L83.7382 50.278C84.0741 50.5168 84.4062 50.6884 84.7346 50.7929C85.0704 50.8974 85.4323 50.9497 85.8204 50.9497C86.8951 50.9497 87.4325 50.3974 87.4325 49.2929V48.3301C87.2757 48.6734 87.0294 48.9458 86.6936 49.1473C86.3652 49.3414 85.9883 49.4384 85.563 49.4384C85.0629 49.4384 84.6301 49.3227 84.2644 49.0913C83.8987 48.86 83.6151 48.5428 83.4136 48.1398C83.2195 47.7293 83.1225 47.2554 83.1225 46.7181C83.1225 46.1807 83.2195 45.7106 83.4136 45.3076C83.6151 44.8971 83.8987 44.5799 84.2644 44.356C84.6301 44.1321 85.0629 44.0202 85.563 44.0202C85.9883 44.0202 86.3652 44.1172 86.6936 44.3112C87.0294 44.5053 87.2757 44.7702 87.4325 45.1061V44.1209H88.3168V49.1697C88.3168 50.0056 88.1079 50.6325 87.6899 51.0504C87.2795 51.4683 86.6712 51.6773 85.8652 51.6773ZM85.7309 48.6995C86.2533 48.6995 86.6675 48.5204 86.9735 48.1622C87.2795 47.804 87.4325 47.3226 87.4325 46.7181C87.4325 46.1136 87.2795 45.6359 86.9735 45.2852C86.6675 44.927 86.2533 44.7478 85.7309 44.7478C85.2159 44.7478 84.8055 44.927 84.4995 45.2852C84.1935 45.6359 84.0405 46.1136 84.0405 46.7181C84.0405 47.3226 84.1935 47.804 84.4995 48.1622C84.8055 48.5204 85.2159 48.6995 85.7309 48.6995ZM92.4693 49.6623C91.6111 49.6623 90.9319 49.4123 90.4319 48.9122C89.9319 48.4047 89.6819 47.7181 89.6819 46.8524C89.6819 46.2927 89.7938 45.8001 90.0177 45.3747C90.2416 44.9419 90.5476 44.6098 90.9357 44.3784C91.3312 44.1396 91.7865 44.0202 92.3014 44.0202C93.0403 44.0202 93.6186 44.259 94.0366 44.7366C94.4545 45.2068 94.6635 45.8561 94.6635 46.6845V47.0315H90.5662C90.5961 47.651 90.7752 48.1249 91.1036 48.4533C91.432 48.7742 91.8872 48.9346 92.4693 48.9346C92.7977 48.9346 93.1112 48.8861 93.4097 48.7891C93.7082 48.6846 93.9918 48.5167 94.2605 48.2853L94.5739 48.9234C94.3276 49.1548 94.0142 49.3376 93.6336 49.472C93.253 49.5988 92.8649 49.6623 92.4693 49.6623ZM92.3238 44.6919C91.8088 44.6919 91.4021 44.8523 91.1036 45.1732C90.8051 45.4941 90.6297 45.9158 90.5774 46.4382H93.8798C93.8575 45.886 93.7119 45.4568 93.4433 45.1508C93.1821 44.8449 92.8089 44.6919 92.3238 44.6919ZM95.9982 49.5615V44.1209H96.8825V45.0389C97.0467 44.7105 97.2744 44.4605 97.5654 44.2889C97.8565 44.1097 98.196 44.0202 98.5841 44.0202C99.4349 44.0202 99.9797 44.3896 100.219 45.1285C100.383 44.7852 100.625 44.5165 100.946 44.3224C101.267 44.1209 101.637 44.0202 102.054 44.0202C103.263 44.0202 103.868 44.7366 103.868 46.1696V49.5615H102.961V46.2143C102.961 45.7143 102.872 45.3486 102.693 45.1173C102.521 44.8784 102.234 44.759 101.831 44.759C101.39 44.759 101.039 44.9158 100.778 45.2292C100.517 45.5427 100.386 45.9606 100.386 46.483V49.5615H99.4797V46.2143C99.4797 45.7143 99.3901 45.3486 99.211 45.1173C99.0394 44.8784 98.752 44.759 98.349 44.759C97.9012 44.759 97.5468 44.9158 97.2855 45.2292C97.0318 45.5427 96.9049 45.9606 96.9049 46.483V49.5615H95.9982ZM108.015 49.6623C107.157 49.6623 106.478 49.4123 105.978 48.9122C105.478 48.4047 105.228 47.7181 105.228 46.8524C105.228 46.2927 105.339 45.8001 105.563 45.3747C105.787 44.9419 106.093 44.6098 106.481 44.3784C106.877 44.1396 107.332 44.0202 107.847 44.0202C108.586 44.0202 109.164 44.259 109.582 44.7366C110 45.2068 110.209 45.8561 110.209 46.6845V47.0315H106.112C106.142 47.651 106.321 48.1249 106.649 48.4533C106.978 48.7742 107.433 48.9346 108.015 48.9346C108.343 48.9346 108.657 48.8861 108.955 48.7891C109.254 48.6846 109.537 48.5167 109.806 48.2853L110.12 48.9234C109.873 49.1548 109.56 49.3376 109.179 49.472C108.799 49.5988 108.411 49.6623 108.015 49.6623ZM107.869 44.6919C107.354 44.6919 106.948 44.8523 106.649 45.1732C106.351 45.4941 106.175 45.9158 106.123 46.4382H109.426C109.403 45.886 109.258 45.4568 108.989 45.1508C108.728 44.8449 108.355 44.6919 107.869 44.6919ZM111.521 49.5615V44.1209H112.406V45.0501C112.585 44.7068 112.839 44.4493 113.167 44.2777C113.495 44.106 113.865 44.0202 114.275 44.0202C115.566 44.0202 116.212 44.7366 116.212 46.1696V49.5615H115.305V46.2255C115.305 45.718 115.204 45.3486 115.003 45.1173C114.809 44.8784 114.495 44.759 114.063 44.759C113.563 44.759 113.163 44.9158 112.865 45.2292C112.574 45.5352 112.428 45.9457 112.428 46.4606V49.5615H111.521ZM120.067 49.6623C119.425 49.6623 118.944 49.4944 118.623 49.1585C118.302 48.8152 118.141 48.3227 118.141 47.6808V44.8262H117.078V44.1209H118.141V42.4529H119.048V44.1209H120.772V44.8262H119.048V47.5913C119.048 48.0167 119.138 48.3413 119.317 48.5652C119.496 48.7816 119.787 48.8898 120.19 48.8898C120.309 48.8898 120.429 48.8749 120.548 48.8451C120.668 48.8152 120.776 48.7854 120.873 48.7555L121.03 49.4496C120.933 49.5018 120.791 49.5503 120.604 49.5951C120.418 49.6399 120.239 49.6623 120.067 49.6623Z" fill="white"/>
</svg>
