<svg width="32" height="32" viewBox="0 0 32 32" fill="none" xmlns="http://www.w3.org/2000/svg">
<path opacity="0.3" d="M16.0003 29.3346C23.3641 29.3346 29.3337 23.3651 29.3337 16.0013C29.3337 8.63751 23.3641 2.66797 16.0003 2.66797C8.63653 2.66797 2.66699 8.63751 2.66699 16.0013C2.66699 23.3651 8.63653 29.3346 16.0003 29.3346Z" fill="#B5B5C3"/>
<path d="M22.3586 10.4236C22.8611 9.88525 23.7048 9.85615 24.2431 10.3586C24.7814 10.861 24.8105 11.7048 24.3081 12.2431L14.9748 22.2431C14.4873 22.7654 13.6748 22.8106 13.1323 22.3457L8.46564 18.3457C7.90653 17.8665 7.84179 17.0247 8.32102 16.4656C8.80024 15.9065 9.64198 15.8418 10.2011 16.321L13.8973 19.4892L22.3586 10.4236Z" fill="#B5B5C3"/>
</svg>
