<svg width="121" height="120" viewBox="0 0 121 120" fill="none" xmlns="http://www.w3.org/2000/svg">
<g clip-path="url(#clip0_1201:81329)">
<path opacity="0.3" fill-rule="evenodd" clip-rule="evenodd" d="M63 95C45.0507 95 30.5 80.4493 30.5 62.5C30.5 44.5507 45.0507 30 63 30C80.9493 30 95.5 44.5507 95.5 62.5C95.5 80.4493 80.9493 95 63 95ZM63 82C73.7696 82 82.5 73.2696 82.5 62.5C82.5 51.7304 73.7696 43 63 43C52.2304 43 43.5 51.7304 43.5 62.5C43.5 73.2696 52.2304 82 63 82ZM63 75.5C55.8203 75.5 50 69.6797 50 62.5C50 55.3203 55.8203 49.5 63 49.5C70.1797 49.5 76 55.3203 76 62.5C76 69.6797 70.1797 75.5 63 75.5Z" fill="#7F8299"/>
<path opacity="0.3" fill-rule="evenodd" clip-rule="evenodd" d="M110.501 67.5C111.933 67.5 113.145 68.558 113.339 69.9771L115.991 89.4266C116.357 92.1134 114.476 94.5886 111.789 94.955C111.57 94.985 111.348 95 111.126 95C108.289 95 105.989 92.7002 105.989 89.8632C105.989 89.7079 105.996 89.5527 106.01 89.3981L107.775 69.9897C107.903 68.5797 109.085 67.5 110.501 67.5Z" fill="#7F8299"/>
<path fill-rule="evenodd" clip-rule="evenodd" d="M105.5 25V60H120.5V40C120.5 31.7157 113.784 25 105.5 25Z" fill="#7F8299"/>
<path fill-rule="evenodd" clip-rule="evenodd" d="M4.07143 25L5.68485 41.6437C5.78258 42.6519 6.62993 43.4211 7.64286 43.4211C8.65579 43.4211 9.50313 42.6519 9.60087 41.6437L11.2143 25H14.7857L16.3991 41.6437C16.4969 42.6519 17.3442 43.4211 18.3571 43.4211C19.3701 43.4211 20.2174 42.6519 20.3152 41.6437L21.9286 25H25.5V41.9737C25.5 48.8772 19.9036 54.4737 13 54.4737C6.09644 54.4737 0.5 48.8772 0.5 41.9737L0.5 25H4.07143Z" fill="#7F8299"/>
<path opacity="0.3" fill-rule="evenodd" clip-rule="evenodd" d="M12.9983 61.8359C15.001 61.8359 16.6541 63.4023 16.7618 65.4022L18.0673 89.6444C18.2181 92.444 16.0708 94.8357 13.2713 94.9865C13.1804 94.9914 13.0893 94.9938 12.9983 94.9938C10.1947 94.9938 7.92188 92.7211 7.92188 89.9174C7.92188 89.8264 7.92432 89.7354 7.92922 89.6444L9.23478 65.4022C9.34249 63.4023 10.9955 61.8359 12.9983 61.8359Z" fill="#7F8299"/>
</g>
<defs>
<clipPath id="clip0_1201:81329">
<rect width="120" height="120" fill="white" transform="translate(0.5)"/>
</clipPath>
</defs>
</svg>
