<svg width="191" height="75" viewBox="0 0 191 88" fill="none" xmlns="http://www.w3.org/2000/svg">
<path d="M111.974 8.8684C111.974 7.46208 111.447 6.31945 110.525 5.3526C109.647 4.5176 108.461 4.07812 106.923 4.07812C105.342 4.07812 104.024 4.69339 102.97 5.87997C102.223 6.80287 101.828 7.9455 101.828 9.43971C101.828 10.7581 102.267 11.9887 103.146 12.8237C104.332 13.9224 105.386 14.186 107.143 14.186C108.241 14.186 109.69 13.9223 110.745 13.3071C110.657 12.7797 110.393 12.2524 110.174 11.9447C109.295 12.3402 108.153 12.6039 107.319 12.6039C105.43 12.6039 104.288 12.0326 103.805 10.3626C106.308 10.4066 109.427 10.1868 111.931 9.57155C111.931 9.6155 111.974 9.35182 111.974 8.8684ZM103.849 9.08814C103.849 8.60471 104.068 7.37418 104.244 6.97866C104.42 6.58313 104.727 6.05576 105.122 6.05576C106.352 5.92392 106.484 8.20918 106.572 9.00024C105.474 9.04418 104.639 9.08814 103.849 9.08814ZM107.802 8.82445C107.758 8.34103 107.714 7.06655 107.846 6.49523C107.934 6.05576 108.153 5.79208 108.548 5.74813C109.778 5.57234 110.261 7.63787 110.393 8.42892C109.603 8.64866 108.68 8.82445 107.802 8.82445Z" fill="white"/>
<path d="M105.651 3.50698C105.387 3.59488 105.124 3.63883 104.86 3.77067C103.806 4.21014 103.015 4.86935 102.488 5.61646C102.444 5.57251 102.356 5.48462 102.268 5.39672L100.16 3.19935C100.16 3.19935 101.654 3.94646 102.181 3.55093C102.708 3.19935 102.444 1.79304 102.444 1.79304C102.444 1.79304 103.586 2.62804 104.113 2.36435C104.64 2.10067 104.728 0.386719 104.728 0.386719C104.728 0.386719 105.431 2.67199 105.607 3.37515L105.651 3.50698Z" fill="#EB008B"/>
<path d="M124.625 8.09443C124.625 7.1521 124.787 6.304 125.096 5.55013C125.406 4.79627 125.85 4.1501 126.402 3.61162C126.954 3.08661 127.627 2.66929 128.394 2.38659C129.162 2.10389 129.996 1.95581 130.912 1.95581C131.827 1.95581 132.675 2.10389 133.456 2.38659C134.237 2.66929 134.896 3.08661 135.462 3.61162C136.027 4.13664 136.471 4.78281 136.781 5.55013C137.091 6.304 137.252 7.1521 137.252 8.09443C137.252 9.00984 137.091 9.84447 136.781 10.6118C136.471 11.3657 136.027 12.0253 135.462 12.5638C134.896 13.1157 134.223 13.533 133.456 13.8427C132.675 14.1523 131.841 14.3004 130.912 14.3004C130.01 14.3004 129.162 14.1523 128.394 13.8427C127.627 13.533 126.967 13.1157 126.402 12.5638C125.85 12.0118 125.406 11.3657 125.096 10.6118C124.787 9.84447 124.625 9.00984 124.625 8.09443ZM126.9 8.09443C126.9 8.72714 126.994 9.306 127.196 9.83101C127.385 10.356 127.667 10.8137 128.031 11.2041C128.394 11.5945 128.812 11.8907 129.31 12.1061C129.808 12.3215 130.346 12.4292 130.939 12.4292C131.531 12.4292 132.083 12.3215 132.581 12.1061C133.079 11.8907 133.51 11.5945 133.873 11.2041C134.237 10.8137 134.506 10.356 134.708 9.83101C134.896 9.306 135.004 8.72714 135.004 8.09443C135.004 7.48864 134.91 6.92325 134.708 6.39823C134.519 5.87322 134.237 5.42898 133.887 5.03858C133.537 4.64819 133.106 4.35203 132.608 4.12317C132.11 3.90778 131.558 3.78663 130.952 3.78663C130.346 3.78663 129.794 3.89432 129.296 4.12317C128.798 4.33856 128.381 4.64819 128.031 5.03858C127.681 5.42898 127.398 5.87322 127.21 6.39823C126.994 6.90978 126.9 7.47518 126.9 8.09443Z" fill="white"/>
<path fill-rule="evenodd" clip-rule="evenodd" d="M145.498 1.95581H137.129V3.97583H140.267L140.267 14.3004H142.359L142.359 3.97583H145.498V1.95581Z" fill="white"/>
<path d="M113.07 2.2522H117.23C117.997 2.2522 118.765 2.34643 119.532 2.54836C120.313 2.75029 120.999 3.07337 121.619 3.53108C122.238 3.98878 122.736 4.59457 123.126 5.33497C123.517 6.07537 123.705 7.00424 123.705 8.10812C123.705 9.13122 123.517 10.0197 123.126 10.7601C122.736 11.5005 122.238 12.1063 121.619 12.5909C120.999 13.0621 120.299 13.4121 119.532 13.641C118.751 13.8698 117.984 13.9775 117.23 13.9775H113.07V2.2522ZM116.907 12.1736C117.445 12.1736 117.997 12.1063 118.536 11.9851C119.074 11.864 119.572 11.6486 120.003 11.339C120.434 11.0293 120.797 10.6255 121.067 10.1005C121.349 9.57546 121.484 8.91583 121.484 8.12158C121.484 7.28694 121.349 6.60039 121.067 6.06191C120.784 5.5369 120.434 5.11958 120.003 4.82342C119.572 4.52726 119.074 4.32533 118.536 4.20417C117.997 4.09648 117.445 4.04263 116.907 4.04263H115.17V12.1736H116.907Z" fill="white"/>
<path d="M45.5039 4.66821H47.893C48.3168 4.66821 48.7022 4.74532 48.9719 4.86098C49.2416 4.97665 49.4728 5.13087 49.627 5.32364C49.7811 5.51641 49.8967 5.70918 49.9738 5.9405C50.0508 6.17183 50.0508 6.40315 50.0508 6.59593C50.0508 6.7887 50.0123 7.02003 49.9738 7.25135C49.8967 7.48268 49.7811 7.67545 49.627 7.86822C49.4728 8.06099 49.2416 8.21521 48.9719 8.33087C48.7022 8.44653 48.3168 8.52364 47.893 8.52364H46.4287V11.5309H45.5039V4.66821ZM46.4287 7.6369H47.6232C47.8159 7.6369 47.97 7.63689 48.1627 7.59834C48.3554 7.55978 48.5095 7.52123 48.6251 7.44412C48.7792 7.36702 48.8563 7.25135 48.9719 7.09713C49.049 6.94292 49.0875 6.75014 49.0875 6.51882C49.0875 6.28749 49.049 6.09472 48.9719 5.9405C48.8948 5.78629 48.7792 5.67063 48.6251 5.59352C48.471 5.51641 48.3168 5.47785 48.1627 5.4393C47.97 5.40074 47.8159 5.40075 47.6232 5.40075H46.4287V7.6369Z" fill="white"/>
<path d="M50.7812 9.17894C50.7812 8.83196 50.8583 8.52352 50.9739 8.25364C51.0895 7.9452 51.2822 7.71388 51.4749 7.48255C51.6675 7.25123 51.9373 7.09701 52.2455 6.98135C52.5538 6.86568 52.8621 6.78857 53.2089 6.78857C53.5557 6.78857 53.8639 6.86568 54.1722 6.98135C54.4805 7.09701 54.7117 7.28978 54.9429 7.48255C55.1741 7.67532 55.3282 7.9452 55.4438 8.25364C55.5594 8.56207 55.6365 8.87051 55.6365 9.17894C55.6365 9.48738 55.5594 9.83436 55.4438 10.1042C55.3282 10.4127 55.1355 10.644 54.9429 10.8753C54.7502 11.1067 54.4805 11.2609 54.1722 11.3765C53.8639 11.4922 53.5557 11.5693 53.2089 11.5693C52.8621 11.5693 52.5538 11.4922 52.2455 11.3765C51.9373 11.2609 51.7061 11.0681 51.4749 10.8753C51.2437 10.6826 51.0895 10.4127 50.9739 10.1042C50.8583 9.83436 50.7812 9.52593 50.7812 9.17894ZM51.706 9.17894C51.706 9.41027 51.7446 9.64159 51.8217 9.83437C51.8987 10.0271 51.9758 10.1814 52.1299 10.3356C52.2455 10.4898 52.3997 10.5669 52.5923 10.644C52.785 10.7211 52.9777 10.7597 53.2089 10.7597C53.4401 10.7597 53.6327 10.7211 53.8254 10.644C54.0181 10.5669 54.1722 10.4512 54.2878 10.3356C54.4034 10.1814 54.519 10.0271 54.5961 9.83437C54.6731 9.64159 54.7117 9.41027 54.7117 9.17894C54.7117 8.94762 54.6731 8.71629 54.5961 8.52352C54.519 8.33075 54.4419 8.17653 54.2878 8.02232C54.1722 7.8681 54.0181 7.79099 53.8254 7.71388C53.6327 7.63677 53.4401 7.59822 53.2089 7.59822C52.9777 7.59822 52.785 7.63677 52.5923 7.71388C52.3997 7.79099 52.2455 7.90665 52.1299 8.02232C52.0143 8.17653 51.8987 8.33075 51.8217 8.52352C51.7446 8.75484 51.706 8.94762 51.706 9.17894Z" fill="white"/>
<path d="M56.1758 6.9043H57.1391L58.1795 10.2971H58.2181L59.297 6.9043H60.2218L61.3778 10.2971H61.4163L62.3797 6.9043H63.3045L61.8402 11.4537H60.9539L59.7594 8.06093H59.7209L58.6034 11.4537H57.6786L56.1758 6.9043Z" fill="white"/>
<path d="M64.6949 9.48731C64.6949 9.68008 64.7334 9.87285 64.8105 10.0271C64.8875 10.1813 65.0031 10.3355 65.1573 10.4512C65.3114 10.5668 65.4655 10.6439 65.6582 10.721C65.8509 10.7982 66.0435 10.7982 66.2362 10.7982C66.5059 10.7982 66.7371 10.721 66.9298 10.6054C67.1225 10.4897 67.3151 10.297 67.4693 10.1042L68.1243 10.6054C67.6619 11.2223 66.9683 11.5307 66.1206 11.5307C65.7738 11.5307 65.427 11.4536 65.1573 11.3379C64.8875 11.2223 64.6178 11.0295 64.4251 10.8367C64.2325 10.6054 64.0783 10.3741 63.9627 10.0656C63.8471 9.75719 63.8086 9.44875 63.8086 9.10177C63.8086 8.75478 63.8857 8.44634 64.0013 8.13791C64.1169 7.82947 64.271 7.59815 64.5022 7.36682C64.7334 7.1355 64.9646 6.98129 65.2343 6.86562C65.5041 6.74996 65.8509 6.67285 66.1591 6.67285C66.5445 6.67285 66.8913 6.74996 67.1995 6.86562C67.4693 7.01984 67.7005 7.17405 67.8931 7.40538C68.0858 7.63671 68.2014 7.90659 68.2785 8.17647C68.3555 8.44635 68.3941 8.75478 68.3941 9.06321V9.37165H64.6949V9.48731ZM67.4307 8.79334C67.4307 8.60056 67.3922 8.40779 67.3537 8.25357C67.3151 8.09936 67.1995 7.94514 67.1225 7.82948C67.0069 7.71382 66.8913 7.6367 66.6986 7.55959C66.5059 7.48249 66.3518 7.44394 66.1206 7.44394C65.9279 7.44394 65.6967 7.48249 65.5426 7.55959C65.3499 7.6367 65.2343 7.75237 65.0802 7.86803C64.9646 7.98369 64.849 8.13791 64.8105 8.29213C64.7719 8.44635 64.6949 8.60056 64.6949 8.75478H67.4307V8.79334Z" fill="white"/>
<path d="M69.3945 6.90421H70.2423V7.59819C70.2808 7.48253 70.3579 7.36687 70.4735 7.25121C70.5505 7.13554 70.6661 7.05843 70.7817 6.98132C70.8973 6.90421 71.0129 6.86566 71.1671 6.82711C71.3212 6.78855 71.4368 6.75 71.5909 6.75C71.7451 6.75 71.8607 6.75 71.9763 6.82711L71.9377 7.75241C71.8607 7.75241 71.7836 7.71386 71.7451 7.71386C71.668 7.71386 71.5909 7.71386 71.5524 7.71386C71.1285 7.71386 70.8203 7.82952 70.5891 8.06084C70.3579 8.29217 70.2423 8.67771 70.2423 9.17892V11.4536H69.3945V6.90421Z" fill="white"/>
<path d="M73.441 9.48731C73.441 9.68008 73.4795 9.87285 73.5566 10.0271C73.6336 10.1813 73.7492 10.3355 73.9034 10.4512C74.0575 10.5668 74.2116 10.6439 74.4043 10.721C74.597 10.7982 74.7896 10.7982 74.9823 10.7982C75.252 10.7982 75.4832 10.721 75.6759 10.6054C75.8686 10.4897 76.0612 10.297 76.2154 10.1042L76.8704 10.6054C76.408 11.2223 75.7144 11.5307 74.8667 11.5307C74.5199 11.5307 74.1731 11.4536 73.9034 11.3379C73.6336 11.2223 73.3639 11.0295 73.1712 10.8367C72.9786 10.6054 72.8244 10.3741 72.7088 10.0656C72.5932 9.75719 72.5547 9.44875 72.5547 9.10177C72.5547 8.75478 72.6318 8.44634 72.7474 8.13791C72.863 7.82947 73.0171 7.59815 73.2483 7.36682C73.4795 7.1355 73.7107 6.98129 73.9804 6.86562C74.2502 6.74996 74.597 6.67285 74.9052 6.67285C75.2906 6.67285 75.6374 6.74996 75.9456 6.86562C76.2154 7.01984 76.4466 7.17405 76.6392 7.40538C76.8319 7.63671 76.9475 7.90659 77.0246 8.17647C77.1016 8.44635 77.1402 8.75478 77.1402 9.06321V9.37165H73.441V9.48731ZM76.1768 8.79334C76.1768 8.60056 76.1383 8.40779 76.0998 8.25357C76.0612 8.09936 75.9456 7.94514 75.8686 7.82948C75.753 7.71382 75.6374 7.6367 75.4447 7.55959C75.252 7.48249 75.0979 7.44394 74.8667 7.44394C74.674 7.44394 74.4428 7.48249 74.2887 7.55959C74.096 7.6367 73.9804 7.75237 73.8263 7.86803C73.7107 7.98369 73.5951 8.13791 73.5566 8.29213C73.518 8.44635 73.441 8.60056 73.441 8.75478H76.1768V8.79334Z" fill="white"/>
<path d="M82.6888 11.4537H81.8411V10.7983C81.687 11.0296 81.4558 11.2224 81.1475 11.3766C80.8392 11.4923 80.5695 11.5694 80.2612 11.5694C79.9144 11.5694 79.6062 11.4923 79.2979 11.3766C78.9896 11.261 78.7584 11.0682 78.5657 10.8754C78.3731 10.6441 78.219 10.4128 78.1034 10.1043C77.9877 9.79591 77.9492 9.48748 77.9492 9.17905C77.9492 8.83206 77.9877 8.52362 78.1034 8.21519C78.219 7.90676 78.3731 7.67543 78.5657 7.4441C78.7584 7.21278 79.0282 7.05856 79.2979 6.9429C79.5676 6.82723 79.9144 6.75013 80.2612 6.75013C80.5695 6.75013 80.8778 6.82723 81.186 6.9429C81.4558 7.09711 81.687 7.25133 81.8411 7.52121V4.16699H82.6888V11.4537ZM80.3383 10.7598C80.5695 10.7598 80.7622 10.7212 80.9548 10.6441C81.1475 10.567 81.3016 10.4513 81.4172 10.3357C81.5328 10.1815 81.6484 10.0272 81.7255 9.83447C81.8026 9.6417 81.8411 9.41037 81.8411 9.17905C81.8411 8.94772 81.8026 8.71639 81.7255 8.52362C81.6484 8.33085 81.5714 8.17664 81.4172 8.02242C81.3016 7.8682 81.1475 7.79109 80.9548 7.71398C80.7622 7.63687 80.5695 7.59832 80.3383 7.59832C80.1071 7.59832 79.9144 7.63687 79.7218 7.71398C79.5291 7.79109 79.375 7.90676 79.2594 8.02242C79.1438 8.17664 79.0282 8.33085 78.9511 8.52362C78.874 8.71639 78.8355 8.94772 78.8355 9.17905C78.8355 9.41037 78.874 9.6417 78.9511 9.83447C79.0282 10.0272 79.1052 10.1815 79.2594 10.3357C79.375 10.4899 79.5291 10.567 79.7218 10.6441C79.8759 10.7212 80.1071 10.7598 80.3383 10.7598Z" fill="white"/>
<path d="M86.6914 4.20557H87.5391V7.55979C87.6933 7.32846 87.9245 7.13569 88.1942 6.98147C88.5025 6.82726 88.7722 6.7887 89.119 6.7887C89.4658 6.7887 89.7741 6.86581 90.0823 6.98147C90.3521 7.09713 90.6218 7.28991 90.8145 7.48268C91.0071 7.67545 91.1613 7.94533 91.2769 8.25376C91.3925 8.5622 91.431 8.87063 91.431 9.21762C91.431 9.56461 91.3925 9.87305 91.2769 10.1429C91.1613 10.4128 91.0071 10.6827 90.8145 10.914C90.6218 11.1453 90.3521 11.2995 90.0823 11.4152C89.8126 11.5309 89.4658 11.608 89.119 11.608C88.8107 11.608 88.5025 11.5309 88.2327 11.4152C87.9245 11.261 87.6933 11.1068 87.5391 10.8369V11.4923H86.6914V4.20557ZM89.0419 10.7598C89.2731 10.7598 89.4658 10.7212 89.6585 10.6441C89.8511 10.567 90.0053 10.4514 90.1209 10.3357C90.2365 10.22 90.3521 10.0273 90.4291 9.83449C90.5062 9.64172 90.5447 9.4104 90.5447 9.17907C90.5447 8.94774 90.5062 8.71641 90.4291 8.52364C90.3521 8.33087 90.275 8.17666 90.1209 8.02244C89.9667 7.86822 89.8511 7.79112 89.6585 7.71401C89.4658 7.6369 89.2731 7.59834 89.0419 7.59834C88.8107 7.59834 88.6181 7.6369 88.4254 7.71401C88.2327 7.79112 88.0786 7.90678 87.963 8.02244C87.8474 8.17666 87.7318 8.33087 87.6547 8.52364C87.5777 8.71641 87.5391 8.94774 87.5391 9.17907C87.5391 9.4104 87.5777 9.64172 87.6547 9.83449C87.7318 10.0273 87.8089 10.1815 87.963 10.3357C88.0786 10.4899 88.2327 10.567 88.4254 10.6441C88.6181 10.7212 88.8107 10.7598 89.0419 10.7598Z" fill="white"/>
<path d="M92.0469 6.9043H93.0487L94.3974 10.4513H94.436L95.7461 6.9043H96.6709L94.513 12.4561C94.4359 12.6489 94.3589 12.8417 94.2818 12.9959C94.2047 13.1501 94.0891 13.3043 93.9735 13.42C93.8579 13.5356 93.7038 13.6127 93.5497 13.6898C93.3955 13.767 93.2029 13.767 92.9331 13.767C92.8175 13.767 92.6634 13.767 92.5478 13.7284C92.4322 13.7284 92.2781 13.6899 92.1625 13.6127L92.2781 12.8417C92.4322 12.9188 92.6249 12.9573 92.779 12.9573C92.8946 12.9573 93.0102 12.9573 93.1258 12.9188C93.2029 12.8802 93.2799 12.8417 93.357 12.7645C93.4341 12.6874 93.4726 12.6103 93.5111 12.5332C93.5497 12.4561 93.5882 12.3404 93.6267 12.2248L93.8965 11.4923L92.0469 6.9043Z" fill="white"/>
<path d="M35.4961 46C35.4961 55.5964 27.7172 63.375 18.1211 63.375C8.52502 63.375 0.746094 55.5964 0.746094 46C0.746094 36.4044 8.52504 28.625 18.1211 28.625C27.7172 28.625 35.4961 36.4044 35.4961 46Z" fill="#2BBECB" stroke="white" stroke-width="1.25"/>
<path d="M21.141 38.7961C21.1605 38.6551 21.1748 38.5122 21.1748 38.3664C21.1748 36.6823 19.805 35.313 18.1215 35.313C16.4381 35.313 15.0682 36.6823 15.0682 38.3664C15.0682 38.5122 15.0825 38.6551 15.102 38.7961C10.594 40.1037 7.29688 44.2609 7.29688 49.1909H28.9459C28.9462 44.2609 25.6491 40.1037 21.141 38.7961ZM16.4843 38.3663C16.4843 37.4632 17.2187 36.7291 18.1215 36.7291C19.0243 36.7291 19.7587 37.4632 19.7587 38.3663C19.7587 38.4075 19.7495 38.4467 19.7463 38.4877C19.2162 38.408 18.6737 38.3663 18.1215 38.3663C17.5693 38.3663 17.0268 38.408 16.4968 38.4877C16.4937 38.4467 16.4843 38.4075 16.4843 38.3663Z" fill="white"/>
<path d="M4.97266 50.2161C4.97266 52.1039 6.50308 53.6347 8.39131 53.6347H27.8532C29.741 53.6347 31.2715 52.1039 31.2715 50.2161H4.97266Z" fill="white"/>
<path d="M21.3322 47.2119C20.8765 47.0704 20.4071 46.9502 19.9109 46.8738C17.8723 46.5577 16.1104 46.7402 14.5867 47.3882C14.5609 47.2662 14.5266 47.1033 14.4781 46.8826L13.3672 41.5583C13.3672 41.5583 14.9163 44.0655 16.0739 44.0078C17.1944 43.9535 18.1227 41.6037 18.1227 41.6037C18.1227 41.6037 19.0186 43.9473 20.0925 44.0238C21.1257 44.0968 22.8783 41.6501 22.8783 41.6501C22.8783 41.6501 21.7523 45.7345 21.4057 46.951L21.3322 47.2119Z" fill="#EB008B"/>
<path d="M71.197 49.3719C71.1282 46.1719 69.9927 43.5224 67.825 41.3547C65.7604 39.4622 63.0766 38.4644 59.6013 38.4644C55.954 38.4644 52.926 39.8751 50.5518 42.6278C48.8314 44.7267 47.9023 47.4106 47.9023 50.7482C47.9023 53.7762 48.8658 56.5289 50.8959 58.4902C53.5798 60.9676 56.0572 61.587 60.0486 61.6558C62.526 61.6558 65.9325 61.0364 68.2379 59.6945C68.0314 58.4558 67.4465 57.2515 66.8959 56.5289C64.9002 57.4579 62.2852 58.0773 60.3239 58.0773C55.9884 58.0773 53.4421 56.7698 52.3411 52.916C58.0873 53.0192 65.2443 52.5031 70.9217 51.0579C71.0938 51.0579 71.197 50.473 71.197 49.3719ZM52.5475 49.8192C52.5475 48.7525 53.0292 45.931 53.4077 44.9676C53.7862 44.0041 54.5432 42.9031 55.4722 42.7998C58.2594 42.5246 58.6034 47.7203 58.7755 49.5095C56.3325 49.7504 54.4056 49.9224 52.5475 49.8192ZM61.6314 49.3031C61.597 48.2364 61.4594 45.3117 61.7002 44.0041C61.9067 43.0063 62.4228 42.4214 63.3174 42.2837C66.1045 41.8708 67.2744 46.5848 67.5153 48.374C65.7604 48.8558 63.5927 49.2343 61.6314 49.3031Z" fill="white"/>
<path d="M56.7147 37.0882C56.1297 37.2602 55.5104 37.4323 54.9254 37.7075C52.4824 38.7742 50.6931 40.185 49.4544 41.9398C49.3512 41.8022 49.2136 41.6645 49.0071 41.4581L44.1211 36.4C44.1211 36.4 47.5276 38.086 48.7663 37.2258C49.9706 36.4 49.3512 33.2 49.3512 33.2C49.3512 33.2 51.9319 35.1613 53.1706 34.5075C54.3405 33.8882 54.5813 30 54.5813 30C54.5813 30 56.1641 35.2301 56.6114 36.8129L56.7147 37.0882Z" fill="#EB008B"/>
<path d="M74.5078 31.2031H93.8799V35.8827H79.8412V44.1064H93.0885V48.6139H79.8412V61.2419H74.5078V31.2031Z" fill="white"/>
<path d="M94.9805 46.1376C94.9805 43.729 95.3934 41.5613 96.1848 39.6344C96.9762 37.7075 98.1117 36.0559 99.5224 34.6795C100.933 33.3376 102.654 32.2709 104.615 31.5483C106.576 30.8258 108.71 30.4473 111.049 30.4473C113.389 30.4473 115.557 30.8258 117.553 31.5483C119.548 32.2709 121.234 33.3376 122.679 34.6795C124.125 36.0215 125.26 37.6731 126.051 39.6344C126.843 41.5613 127.256 43.729 127.256 46.1376C127.256 48.4774 126.843 50.6107 126.051 52.572C125.26 54.4989 124.125 56.1849 122.679 57.5613C121.234 58.972 119.514 60.0387 117.553 60.8301C115.557 61.6215 113.424 62 111.049 62C108.744 62 106.576 61.6215 104.615 60.8301C102.654 60.0387 100.968 58.972 99.5224 57.5613C98.1117 56.1505 96.9762 54.4989 96.1848 52.572C95.3934 50.6107 94.9805 48.4774 94.9805 46.1376ZM100.796 46.1376C100.796 47.7548 101.036 49.2344 101.553 50.5763C102.034 51.9183 102.757 53.0882 103.686 54.086C104.615 55.0839 105.682 55.8409 106.955 56.3914C108.228 56.9419 109.604 57.2172 111.118 57.2172C112.632 57.2172 114.043 56.9419 115.316 56.3914C116.589 55.8409 117.69 55.0839 118.619 54.086C119.548 53.0882 120.236 51.9183 120.753 50.5763C121.234 49.2344 121.51 47.7548 121.51 46.1376C121.51 44.5892 121.269 43.1441 120.753 41.8021C120.271 40.4602 119.548 39.3247 118.654 38.3268C117.759 37.329 116.658 36.572 115.385 35.9871C114.112 35.4365 112.701 35.1268 111.153 35.1268C109.604 35.1268 108.193 35.4021 106.92 35.9871C105.647 36.5376 104.58 37.329 103.686 38.3268C102.791 39.3247 102.069 40.4602 101.587 41.8021C101.071 43.1096 100.796 44.5548 100.796 46.1376Z" fill="white"/>
<path d="M128.633 46.1376C128.633 43.729 129.046 41.5613 129.837 39.6344C130.629 37.7075 131.764 36.0559 133.175 34.6795C134.586 33.3376 136.306 32.2709 138.267 31.5483C140.229 30.8258 142.362 30.4473 144.702 30.4473C147.041 30.4473 149.209 30.8258 151.205 31.5483C153.201 32.2709 154.887 33.3376 156.332 34.6795C157.777 36.0215 158.912 37.6731 159.704 39.6344C160.495 41.5613 160.908 43.729 160.908 46.1376C160.908 48.4774 160.495 50.6107 159.704 52.572C158.912 54.4989 157.777 56.1849 156.332 57.5613C154.887 58.972 153.166 60.0387 151.205 60.8301C149.209 61.6215 147.076 62 144.702 62C142.396 62 140.229 61.6215 138.267 60.8301C136.306 60.0387 134.62 58.972 133.175 57.5613C131.764 56.1505 130.629 54.4989 129.837 52.572C129.046 50.6107 128.633 48.4774 128.633 46.1376ZM134.448 46.1376C134.448 47.7548 134.689 49.2344 135.205 50.5763C135.687 51.9183 136.409 53.0882 137.338 54.086C138.267 55.0839 139.334 55.8409 140.607 56.3914C141.88 56.9419 143.256 57.2172 144.77 57.2172C146.284 57.2172 147.695 56.9419 148.968 56.3914C150.241 55.8409 151.343 55.0839 152.272 54.086C153.201 53.0882 153.889 51.9183 154.405 50.5763C154.887 49.2344 155.162 47.7548 155.162 46.1376C155.162 44.5892 154.921 43.1441 154.405 41.8021C153.923 40.4602 153.201 39.3247 152.306 38.3268C151.411 37.329 150.31 36.572 149.037 35.9871C147.764 35.4365 146.353 35.1268 144.805 35.1268C143.256 35.1268 141.846 35.4021 140.573 35.9871C139.3 36.5376 138.233 37.329 137.338 38.3268C136.444 39.3247 135.721 40.4602 135.239 41.8021C134.689 43.1096 134.448 44.5548 134.448 46.1376Z" fill="white"/>
<path d="M163.695 31.2043H174.328C176.289 31.2043 178.25 31.4452 180.211 31.9613C182.207 32.4775 183.962 33.3033 185.545 34.4732C187.128 35.6431 188.401 37.1915 189.399 39.0839C190.396 40.9764 190.878 43.3506 190.878 46.1721C190.878 48.7872 190.396 51.0581 189.399 52.9506C188.401 54.8431 187.128 56.3915 185.545 57.6302C183.962 58.8345 182.173 59.7291 180.211 60.3141C178.216 60.899 176.254 61.1743 174.328 61.1743H163.695V31.2043ZM173.502 56.5635C174.878 56.5635 176.289 56.3915 177.665 56.0818C179.042 55.7721 180.315 55.2216 181.416 54.4302C182.517 53.6388 183.446 52.6065 184.134 51.2646C184.857 49.9227 185.201 48.2366 185.201 46.2065C185.201 44.0732 184.857 42.3183 184.134 40.942C183.411 39.6001 182.517 38.5334 181.416 37.7764C180.315 37.0194 179.042 36.5033 177.665 36.1936C176.289 35.9183 174.878 35.7807 173.502 35.7807H169.063V56.5635H173.502Z" fill="white"/>
<path d="M100.292 81.47L107.143 72.494H100.496V70.964H109.183V72.494L102.366 81.47H109.285V83H100.292V81.47ZM111.797 79.532C111.797 79.8833 111.871 80.2063 112.018 80.501C112.177 80.7843 112.381 81.028 112.63 81.232C112.879 81.436 113.168 81.5947 113.497 81.708C113.826 81.8213 114.166 81.878 114.517 81.878C114.993 81.878 115.407 81.7703 115.758 81.555C116.109 81.3283 116.432 81.0337 116.727 80.671L117.883 81.555C117.033 82.6543 115.843 83.204 114.313 83.204C113.678 83.204 113.1 83.0963 112.579 82.881C112.069 82.6657 111.633 82.371 111.27 81.997C110.919 81.6117 110.647 81.164 110.454 80.654C110.261 80.1327 110.165 79.5717 110.165 78.971C110.165 78.3703 110.267 77.815 110.471 77.305C110.686 76.7837 110.975 76.336 111.338 75.962C111.712 75.5767 112.154 75.2763 112.664 75.061C113.174 74.8457 113.729 74.738 114.33 74.738C115.044 74.738 115.645 74.8627 116.132 75.112C116.631 75.3613 117.039 75.69 117.356 76.098C117.673 76.4947 117.9 76.948 118.036 77.458C118.183 77.9567 118.257 78.4667 118.257 78.988V79.532H111.797ZM116.625 78.308C116.614 77.968 116.557 77.6563 116.455 77.373C116.364 77.0897 116.223 76.846 116.03 76.642C115.837 76.4267 115.594 76.2623 115.299 76.149C115.016 76.0243 114.681 75.962 114.296 75.962C113.922 75.962 113.576 76.0357 113.259 76.183C112.953 76.319 112.692 76.5003 112.477 76.727C112.262 76.9537 112.092 77.2087 111.967 77.492C111.854 77.764 111.797 78.036 111.797 78.308H116.625ZM126.887 83H125.357V81.759H125.323C125.131 82.1897 124.796 82.541 124.32 82.813C123.844 83.0737 123.295 83.204 122.671 83.204C122.275 83.204 121.901 83.1417 121.549 83.017C121.198 82.9037 120.886 82.7223 120.614 82.473C120.354 82.2237 120.144 81.9063 119.985 81.521C119.827 81.1243 119.747 80.6597 119.747 80.127V74.942H121.277V79.702C121.277 80.076 121.328 80.399 121.43 80.671C121.532 80.9317 121.668 81.147 121.838 81.317C122.008 81.4757 122.201 81.5947 122.416 81.674C122.643 81.742 122.875 81.776 123.113 81.776C123.431 81.776 123.725 81.725 123.997 81.623C124.269 81.521 124.507 81.3623 124.711 81.147C124.915 80.9203 125.074 80.637 125.187 80.297C125.301 79.957 125.357 79.5547 125.357 79.09V74.942H126.887V83ZM133.138 76.965C132.956 76.7383 132.73 76.5513 132.458 76.404C132.197 76.2453 131.874 76.166 131.489 76.166C131.126 76.166 130.809 76.2453 130.537 76.404C130.276 76.5513 130.146 76.7723 130.146 77.067C130.146 77.305 130.219 77.4977 130.367 77.645C130.525 77.7923 130.707 77.9113 130.911 78.002C131.126 78.0927 131.353 78.1607 131.591 78.206C131.829 78.2513 132.033 78.291 132.203 78.325C132.531 78.4043 132.837 78.5007 133.121 78.614C133.415 78.7273 133.665 78.8747 133.869 79.056C134.084 79.2373 134.248 79.4583 134.362 79.719C134.486 79.9797 134.549 80.297 134.549 80.671C134.549 81.1243 134.452 81.5153 134.26 81.844C134.067 82.1613 133.818 82.422 133.512 82.626C133.206 82.83 132.854 82.9773 132.458 83.068C132.072 83.1587 131.681 83.204 131.285 83.204C130.616 83.204 130.027 83.102 129.517 82.898C129.018 82.694 128.57 82.32 128.174 81.776L129.33 80.824C129.579 81.0733 129.857 81.2943 130.163 81.487C130.469 81.6797 130.843 81.776 131.285 81.776C131.477 81.776 131.67 81.759 131.863 81.725C132.067 81.6797 132.242 81.6173 132.39 81.538C132.548 81.4473 132.673 81.3397 132.764 81.215C132.866 81.079 132.917 80.926 132.917 80.756C132.917 80.5293 132.843 80.3423 132.696 80.195C132.56 80.0477 132.39 79.9343 132.186 79.855C131.993 79.7643 131.783 79.6963 131.557 79.651C131.341 79.5943 131.149 79.549 130.979 79.515C130.65 79.4357 130.338 79.345 130.044 79.243C129.749 79.141 129.488 79.005 129.262 78.835C129.035 78.665 128.854 78.4497 128.718 78.189C128.582 77.9283 128.514 77.6053 128.514 77.22C128.514 76.8007 128.599 76.438 128.769 76.132C128.95 75.8147 129.182 75.554 129.466 75.35C129.76 75.146 130.089 74.993 130.452 74.891C130.826 74.789 131.2 74.738 131.574 74.738C132.118 74.738 132.639 74.84 133.138 75.044C133.636 75.248 134.033 75.588 134.328 76.064L133.138 76.965Z" fill="white"/>
</svg>
