<svg width="32" height="32" viewBox="0 0 32 32" fill="none" xmlns="http://www.w3.org/2000/svg">
<rect width="32" height="32" rx="5" fill="#CDF6FA"/>
<path d="M23.9244 12.4399L15.4759 20.8884C15.191 21.1733 14.8034 21.3316 14.4005 21.3276L10.8771 21.293C10.0691 21.285 9.41263 20.6384 9.39237 19.8306L9.30643 16.4035C9.29613 15.9928 9.45477 15.5958 9.7453 15.3052L18.2675 6.78303C18.8533 6.19724 19.8031 6.19724 20.3888 6.78303L23.9244 10.3186C24.5102 10.9044 24.5102 11.8541 23.9244 12.4399Z" fill="#27C0CD"/>
<path opacity="0.3" d="M23 24H10C9.44772 24 9 24.4477 9 25C9 25.5523 9.44772 26 10 26H23C23.5523 26 24 25.5523 24 25C24 24.4477 23.5523 24 23 24Z" fill="#27C0CD"/>
</svg>
