<svg width="24" height="24" viewBox="0 0 24 24" fill="none" xmlns="http://www.w3.org/2000/svg">
<path d="M0 12C0 5.37258 5.37258 0 12 0V0C18.6274 0 24 5.37258 24 12V12C24 18.6274 18.6274 24 12 24V24C5.37258 24 0 18.6274 0 12V12Z" fill="#27C0CD"/>
<path d="M16.5904 7.29364C16.8766 6.94297 17.3815 6.90033 17.7181 7.1984C18.0547 7.49647 18.0957 8.02238 17.8095 8.37305L11.0095 16.7064C10.7189 17.0625 10.2039 17.1001 9.86851 16.7895L6.26852 13.4562C5.93829 13.1504 5.90855 12.6237 6.20208 12.2797C6.49561 11.9357 7.00127 11.9047 7.3315 12.2105L10.3202 14.9778L16.5904 7.29364Z" fill="white"/>
</svg>
