<svg width="24" height="24" viewBox="0 0 24 24" fill="none" xmlns="http://www.w3.org/2000/svg">
<path d="M16.2426 6.34262L6.34312 16.2421C5.9526 16.6326 5.9526 17.2658 6.34312 17.6563C6.73365 18.0468 7.36681 18.0468 7.75734 17.6563L17.6568 7.75683C18.0474 7.36631 18.0474 6.73314 17.6568 6.34262C17.2663 5.95209 16.6331 5.95209 16.2426 6.34262Z" fill="#F0426C"/>
<path d="M17.6568 16.2433L7.75734 6.34383C7.36681 5.9533 6.73365 5.9533 6.34313 6.34383C5.9526 6.73435 5.9526 7.36751 6.34313 7.75804L16.2426 17.6575C16.6331 18.0481 17.2663 18.0481 17.6568 17.6575C18.0474 17.267 18.0474 16.6338 17.6568 16.2433Z" fill="#F0426C"/>
</svg>
