<svg xmlns="http://www.w3.org/2000/svg" width="33" height="32" viewBox="0 0 33 32" fill="none">
<path fill-rule="evenodd" clip-rule="evenodd" d="M16.5001 10.6666H11.1667C8.22123 10.6666 5.83341 13.0544 5.83341 15.9999V17.3333C5.83341 19.5424 7.62428 21.3333 9.83342 21.3333V23.9999C6.15152 23.9999 3.16675 21.0151 3.16675 17.3333V15.9999C3.16675 11.5816 6.74847 7.99992 11.1667 7.99992H16.5001V6.30391C16.5001 6.16012 16.5466 6.02018 16.6326 5.90497C16.853 5.60998 17.2707 5.54946 17.5657 5.76979L21.3751 8.61507C21.4269 8.65381 21.4729 8.69989 21.5114 8.75186C21.7309 9.04751 21.6691 9.46508 21.3735 9.68452L17.5641 12.512C17.4492 12.5973 17.3099 12.6433 17.1667 12.6433C16.7986 12.6433 16.5001 12.3448 16.5001 11.9767V10.6666Z" fill="#EB008B"/>
<path opacity="0.3" fill-rule="evenodd" clip-rule="evenodd" d="M16.5778 21.3333H21.8334C24.7789 21.3333 27.1667 18.9455 27.1667 16V14.6667C27.1667 12.4575 25.3759 10.6667 23.1667 10.6667V8C26.8486 8 29.8334 10.9848 29.8334 14.6667V16C29.8334 20.4183 26.2517 24 21.8334 24H16.5778V25.3101C16.5778 25.6783 16.2793 25.9767 15.9111 25.9767C15.768 25.9767 15.6287 25.9307 15.5138 25.8454L11.7044 23.0179C11.4088 22.7985 11.347 22.3809 11.5664 22.0853C11.605 22.0333 11.651 21.9872 11.7028 21.9485L15.5122 19.1032C15.8072 18.8829 16.2249 18.9434 16.4453 19.2384C16.5313 19.3536 16.5778 19.4935 16.5778 19.6373V21.3333Z" fill="#EB008B"/>
</svg>