<svg width="24" height="24" viewBox="0 0 24 24" fill="none" xmlns="http://www.w3.org/2000/svg">
<path d="M21.9 4H2.1C1.49259 4 1 4.49259 1 5.1V18.3C1 18.9074 1.49259 19.4 2.1 19.4H21.9C22.5074 19.4 23 18.9074 23 18.3V5.1C23 4.49259 22.5074 4 21.9 4ZM7.05 14.1709V14.725C7.05 14.8769 6.92694 15 6.775 15H6.225C6.07306 15 5.95 14.8769 5.95 14.725V14.165C5.56191 14.1451 5.18447 14.0097 4.87166 13.7749C4.73759 13.6742 4.73072 13.4734 4.85206 13.3576L5.25597 12.9722C5.35119 12.8815 5.49281 12.8773 5.60419 12.9471C5.73722 13.0303 5.88812 13.075 6.04488 13.075H7.01116C7.23459 13.075 7.41678 12.8715 7.41678 12.6216C7.41678 12.4171 7.29269 12.2369 7.11531 12.184L5.56844 11.7199C4.92941 11.5281 4.48288 10.9149 4.48288 10.2284C4.48288 9.38553 5.13772 8.70078 5.94966 8.67912V8.125C5.94966 7.97306 6.07272 7.85 6.22466 7.85H6.77466C6.92659 7.85 7.04966 7.97306 7.04966 8.125V8.68497C7.43775 8.70491 7.81519 8.84 8.128 9.07513C8.26206 9.17584 8.26894 9.37659 8.14759 9.49244L7.74369 9.87778C7.64847 9.96853 7.50684 9.97266 7.39547 9.90287C7.26244 9.81934 7.11153 9.775 6.95478 9.775H5.9885C5.76506 9.775 5.58288 9.9785 5.58288 10.2284C5.58288 10.4329 5.70697 10.6131 5.88434 10.666L7.43122 11.1301C8.07025 11.3219 8.51678 11.9351 8.51678 12.6216C8.51678 13.4648 7.86194 14.1492 7.05 14.1709ZM15.3 13.625C15.3 13.7769 15.1769 13.9 15.025 13.9H11.175C11.0231 13.9 10.9 13.7769 10.9 13.625V13.075C10.9 12.9231 11.0231 12.8 11.175 12.8H15.025C15.1769 12.8 15.3 12.9231 15.3 13.075V13.625ZM20.8 13.625C20.8 13.7769 20.6769 13.9 20.525 13.9H17.775C17.6231 13.9 17.5 13.7769 17.5 13.625V13.075C17.5 12.9231 17.6231 12.8 17.775 12.8H20.525C20.6769 12.8 20.8 12.9231 20.8 13.075V13.625ZM20.8 10.325C20.8 10.4769 20.6769 10.6 20.525 10.6H11.175C11.0231 10.6 10.9 10.4769 10.9 10.325V9.775C10.9 9.62306 11.0231 9.5 11.175 9.5H20.525C20.6769 9.5 20.8 9.62306 20.8 9.775V10.325Z" fill="white"/>
</svg>
