<svg width="24" height="24" viewBox="0 0 24 24" fill="none" xmlns="http://www.w3.org/2000/svg">
<path d="M22 12C22 17.5242 17.5242 22 12 22C6.47581 22 2 17.5242 2 12C2 6.47581 6.47581 2 12 2C17.5242 2 22 6.47581 22 12ZM10.2258 7.32258V12H7.36694C6.93548 12 6.71774 12.5242 7.02419 12.8266L11.6573 17.4355C11.8468 17.625 12.1492 17.625 12.3387 17.4355L16.9718 12.8266C17.2782 12.5202 17.0605 12 16.629 12H13.7742V7.32258C13.7742 7.05645 13.5565 6.83871 13.2903 6.83871H10.7097C10.4435 6.83871 10.2258 7.05645 10.2258 7.32258Z" fill="#27C0CD"/>
</svg>
