<svg width="121" height="120" viewBox="0 0 121 120" fill="none" xmlns="http://www.w3.org/2000/svg">
<g clip-path="url(#clip0_10138_427432)">
<path opacity="0.3" fill-rule="evenodd" clip-rule="evenodd" d="M18 105H103C107.142 105 110.5 101.642 110.5 97.5V42.5C110.5 38.3579 107.142 35 103 35H50.5L37.6967 22.1967C36.2902 20.7902 34.3825 20 32.3934 20H18C13.8579 20 10.5 23.3579 10.5 27.5V97.5C10.5 101.642 13.8579 105 18 105Z" fill="#7F8299"/>
<path opacity="0.3" d="M42.7882 62.1845L36.9798 67.9929C35.5153 69.4573 35.5153 71.8317 36.9798 73.2962L42.7882 79.1046C44.2526 80.569 46.627 80.569 48.0915 79.1046L53.8998 73.2962C55.3643 71.8317 55.3643 69.4573 53.8998 67.9929L48.0915 62.1845C46.627 60.72 44.2526 60.72 42.7882 62.1845Z" fill="#7F8299"/>
<path opacity="0.3" d="M74.1944 62.1845L68.386 67.9929C66.9216 69.4573 66.9216 71.8317 68.386 73.2962L74.1944 79.1046C75.6589 80.569 78.0332 80.569 79.4977 79.1046L85.3061 73.2962C86.7705 71.8317 86.7705 69.4574 85.3061 67.9929L79.4977 62.1845C78.0332 60.72 75.6589 60.72 74.1944 62.1845Z" fill="#7F8299"/>
<path d="M58.4913 77.8876L52.6829 83.696C51.2184 85.1605 51.2184 87.5348 52.6829 88.9993L58.4913 94.8077C59.9557 96.2721 62.3301 96.2721 63.7946 94.8077L69.603 88.9993C71.0674 87.5348 71.0674 85.1605 69.603 83.696L63.7946 77.8876C62.3301 76.4232 59.9557 76.4232 58.4913 77.8876Z" fill="#7F8299"/>
<path d="M58.4913 46.4618L52.6829 52.2702C51.2184 53.7347 51.2184 56.1091 52.6829 57.5735L58.4913 63.3819C59.9557 64.8464 62.3301 64.8464 63.7946 63.3819L69.603 57.5735C71.0674 56.1091 71.0674 53.7347 69.603 52.2702L63.7946 46.4618C62.3301 44.9974 59.9557 44.9974 58.4913 46.4618Z" fill="#7F8299"/>
</g>
<defs>
<clipPath id="clip0_10138_427432">
<rect width="120" height="120" fill="white" transform="translate(0.5)"/>
</clipPath>
</defs>
</svg>
