<svg width="22" height="20" viewBox="0 0 22 20" fill="none" xmlns="http://www.w3.org/2000/svg">
<path d="M9.20653 2.63397C9.98776 1.05103 10.3784 0.259551 11 0.259551C11.6216 0.259551 12.0122 1.05102 12.7935 2.63397L14.0614 5.20301C14.2893 5.66488 14.4033 5.89581 14.603 6.04091C14.8027 6.186 15.0575 6.22303 15.5672 6.2971L18.4023 6.70906C20.1492 6.9629 21.0227 7.08982 21.2148 7.68102C21.4069 8.27222 20.7748 8.8883 19.5108 10.1204L17.4593 12.1202C17.0905 12.4797 16.906 12.6594 16.8298 12.8942C16.7535 13.129 16.797 13.3828 16.8841 13.8904L17.3684 16.7141C17.6668 18.4539 17.816 19.3238 17.3131 19.6892C16.8102 20.0546 16.0289 19.6439 14.4665 18.8224L11.9307 17.4893C11.4748 17.2496 11.2468 17.1298 11 17.1298C10.7532 17.1298 10.5252 17.2496 10.0693 17.4893L7.53352 18.8224C5.97106 19.6439 5.18983 20.0546 4.68692 19.6892C4.18402 19.3238 4.33322 18.4539 4.63162 16.7141L5.11592 13.8904C5.20298 13.3828 5.24652 13.129 5.17024 12.8942C5.09396 12.6594 4.90955 12.4797 4.54072 12.1202L2.48922 10.1205C1.22516 8.8883 0.593134 8.27222 0.785227 7.68102C0.97732 7.08982 1.85076 6.9629 3.59765 6.70906L6.43275 6.2971C6.94245 6.22303 7.1973 6.186 7.39701 6.04091C7.59671 5.89581 7.71068 5.66488 7.93863 5.20301L9.20653 2.63397Z" fill="#FEAD0D"/>
</svg>
