<svg width="24" height="24" viewBox="0 0 24 24" fill="none" xmlns="http://www.w3.org/2000/svg">
<path opacity="0.3" fill-rule="evenodd" clip-rule="evenodd" d="M4.05121 17.4848L2.60164 16.0352C2.21111 15.6447 2.21111 15.0115 2.60164 14.621L6.13717 11.0855L7.55139 12.4997C7.94191 12.8902 8.57507 12.8902 8.9656 12.4997C9.35612 12.1092 9.35612 11.476 8.9656 11.0855L7.55139 9.67127L14.6225 2.6002C15.013 2.20968 15.6461 2.20968 16.0367 2.6002L17.4862 4.04978C16.8431 5.02046 16.9492 6.34117 17.8044 7.1964C18.6597 8.05163 19.9804 8.15769 20.9511 7.51459L22.4006 8.96416C22.7912 9.35469 22.7912 9.98785 22.4006 10.3784L15.3296 17.4494L13.9153 16.0352C13.5248 15.6447 12.8917 15.6447 12.5011 16.0352C12.1106 16.4258 12.1106 17.0589 12.5011 17.4494L13.9153 18.8637L10.3798 22.3992C9.98929 22.7897 9.35612 22.7897 8.9656 22.3992L7.51602 20.9496C8.15913 19.9789 8.05306 18.6582 7.19783 17.803C6.3426 16.9478 5.0219 16.8417 4.05121 17.4848ZM9.67271 13.2068C9.28218 13.5973 9.28218 14.2305 9.67271 14.621L10.3798 15.3281C10.7703 15.7186 11.4035 15.7186 11.794 15.3281C12.1846 14.9376 12.1846 14.3044 11.794 13.9139L11.0869 13.2068C10.6964 12.8163 10.0632 12.8163 9.67271 13.2068Z" fill="#7F8299"/>
</svg>
