<svg width="32" height="32" viewBox="0 0 32 32" fill="none" xmlns="http://www.w3.org/2000/svg">
<path opacity="0.3" d="M4.69694 18.7031C3.76769 17.7683 3.76769 16.2586 4.69694 15.3238L15.4837 4.71888C15.9319 4.2782 16.5354 4.03125 17.1639 4.03125H25.7699C27.0935 4.03125 28.1666 5.10429 28.1666 6.42795V15.0093C28.1666 15.6524 27.9081 16.2686 27.4492 16.7192L16.6804 27.2953C16.2309 27.7453 15.6209 27.9982 14.9848 27.9982C14.3487 27.9982 13.7386 27.7453 13.2891 27.2953L4.69694 18.7031ZM22.5743 12.0202C23.898 12.0202 24.971 10.9472 24.971 9.62354C24.971 8.29988 23.898 7.22684 22.5743 7.22684C21.2506 7.22684 20.1776 8.29988 20.1776 9.62354C20.1776 10.9472 21.2506 12.0202 22.5743 12.0202Z" fill="#EC008C"/>
</svg>
