<svg width="40" height="40" viewBox="0 0 40 40" fill="none" xmlns="http://www.w3.org/2000/svg">
<path d="M31.375 3H8.625C7.72753 3 7 3.71354 7 4.59375V5.65625C7 6.53646 7.72753 7.25 8.625 7.25C8.625 13.2906 12.0792 18.3886 16.807 20C12.0792 21.6114 8.625 26.7094 8.625 32.75C7.72753 32.75 7 33.4635 7 34.3438V35.4062C7 36.2865 7.72753 37 8.625 37H31.375C32.2725 37 33 36.2865 33 35.4062V34.3438C33 33.4635 32.2725 32.75 31.375 32.75C31.375 26.7094 27.9208 21.6114 23.193 20C27.9208 18.3886 31.375 13.2906 31.375 7.25C32.2725 7.25 33 6.53646 33 5.65625V4.59375C33 3.71354 32.2725 3 31.375 3ZM26.2916 28.5H13.7085C14.8636 25.3924 17.2359 23.1875 20 23.1875C22.7639 23.1875 25.1365 25.3919 26.2916 28.5ZM26.2929 11.5H13.7084C13.2284 10.2083 12.9583 8.76061 12.9583 7.25H27.0417C27.0417 8.76439 26.7717 10.2109 26.2929 11.5Z" fill="#019EF7"/>
</svg>
