<svg width="24" height="24" viewBox="0 0 24 24" fill="none" xmlns="http://www.w3.org/2000/svg">
<path opacity="0.3" fill-rule="evenodd" clip-rule="evenodd" d="M4 4.00006L11.6314 2.56917C11.875 2.52349 12.125 2.52349 12.3686 2.56917L20 4.00006V13.2831C20 16.2174 18.4883 18.9448 16 20.5001L12.53 22.6688C12.2057 22.8715 11.7943 22.8715 11.47 22.6688L8 20.5001C5.51165 18.9448 4 16.2174 4 13.2831V4.00006Z" fill="white" fill-opacity="0.8"/>
<path opacity="0.3" fill-rule="evenodd" clip-rule="evenodd" d="M12 11C10.8954 11 10 10.1046 10 9C10 7.89543 10.8954 7 12 7C13.1046 7 14 7.89543 14 9C14 10.1046 13.1046 11 12 11Z" fill="white" fill-opacity="0.8"/>
<path opacity="0.3" fill-rule="evenodd" clip-rule="evenodd" d="M7.00036 16.4995C7.2157 13.5166 9.36773 12 11.9907 12C14.6507 12 16.836 13.4332 16.9988 16.5C17.0053 16.6222 16.9988 17 16.5815 17C14.5228 17 11.4637 17 7.40417 17C7.26484 17 6.98863 16.662 7.00036 16.4995Z" fill="white" fill-opacity="0.8"/>
</svg>
