<svg width="33" height="32" viewBox="0 0 33 32" fill="none" xmlns="http://www.w3.org/2000/svg">
<path opacity="0.3" fill-rule="evenodd" clip-rule="evenodd" d="M16.5 26.6957L11.7979 28.9714L9.6587 24.2057L4.59394 22.9265L6.01855 17.9007L2.96094 13.6653L7.28276 10.731L7.66299 5.52108L12.8598 6.05133L16.5 2.30469L20.1401 6.05133L25.3369 5.52108L25.7172 10.731L30.039 13.6653L26.9814 17.9007L28.406 22.9265L23.3412 24.2057L21.202 28.9714L16.5 26.6957Z" fill="#EC008C"/>
<path fill-rule="evenodd" clip-rule="evenodd" d="M19.2862 11.4688L11.6484 19.6006L13.4456 21.3978L21.0833 13.2659L19.2862 11.4688Z" fill="#EC008C"/>
<path opacity="0.3" fill-rule="evenodd" clip-rule="evenodd" d="M14.9733 12.2366C14.9733 13.5031 13.9482 14.5279 12.6819 14.5279C11.418 14.5279 10.3906 13.5031 10.3906 12.2366C10.3906 10.9701 11.418 9.94531 12.6819 9.94531C13.9482 9.94531 14.9733 10.9701 14.9733 12.2366Z" fill="#EC008C"/>
<path opacity="0.3" fill-rule="evenodd" clip-rule="evenodd" d="M20.3187 22.1608C19.0548 22.1608 18.0273 21.1359 18.0273 19.8694C18.0273 18.6006 19.0548 17.5781 20.3187 17.5781C21.5849 17.5781 22.61 18.6006 22.61 19.8694C22.61 21.1359 21.5849 22.1608 20.3187 22.1608Z" fill="#EC008C"/>
</svg>
