<svg width="32" height="32" viewBox="0 0 32 32" fill="none" xmlns="http://www.w3.org/2000/svg">
<path d="M28.2838 19.6069C28.2324 16.3863 27.0754 13.7067 24.89 11.5167C22.8332 9.5843 20.1079 8.60522 16.6113 8.60522C12.9604 8.60522 9.90088 10.0223 7.50982 12.8049C5.76151 14.9434 4.83594 17.623 4.83594 20.9982C4.83594 24.0643 5.81293 26.8469 7.84405 28.8051C10.5436 31.3043 13.0375 31.9227 17.0741 32C19.5937 32 22.9875 31.3816 25.3271 30.016C25.1214 28.7535 24.5301 27.5426 23.9645 26.8212C21.9591 27.7487 19.3109 28.3928 17.3569 28.3928C12.9861 28.3928 10.4151 27.0788 9.30955 23.1883C15.0944 23.2913 22.319 22.776 28.0267 21.3332C28.181 21.3074 28.2838 20.6891 28.2838 19.6069ZM9.48952 20.0449C9.48952 18.9628 9.9523 16.1029 10.3637 15.1496C10.7493 14.1963 11.5206 13.0626 12.4205 12.9853C15.2486 12.7019 15.5829 17.958 15.7371 19.7615C13.2947 19.9676 11.3664 20.1222 9.48952 20.0449ZM18.6681 19.5039C18.6167 18.4475 18.4882 15.4845 18.7453 14.1447C18.9509 13.1141 19.4909 12.5473 20.3907 12.4185C23.1932 12.0062 24.3758 16.7728 24.6329 18.5763C22.7818 19.0659 20.6221 19.4523 18.6681 19.5039Z" fill="#27C0CD"/>
<path d="M13.7061 7.18847C13.089 7.36882 12.4977 7.54918 11.9063 7.80683C9.43813 8.88897 7.6127 10.306 6.3786 12.0838C6.27576 11.955 6.12149 11.8004 5.91581 11.5943L1.00513 6.49281C1.00513 6.49281 4.45032 8.19331 5.68442 7.3173C6.8671 6.46705 6.27576 3.2464 6.27576 3.2464C6.27576 3.2464 8.89822 5.20456 10.1323 4.56043C11.315 3.9163 11.5464 0 11.5464 0C11.5464 0 13.1404 5.28185 13.6032 6.87929L13.7061 7.18847Z" fill="#EC008C"/>
</svg>
