<svg width="24" height="24" viewBox="0 0 24 24" fill="none" xmlns="http://www.w3.org/2000/svg">
<path d="M13.5 6.375V0H4.125C3.50156 0 3 0.501562 3 1.125V22.875C3 23.4984 3.50156 24 4.125 24H19.875C20.4984 24 21 23.4984 21 22.875V7.5H14.625C14.0063 7.5 13.5 6.99375 13.5 6.375ZM16.3172 11.3672L13.5 15.75L16.3172 20.1328C16.5563 20.5078 16.2891 21 15.8438 21H14.2078C14.0016 21 13.8094 20.8875 13.7109 20.7047C12.7922 19.0078 12 17.4844 12 17.4844C11.7 18.1781 11.5312 18.4219 10.2844 20.7094C10.1859 20.8922 9.99844 21.0047 9.79219 21.0047H8.15625C7.71094 21.0047 7.44375 20.5125 7.68281 20.1375L10.5094 15.7547L7.68281 11.3719C7.43906 10.9969 7.71094 10.5047 8.15625 10.5047H9.7875C9.99375 10.5047 10.1859 10.6172 10.2844 10.8C11.5078 13.0875 11.2219 12.375 12 14.0109C12 14.0109 12.2859 13.4625 13.7156 10.8C13.8141 10.6172 14.0062 10.5047 14.2125 10.5047H15.8438C16.2891 10.5 16.5563 10.9922 16.3172 11.3672ZM21 5.71406V6H15V0H15.2859C15.5859 0 15.8719 0.117188 16.0828 0.328125L20.6719 4.92188C20.8828 5.13281 21 5.41875 21 5.71406Z" fill="#EB008B"/>
</svg>
