<svg width="27" height="27" viewBox="0 0 27 27" fill="none" xmlns="http://www.w3.org/2000/svg">
<path fill-rule="evenodd" clip-rule="evenodd" d="M13.5016 2.7998L3.60156 10.4998V22.5998C3.60156 23.1833 3.83335 23.7429 4.24593 24.1554C4.65851 24.568 5.21809 24.7998 5.80156 24.7998H21.2016C21.785 24.7998 22.3446 24.568 22.7572 24.1554C23.1698 23.7429 23.4016 23.1833 23.4016 22.5998V10.4998L13.5016 2.7998ZM13.5015 11.9998C11.0162 11.9998 9.00153 14.0145 9.00153 16.4998C9.00153 18.9851 11.0162 20.9998 13.5015 20.9998C15.9868 20.9998 18.0015 18.9851 18.0015 16.4998C18.0015 14.0145 15.9868 11.9998 13.5015 11.9998Z" fill="#27C0CD"/>
<path d="M3.60156 10.4998L2.98762 9.71045C2.74404 9.89991 2.60156 10.1912 2.60156 10.4998H3.60156ZM13.5016 2.7998L14.1155 2.01045C13.7544 1.72959 13.2487 1.72959 12.8876 2.01045L13.5016 2.7998ZM4.24593 24.1554L4.95303 23.4483L4.95303 23.4483L4.24593 24.1554ZM23.4016 10.4998H24.4016C24.4016 10.1912 24.2591 9.89991 24.0155 9.71045L23.4016 10.4998ZM4.2155 11.2892L14.1155 3.58916L12.8876 2.01045L2.98762 9.71045L4.2155 11.2892ZM4.60156 22.5998V10.4998H2.60156V22.5998H4.60156ZM4.95303 23.4483C4.72799 23.2233 4.60156 22.9181 4.60156 22.5998H2.60156C2.60156 23.4485 2.9387 24.2624 3.53882 24.8625L4.95303 23.4483ZM5.80156 23.7998C5.4833 23.7998 5.17808 23.6734 4.95303 23.4483L3.53882 24.8625C4.13894 25.4627 4.95287 25.7998 5.80156 25.7998V23.7998ZM21.2016 23.7998H5.80156V25.7998H21.2016V23.7998ZM22.0501 23.4483C21.825 23.6734 21.5198 23.7998 21.2016 23.7998V25.7998C22.0503 25.7998 22.8642 25.4627 23.4643 24.8625L22.0501 23.4483ZM22.4016 22.5998C22.4016 22.9181 22.2751 23.2233 22.0501 23.4483L23.4643 24.8625C24.0644 24.2624 24.4016 23.4485 24.4016 22.5998H22.4016ZM22.4016 10.4998V22.5998H24.4016V10.4998H22.4016ZM12.8876 3.58916L22.7876 11.2892L24.0155 9.71045L14.1155 2.01045L12.8876 3.58916ZM10.0015 16.4998C10.0015 14.5668 11.5685 12.9998 13.5015 12.9998V10.9998C10.464 10.9998 8.00153 13.4622 8.00153 16.4998H10.0015ZM13.5015 19.9998C11.5685 19.9998 10.0015 18.4328 10.0015 16.4998H8.00153C8.00153 19.5374 10.464 21.9998 13.5015 21.9998V19.9998ZM17.0015 16.4998C17.0015 18.4328 15.4345 19.9998 13.5015 19.9998V21.9998C16.5391 21.9998 19.0015 19.5374 19.0015 16.4998H17.0015ZM13.5015 12.9998C15.4345 12.9998 17.0015 14.5668 17.0015 16.4998H19.0015C19.0015 13.4622 16.5391 10.9998 13.5015 10.9998V12.9998Z" fill="#27C0CD"/>
</svg>
