<svg width="24" height="24" viewBox="0 0 24 24" fill="none" xmlns="http://www.w3.org/2000/svg">
<path opacity="0.3" fill-rule="evenodd" clip-rule="evenodd" d="M3.5 21H20.5C21.3284 21 22 20.3284 22 19.5V8.5C22 7.67157 21.3284 7 20.5 7H10L7.43934 4.43934C7.15804 4.15804 6.7765 4 6.37868 4H3.5C2.67157 4 2 4.67157 2 5.5V19.5C2 20.3284 2.67157 21 3.5 21Z" fill="white" fill-opacity="0.8"/>
<path fill-rule="evenodd" clip-rule="evenodd" d="M8.54297 14.4923H10.6661V16.5C10.6661 16.7761 10.8899 17 11.1661 17H12.3339C12.61 17 12.8339 16.7761 12.8339 16.5V14.4923H14.957C15.2331 14.4923 15.457 14.2685 15.457 13.9923C15.457 13.8681 15.4107 13.7484 15.3273 13.6564L12.1203 10.1211C11.9348 9.91657 11.6186 9.90117 11.414 10.0867C11.402 10.0976 11.3905 10.1091 11.3796 10.1211L8.17264 13.6564C7.98711 13.8609 8.0025 14.1771 8.20703 14.3626C8.29902 14.4461 8.41877 14.4923 8.54297 14.4923Z" fill="white" fill-opacity="0.8"/>
</svg>
