<svg width="24" height="24" viewBox="0 0 24 24" fill="none" xmlns="http://www.w3.org/2000/svg">
<g clip-path="url(#clip0_3769:13465)">
<path opacity="0.3" fill-rule="evenodd" clip-rule="evenodd" d="M3.87608 3.74515L22.2287 8.66271C22.7621 8.80565 23.0787 9.35399 22.9358 9.88745L20.3476 19.5467C20.2046 20.0802 19.6563 20.3968 19.1228 20.2538L0.770254 15.3363C0.236787 15.1933 -0.0797949 14.645 0.0631468 14.1115L2.65134 4.45225C2.79428 3.91879 3.34262 3.60221 3.87608 3.74515ZM10.4642 15.8632C12.5981 16.435 14.7914 15.1686 15.3632 13.0348C15.9349 10.9009 14.6686 8.70755 12.5347 8.13578C10.4009 7.56401 8.20753 8.83034 7.63576 10.9642C7.06399 13.0981 8.33032 15.2914 10.4642 15.8632Z" fill="#7F8299"/>
<path fill-rule="evenodd" clip-rule="evenodd" d="M2 6H21C21.5523 6 22 6.44772 22 7V17C22 17.5523 21.5523 18 21 18H2C1.44772 18 1 17.5523 1 17V7C1 6.44772 1.44772 6 2 6ZM11.5 16C13.7091 16 15.5 14.2091 15.5 12C15.5 9.79086 13.7091 8 11.5 8C9.29086 8 7.5 9.79086 7.5 12C7.5 14.2091 9.29086 16 11.5 16ZM11.5 14C12.6046 14 13.5 13.1046 13.5 12C13.5 10.8954 12.6046 10 11.5 10C10.3954 10 9.5 10.8954 9.5 12C9.5 13.1046 10.3954 14 11.5 14Z" fill="#7F8299"/>
</g>
<defs>
<clipPath id="clip0_3769:13465">
<rect width="24" height="24" fill="white"/>
</clipPath>
</defs>
</svg>
