<svg width="24" height="24" viewBox="0 0 24 24" fill="none" xmlns="http://www.w3.org/2000/svg">
<path opacity="0.3" d="M13.5 3C13.5 2.44772 13.0523 2 12.5 2C11.9477 2 11.5 2.44772 11.5 3V5C11.5 5.55228 11.9477 6 12.5 6C13.0523 6 13.5 5.55228 13.5 5V3Z" fill="#7F8299"/>
<path opacity="0.3" d="M13.5 17C13.5 16.4477 13.0523 16 12.5 16C11.9477 16 11.5 16.4477 11.5 17V20C11.5 20.5523 11.9477 21 12.5 21C13.0523 21 13.5 20.5523 13.5 20V17Z" fill="#7F8299"/>
<path fill-rule="evenodd" clip-rule="evenodd" d="M15.4932 8.04308C15.2145 7.68841 14.8503 7.40658 14.4007 7.19758C13.951 6.98858 13.5172 6.88408 13.0992 6.88408C12.8838 6.88408 12.6653 6.90308 12.4437 6.94108C12.222 6.97908 12.0225 7.05191 11.8452 7.15958C11.6678 7.26725 11.519 7.40658 11.3987 7.57758C11.2783 7.74858 11.2182 7.96708 11.2182 8.23308C11.2182 8.46108 11.2657 8.65108 11.3607 8.80308C11.4557 8.95508 11.595 9.08808 11.7787 9.20208C11.9623 9.31608 12.1808 9.42058 12.4342 9.51558C12.6875 9.61058 12.9725 9.70874 13.2892 9.81008C13.7452 9.96208 14.2202 10.1299 14.7142 10.3136C15.2082 10.4972 15.6578 10.7411 16.0632 11.0451C16.4685 11.3491 16.8042 11.7259 17.0702 12.1756C17.3362 12.6252 17.4692 13.1857 17.4692 13.8571C17.4692 14.6297 17.3267 15.2979 17.0417 15.8616C16.7567 16.4252 16.3735 16.8907 15.8922 17.2581C15.4108 17.6254 14.8598 17.8977 14.2392 18.0751C13.6185 18.2524 12.9788 18.3411 12.3202 18.3411C11.3575 18.3411 10.4265 18.1732 9.52716 17.8376C8.62782 17.5019 7.88049 17.0237 7.28516 16.4031L9.41316 14.2371C9.74249 14.6424 10.1763 14.9812 10.7147 15.2536C11.253 15.5259 11.7882 15.6621 12.3202 15.6621C12.5608 15.6621 12.7952 15.6367 13.0232 15.5861C13.2512 15.5354 13.4507 15.4531 13.6217 15.3391C13.7927 15.2251 13.9288 15.0731 14.0302 14.8831C14.1315 14.6931 14.1822 14.4651 14.1822 14.1991C14.1822 13.9457 14.1188 13.7304 13.9922 13.5531C13.8655 13.3757 13.685 13.2142 13.4507 13.0686C13.2163 12.9229 12.925 12.7899 12.5767 12.6696C12.2283 12.5492 11.8325 12.4194 11.3892 12.2801C10.9585 12.1407 10.5373 11.9761 10.1257 11.7861C9.71399 11.5961 9.34666 11.3522 9.02366 11.0546C8.70066 10.7569 8.44099 10.3959 8.24466 9.97158C8.04832 9.54724 7.95016 9.03108 7.95016 8.42308C7.95016 7.67574 8.10216 7.03608 8.40616 6.50408C8.71016 5.97208 9.10915 5.53508 9.60316 5.19308C10.0972 4.85108 10.6545 4.60091 11.2752 4.44258C11.8958 4.28424 12.5228 4.20508 13.1562 4.20508C13.9162 4.20508 14.692 4.34441 15.4837 4.62308C16.2753 4.90175 16.9688 5.31341 17.5642 5.85808L15.4932 8.04308Z" fill="#7F8299"/>
</svg>
