<svg width="25" height="24" viewBox="0 0 25 24" fill="none" xmlns="http://www.w3.org/2000/svg">
<path d="M12.5 3C7.53711 3 3.5 7.03711 3.5 12C3.5 16.9629 7.53711 21 12.5 21C17.4629 21 21.5 16.9629 21.5 12C21.5 7.03711 17.4629 3 12.5 3ZM12.5 4.5C16.6514 4.5 20 7.84863 20 12C20 16.1514 16.6514 19.5 12.5 19.5C8.34863 19.5 5 16.1514 5 12C5 7.84863 8.34863 4.5 12.5 4.5ZM12.5 7.5C12.0858 7.5 11.75 7.83579 11.75 8.25V12.75C11.75 13.1642 12.0858 13.5 12.5 13.5C12.9142 13.5 13.25 13.1642 13.25 12.75V8.25C13.25 7.83579 12.9142 7.5 12.5 7.5ZM12.5 15C12.0858 15 11.75 15.3358 11.75 15.75C11.75 16.1642 12.0858 16.5 12.5 16.5C12.9142 16.5 13.25 16.1642 13.25 15.75C13.25 15.3358 12.9142 15 12.5 15Z" fill="#F0426C"/>
</svg>
