<svg width="64" height="64" viewBox="0 0 64 64" fill="none" xmlns="http://www.w3.org/2000/svg">
<path fill-rule="evenodd" clip-rule="evenodd" d="M21.334 35.1115L54.5261 31.9997L21.334 28.888V15.3913C21.334 15.2026 21.374 15.0161 21.4514 14.8441C21.7536 14.1726 22.5429 13.8732 23.2145 14.1754L60.1221 30.7838C60.4193 30.9175 60.6572 31.1554 60.7909 31.4526C61.093 32.1241 60.7936 32.9134 60.1221 33.2156L23.2145 49.8241C23.0424 49.9015 22.856 49.9415 22.6673 49.9415C21.9309 49.9415 21.334 49.3446 21.334 48.6082V35.1115Z" fill="#27C0CD"/>
<path opacity="0.3" fill-rule="evenodd" clip-rule="evenodd" d="M10.6667 42.6667H13.3333C14.8061 42.6667 16 43.8606 16 45.3333C16 46.8061 14.8061 48 13.3333 48H10.6667C9.19391 48 8 46.8061 8 45.3333C8 43.8606 9.19391 42.6667 10.6667 42.6667ZM2.66667 29.3333H13.3333C14.8061 29.3333 16 30.5272 16 32C16 33.4728 14.8061 34.6667 13.3333 34.6667H2.66667C1.19391 34.6667 0 33.4728 0 32C0 30.5272 1.19391 29.3333 2.66667 29.3333ZM10.6667 16H13.3333C14.8061 16 16 17.1939 16 18.6667C16 20.1394 14.8061 21.3333 13.3333 21.3333H10.6667C9.19391 21.3333 8 20.1394 8 18.6667C8 17.1939 9.19391 16 10.6667 16Z" fill="#27C0CD"/>
</svg>
