<svg width="32" height="32" viewBox="0 0 32 32" fill="none" xmlns="http://www.w3.org/2000/svg">
<path opacity="0.3" d="M24.83 13H25C26.6569 13 28 14.3431 28 16C28 17.6569 26.6569 19 25 19L24.914 19C24.6549 19.001 24.4212 19.1558 24.3191 19.3939C24.2076 19.6469 24.2591 19.9308 24.4371 20.1129L24.4967 20.1725C25.06 20.7352 25.3766 21.4988 25.3766 22.295C25.3766 23.0912 25.06 23.8548 24.4975 24.4167C23.9348 24.98 23.1712 25.2966 22.375 25.2966C21.5788 25.2966 20.8152 24.98 20.2529 24.4171L20.2007 24.3649C20.0108 24.1791 19.7269 24.1276 19.4739 24.2391C19.2358 24.3412 19.081 24.5749 19.08 24.83V25C19.08 26.6569 17.7369 28 16.08 28C14.4231 28 13.08 26.6569 13.08 25C13.074 24.6666 12.9053 24.4307 12.5962 24.3149C12.3531 24.2076 12.0692 24.2591 11.8871 24.4371L11.8275 24.4967C11.2648 25.06 10.5012 25.3766 9.705 25.3766C8.90877 25.3766 8.14521 25.06 7.58329 24.4975C7.01996 23.9348 6.70343 23.1712 6.70343 22.375C6.70343 21.5788 7.01996 20.8152 7.58289 20.2529L7.63514 20.2007C7.82095 20.0108 7.87243 19.7269 7.76086 19.4739C7.6588 19.2358 7.42508 19.081 7.17 19.08H7C5.34315 19.08 4 17.7369 4 16.08C4 14.4231 5.34315 13.08 7 13.08C7.33344 13.074 7.56934 12.9053 7.68514 12.5962C7.79243 12.3531 7.74095 12.0692 7.56289 11.8871L7.50329 11.8275C6.93996 11.2648 6.62343 10.5012 6.62343 9.705C6.62343 8.90877 6.93996 8.14521 7.5025 7.58329C8.0652 7.01996 8.82877 6.70343 9.625 6.70343C10.4212 6.70343 11.1848 7.01996 11.7471 7.58289L11.7993 7.63514C11.9892 7.82095 12.2731 7.87243 12.5162 7.76514L12.6598 7.73487C12.8672 7.62252 12.9991 7.40535 13 7.17V7C13 5.34315 14.3431 4 16 4C17.6569 4 19 5.34315 19 7L19 7.08601C19.001 7.34508 19.1558 7.5788 19.4038 7.68514C19.6469 7.79243 19.9308 7.74095 20.1129 7.56289L20.1725 7.50329C20.7352 6.93996 21.4988 6.62343 22.295 6.62343C23.0912 6.62343 23.8548 6.93996 24.4167 7.5025C24.98 8.0652 25.2966 8.82877 25.2966 9.625C25.2966 10.4212 24.98 11.1848 24.4171 11.7471L24.3649 11.7993C24.1791 11.9892 24.1276 12.2731 24.2349 12.5162L24.2651 12.6598C24.3775 12.8672 24.5946 12.9991 24.83 13Z" fill="#EC008C"/>
<path fill-rule="evenodd" clip-rule="evenodd" d="M16 20C18.2091 20 20 18.2091 20 16C20 13.7909 18.2091 12 16 12C13.7909 12 12 13.7909 12 16C12 18.2091 13.7909 20 16 20Z" fill="#EC008C"/>
</svg>
