<svg width="20" height="20" viewBox="0 0 20 20" fill="none" xmlns="http://www.w3.org/2000/svg">
<path opacity="0.3" d="M10.8334 9.16659C10.8334 8.70635 10.4603 8.33325 10.0001 8.33325C9.53984 8.33325 9.16675 8.70635 9.16675 9.16659V15.8333C9.16675 16.2935 9.53984 16.6666 10.0001 16.6666C10.4603 16.6666 10.8334 16.2935 10.8334 15.8333V9.16659Z" fill="#27C0CD"/>
<path d="M5.58934 10.5893C5.2639 10.9148 4.73626 10.9148 4.41083 10.5893C4.08539 10.2639 4.08539 9.73626 4.41083 9.41083L9.41083 4.41083C9.72631 4.09534 10.2343 4.08431 10.5632 4.38579L15.5632 8.96912C15.9025 9.28011 15.9254 9.80725 15.6144 10.1465C15.3034 10.4858 14.7762 10.5087 14.437 10.1977L10.0251 6.15353L5.58934 10.5893Z" fill="#27C0CD"/>
</svg>
