<svg width="20" height="20" viewBox="0 0 20 20" fill="none" xmlns="http://www.w3.org/2000/svg">
<path opacity="0.3" d="M10.8334 5.00008C10.8334 4.53984 10.4603 4.16675 10.0001 4.16675C9.53984 4.16675 9.16675 4.53984 9.16675 5.00008V15.0001C9.16675 15.4603 9.53984 15.8334 10.0001 15.8334C10.4603 15.8334 10.8334 15.4603 10.8334 15.0001V5.00008Z" fill="#EC008C"/>
<path d="M5.58934 9.41066C5.2639 9.08522 4.73626 9.08522 4.41083 9.41066C4.08539 9.7361 4.08539 10.2637 4.41083 10.5892L9.41083 15.5892C9.72631 15.9047 10.2343 15.9157 10.5632 15.6142L15.5632 11.0309C15.9025 10.7199 15.9254 10.1927 15.6144 9.85348C15.3034 9.51422 14.7762 9.4913 14.437 9.80229L10.0251 13.8465L5.58934 9.41066Z" fill="#EC008C"/>
</svg>
