<svg width="64" height="64" viewBox="0 0 64 64" fill="none" xmlns="http://www.w3.org/2000/svg">
<path opacity="0.3" d="M15.6194 5.33203H36.6308C37.5766 5.33203 38.4918 5.66719 39.214 6.278L51.9169 17.0225C52.8154 17.7826 53.3337 18.8997 53.3337 20.0766V53.5543C53.3337 58.329 53.2791 58.6654 48.3813 58.6654H15.6194C10.7215 58.6654 10.667 58.329 10.667 53.5543V10.4431C10.667 5.66836 10.7215 5.33203 15.6194 5.33203ZM29.0003 41.9987C29.6392 41.9987 30.2781 41.7431 30.7892 41.232L41.0114 31.0098C42.0337 29.9876 42.0337 28.4543 41.0114 27.432C39.9892 26.4098 38.4559 26.4098 37.4337 27.432L29.0003 35.8654L25.6781 32.5431C24.7837 31.5209 23.1225 31.5209 22.1003 32.5431C21.0781 33.5654 21.0781 35.0987 22.1003 36.1209L27.2114 41.232C27.7225 41.7431 28.3614 41.9987 29.0003 41.9987Z" fill="#27C0CD"/>
<path fill-rule="evenodd" clip-rule="evenodd" d="M28.9997 42.0013C28.3608 42.0013 27.7219 41.7457 27.2108 41.2346L22.0997 36.1235C21.0775 35.1013 21.0775 33.568 22.0997 32.5457C23.1219 31.5235 24.783 31.5235 25.6775 32.5457L28.9997 35.868L37.433 27.4346C38.4552 26.4124 39.9886 26.4124 41.0108 27.4346C42.033 28.4569 42.033 29.9902 41.0108 31.0124L30.7886 41.2346C30.2775 41.7457 29.6386 42.0013 28.9997 42.0013Z" fill="#27C0CD"/>
</svg>
