<svg width="25" height="25" viewBox="0 0 25 25" fill="none" xmlns="http://www.w3.org/2000/svg">
<g clip-path="url(#clip0_6596_40227)">
<path d="M20.0354 10C19.4534 9.99609 18.8987 10.0898 18.3792 10.2695L17.094 8.125H20.3128C20.8323 8.125 21.2503 7.70703 21.2503 7.1875V5.9375C21.2503 5.41797 20.8323 5 20.3128 5H18.5433C18.2776 5 18.0237 5.11328 17.8479 5.30859L16.3831 6.9375L15.4925 5.45312C15.3206 5.17187 15.0159 5 14.6878 5H11.5628C11.219 5 10.9378 5.28125 10.9378 5.625V6.25C10.9378 6.59375 11.219 6.875 11.5628 6.875H14.1565L14.9065 8.125H8.90263C8.21123 7.22266 7.14873 6.5625 5.00029 6.5625H2.83232C2.30498 6.5625 1.86357 6.99219 1.87529 7.51953C1.8831 8.02734 2.30107 8.4375 2.81279 8.4375H5.00029C5.95732 8.4375 6.51201 8.86328 6.86748 9.40625L6.42607 10.207C5.91826 10.0547 5.37529 9.98438 4.81279 10.0039C2.18388 10.0977 0.0627883 12.25 0.000288315 14.8828C-0.0622117 17.6992 2.19951 20 5.00029 20C7.32841 20 9.28544 18.4062 9.84404 16.25H13.1331C13.6683 16.25 14.094 15.8047 14.0706 15.2695C13.9886 13.4297 14.7542 11.6094 16.2659 10.3867L16.7542 11.1992C15.6761 12.125 14.9925 13.5 15.0042 15.0352C15.0237 17.7539 17.2386 19.9766 19.9573 20C22.7542 20.0273 25.0276 17.7539 25.0042 14.957C24.9769 12.2383 22.7542 10.0195 20.0354 10ZM5.00029 18.125C3.27763 18.125 1.87529 16.7227 1.87529 15C1.87529 13.2773 3.27763 11.875 5.00029 11.875C5.16435 11.875 5.32841 11.8867 5.48857 11.9141L3.86748 14.8594C3.52373 15.4844 3.97685 16.25 4.68779 16.25H7.86357C7.37919 17.3516 6.27763 18.125 5.00029 18.125ZM23.1214 15.1719C23.0354 16.7578 21.7542 18.0391 20.1722 18.1211C18.3714 18.2188 16.8753 16.7812 16.8753 15C16.8753 14.1641 17.2034 13.4062 17.7386 12.8477L19.6683 16.0664C19.844 16.3633 20.2308 16.457 20.5276 16.2812L21.0628 15.9609C21.3597 15.7852 21.4534 15.3984 21.2776 15.1016L19.3792 11.9414C19.5823 11.8984 19.7894 11.8789 20.0003 11.8789C21.7815 11.875 23.2151 13.3711 23.1214 15.1719Z" fill="#7F8299"/>
</g>
<defs>
<clipPath id="clip0_6596_40227">
<rect width="25" height="25" fill="white"/>
</clipPath>
</defs>
</svg>
