<svg width="24" height="24" viewBox="0 0 24 24" fill="none" xmlns="http://www.w3.org/2000/svg">
<path opacity="0.3" fill-rule="evenodd" clip-rule="evenodd" d="M11.1669 4.49985L2.82524 19.5148C2.55703 19.9976 2.73097 20.6064 3.21376 20.8746C3.36232 20.9571 3.52946 21.0004 3.6994 21.0004H21.2168C21.7691 21.0004 22.2168 20.5527 22.2168 20.0004C22.2168 19.8164 22.1661 19.636 22.0701 19.479L12.8943 4.46405C12.6063 3.99279 11.9908 3.84422 11.5196 4.13221C11.3722 4.22225 11.2507 4.34891 11.1669 4.49985Z" fill="white"/>
<path d="M13 10C13 9.44772 12.5523 9 12 9C11.4477 9 11 9.44772 11 10V15C11 15.5523 11.4477 16 12 16C12.5523 16 13 15.5523 13 15V10Z" fill="white"/>
<path d="M13 18C13 17.4477 12.5523 17 12 17C11.4477 17 11 17.4477 11 18C11 18.5523 11.4477 19 12 19C12.5523 19 13 18.5523 13 18Z" fill="white"/>
</svg>
